<svg xmlns="http://www.w3.org/2000/svg" viewBox="0 0 498.16 175.44"><defs><style>.cls-1{fill:#6e7171;}</style></defs><title>about_title</title><g id="Слой_2" data-name="Слой 2"><g id="Layer_1" data-name="Layer 1"><path class="cls-1" d="M154.84,122.6q-6.54,4.29-19.79,13.26a1.76,1.76,0,0,0,1.22.62c.82,0,2.31-.68,4.49-2-.41.54-.48.95-.2,1.22.67-.27,1.63-.68,2.85-1.22a24.46,24.46,0,0,1-4.49,2.85l-1.42,1.63a108,108,0,0,0-9.59,5.1c-.28.14-.28.35,0,.62a153.69,153.69,0,0,0,18.36-10c-1.09,1.22-2.72,2.86-4.9,4.9q-2,1-6.53,3.46-3.26,2.87-9.58,7.76a46.76,46.76,0,0,1-7.55,3.06q-.83,1.22-9,4.89-4.89,2.44-5.51,2.25a3.89,3.89,0,0,1-1.32-.41,3.93,3.93,0,0,0-1.33-.41A48.78,48.78,0,0,0,92,161.26a35.33,35.33,0,0,1-8.56.92c1.08,0,0-.14-3.17-.41s-5-.4-5.4-.4a20.1,20.1,0,0,0,3.06,1.83c-3.4-.14-5.38-.34-5.92-.61q-3.47-1.64-11.83-8.36a25.46,25.46,0,0,1-2.65-2.86l-4.29.41a8.35,8.35,0,0,0-1.22,1L51,152a1,1,0,0,0-.2.71c0,.35-.21.45-.62.31H48.76a3.55,3.55,0,0,0-1-.2,13.32,13.32,0,0,0,4.08-1.13,13.4,13.4,0,0,1,4.48-1.12c.41.14.62,0,.62-.41,0-.68-.86-1.86-2.55-3.56s-2.9-2.62-3.57-2.76a5,5,0,0,0-2,.82,5.17,5.17,0,0,1-2,.81,109.74,109.74,0,0,0-14.69.82,1.48,1.48,0,0,0,.41.71,1.77,1.77,0,0,1,.4,1.12c-1.22-1.49-2.44-2.24-3.67-2.24-.41,0-.61.07-.61.2s.13.35.41.62a29.76,29.76,0,0,0-4.9-1.84,1.3,1.3,0,0,1-.61.31,1.34,1.34,0,0,0-.61.3q3.87,3.27,6.32,3.47l4.69.2a.57.57,0,0,0,.21-.4c0-.14-.21-.21-.61-.21a6.88,6.88,0,0,1,3.26,1,22.86,22.86,0,0,0-3.57.41,23,23,0,0,1-3.57.41,8.48,8.48,0,0,1-2.86-1.43,10.14,10.14,0,0,0-2.65-1.43q-.62,0-.51.21c.07.13-.1.2-.51.2q-3.47-.19-12.44-7.55c-.68-1.09-1.91-3.06-3.67-5.91A42.22,42.22,0,0,1,.61,115.67c-.41-4-.61-6.8-.61-8.57a3.2,3.2,0,0,1,.51-1c.34-.54.44-1,.31-1.22q-.21-8,5.61-19.49T19.18,70.79A16,16,0,0,0,22,70c3.4-2.31,5.31-3.33,5.71-3.06a10.55,10.55,0,0,0-3.87,2.65,5.66,5.66,0,0,0,3.47,1.23q1.21,0,2.55-1.74a4.09,4.09,0,0,0,1.12-3c.54,0,.88.13,1,.4.41,0,.68-.4.81-1.22,0,.27.34.41,1,.41a50.1,50.1,0,0,0,4.49-2.35c2.86-1.56,4.62-2.48,5.31-2.75q2.45-1,11.83-2.25a48.54,48.54,0,0,0,5.3-.81,4,4,0,0,1,1.84.81,16.48,16.48,0,0,0,1.63,1A6.5,6.5,0,0,0,66.1,59a6.2,6.2,0,0,1,1.63-.41,4.91,4.91,0,0,1,1.32.3,4.77,4.77,0,0,0,1.33.31,2.64,2.64,0,0,0,1.33-.41,2.48,2.48,0,0,1,1.12-.41,3.26,3.26,0,0,1,1.43.82,3,3,0,0,0,1.42.82,22.43,22.43,0,0,0,4.7.81,1.48,1.48,0,0,0,.91-.41,1.54,1.54,0,0,1,.92-.4,4.06,4.06,0,0,1,1.23.2l.61.41a1.58,1.58,0,0,0-1.43.61l-.2.41A59.25,59.25,0,0,1,89.76,63l-.2,4.48-.82.82a1.76,1.76,0,0,0-.61,1.22c.13,0,.41.21.81.62a5.43,5.43,0,0,1-1.42-.82l-3.27,3.26.21,1.43a6.71,6.71,0,0,0,1.83-1.22c-.14,1.09.07,1.63.61,1.63a1.28,1.28,0,0,0,1,0h.62a33.63,33.63,0,0,0-1.84,4.69q0,.61-3.26,4.9v1.83A70.56,70.56,0,0,1,90,77.32q-3.46,8.57-5.91,13.26c-.14.13-.07.34.2.61a4.56,4.56,0,0,0,1-.82A185.76,185.76,0,0,1,95.68,70.79h.81q-.21.61-.81,2l.4.81,1.43-1.22a65.56,65.56,0,0,0-3.06,6.12.66.66,0,0,0,.61.41c0-.82-.13-1.23-.4-1.23s-1.37,1.16-2.86,3.47L85.48,92.82a1.91,1.91,0,0,1,0,1.22,6,6,0,0,0-.41,1.43l-.82-.81q-3.87,4.49-4.69,13l-1.22,12a6.48,6.48,0,0,0-.41,2,4.44,4.44,0,0,0,.41,2,2.4,2.4,0,0,0,.81-2c.54-1.77,1.16-4.29,1.84-7.55.27-1.9.68-4.83,1.22-8.77q.21-.61,3.06-5.92.62-1.22,2.65-6.32a15.7,15.7,0,0,1,3.88-5.71l.61,1.83q-3.47,5.31-7.75,23.87l.82.82a35.8,35.8,0,0,1,7.34-16.73,66.43,66.43,0,0,0-3.88,8.77,55.14,55.14,0,0,0-2.24,13.46c-.14.55.07.82.61.82q-1,0,7.55-3.26v1.83a2.2,2.2,0,0,0,1,.21q2,0,11.42-5.1l-9.58,6.32a2,2,0,0,0,1,.41,3.67,3.67,0,0,0,1.63-.41c-.28.27-.75.82-1.43,1.63l-1.43-1.43-6.93,5.31a19.1,19.1,0,0,1,2.65,1,34.25,34.25,0,0,0-6.12,2,14.25,14.25,0,0,1-.51,3.26,14.24,14.24,0,0,0-.51,3.27q-.21,2,2.24,3.77A9.77,9.77,0,0,0,93,141.17a10.2,10.2,0,0,0,1.74-.21,10.86,10.86,0,0,1,1.73-.2L112.81,134a25.21,25.21,0,0,1-4.28,2,6.27,6.27,0,0,0-3.47,3.26,1,1,0,0,1,.51.21,1,1,0,0,0,.51.2l17.14-9a23,23,0,0,0,4.48.62c-.68-.14.62-.68,3.88-1.64l.61-.2a46.9,46.9,0,0,0,6.73-2.24c6.26-4,9.66-6,10.2-6.33q.62,0,.51.21c-.07.13,0,.2.31.2a2.43,2.43,0,0,0,2-.61,6.74,6.74,0,0,0-2,3.06,18.52,18.52,0,0,0-6.73,3.47c-.14.13-.07.34.2.61C144.64,127.37,148.44,125.6,154.84,122.6ZM4.9,125.26a44.73,44.73,0,0,1-1.43-4.9c0-1.22.54-1.77,1.63-1.63Zm-.62-7.14H3.67v-3.06h.61Zm17.34,27.94a40.12,40.12,0,0,1-6.93-4.69l.2-.61-.81.61-2.86-3.06A80.28,80.28,0,0,1,21.62,146.06Zm12.86,7.55a3.23,3.23,0,0,1-3.68,2.45c-1.49,0-4-1.23-7.54-3.67-2.59-1.77-4.49-3.13-5.72-4.08q4.29,2.44,13.06,6.73a1.37,1.37,0,0,1,.51-.31,1.3,1.3,0,0,0,.51-.3A15.55,15.55,0,0,0,28,151.16L33.46,154A1.38,1.38,0,0,0,34.48,153.61ZM74.26,69.36H70.79l.81,1c-.13.14-.48.2-1,.2a6,6,0,0,0-1.22-1,2,2,0,0,1,.41,1c0,.28-.21.48-.61.62-2.45-.55-3.47-.82-3.06-.82a9.48,9.48,0,0,0-4.9,1.84q-9.8,6.32-12.44,10.6a2.81,2.81,0,0,1,1.63,1q1.62-2.64,6.53-5.3c3.26-1.77,6-2.58,8.16-2.45a1.59,1.59,0,0,1,1,.21,41.62,41.62,0,0,0-14.49,7.34c-.68.27-1.5.54-2.45.82q-2.65,3.87-7.54,10.6c-.14-1,1-3.46,3.46-7.54q-5.3,7.76-7.14,10.6-3.46,5.72-3.46,9-3.06,8-3.27,12.24a19.32,19.32,0,0,0,1.43,6.32c1.36,3.68,3.19,5.51,5.51,5.51,1.08.14,3.12-.41,6.12-1.63s5-1.84,6.12-1.84c.41,0,.57.07.51.21s.1.27.51.41A3.16,3.16,0,0,0,53,127.6a3.3,3.3,0,0,1,1.43-.71q.81-1.64,1-6.33Q57.13,95.27,66.3,80.17a2.17,2.17,0,0,0-1.84.82V79.36c0,.27-.27.68-.81,1.22l.2-2.86a5,5,0,0,0,2.45-.4,35.57,35.57,0,0,0,1.43-3.47h1.63a2.34,2.34,0,0,1,.2,1l-.4.81ZM40.6,152.18a1.68,1.68,0,0,0-.62,1,.57.57,0,0,0,.21.4,29.7,29.7,0,0,1-6.12-.81q.2,0,.51-.51t.51-.51h1.83A23.18,23.18,0,0,0,40.6,152.18Zm-3.27-42.63-.41-.41-1.22,1.63.61.41Zm7.14,42.23a25.49,25.49,0,0,1-4.28-1.23,32.4,32.4,0,0,1,3.67.82C44.13,151.64,44.33,151.78,44.47,151.78Zm5.1-3.88H45.29v-.61h4.28Zm4.9,7.75q-1.23.4-3.27,1.23a7.86,7.86,0,0,1-1.42-1.23q.19-2.44,4.69-2.24a6.89,6.89,0,0,0-2.45,1l.82,1A3.35,3.35,0,0,1,54.47,155.65Zm-2.65-7.75-.21.61-1.43-.61v-.61Zm4.08-39.37L55.49,112h-.82l.41-3.47ZM72.22,67.12,72,66.5l-1,.62-.2.61Zm8-2.25a15,15,0,0,0-3.87-.61,12.42,12.42,0,0,0-5.31,1c1.09.82,1.63,1.5,1.63,2a5.5,5.5,0,0,1,2,.41,11.8,11.8,0,0,0,2,1.22,30.17,30.17,0,0,1,1.53-2.65C78.85,65.35,79.49,64.87,80.17,64.87ZM77.52,71.2c.27,0,.41.07.41.2a9.46,9.46,0,0,1-.82,1.22l-1.63-1c.13.14.48.11,1-.1A4.33,4.33,0,0,1,77.52,71.2Zm-.82,67.93V137.5h-.81v1.63Zm.21-2.65v-1.64h-.82v1.64Zm9.38-70.59q1.63.21-2-.3t-4.08-.51a12.57,12.57,0,0,1-2.45,4.28c.68,0,1.09.14,1.23.41-.55.54-.82.88-.82,1a1.5,1.5,0,0,0,.61-.21,1.9,1.9,0,0,1,.82-.2c.41,0,.61.17.61.51s.07.51.21.51A2.32,2.32,0,0,0,80,73a37.34,37.34,0,0,1,4.69-1.43.64.64,0,0,1-.61-.4A26.38,26.38,0,0,0,86.29,65.89Zm-7.14,67.93-.61-1.22-.61.2.61,1Zm5.1-87.31L84.05,52q0,3.46-3.06,4.28c-1.23-1.35-1.84-3.53-1.84-6.52s1.16-4.42,3.06-4.29A3.54,3.54,0,0,1,84.25,46.51Zm-2,21.22-1,1-.41-.61L82,67.32Zm3.27,47.53h-.82l-1,6.12h.61Zm4.08-42a3.65,3.65,0,0,1-2.25-1,2.6,2.6,0,0,0,.82-.31,2.46,2.46,0,0,1,1-.31,2.21,2.21,0,0,0,.2,1Zm2.85,20.6-3.47,5.1-.61-.41,3.47-5.1Zm-2,14.69-1.22,4.28-.82-.2,1.43-4.08Zm19-50.19q0,1.44-5.71,6.74A51.45,51.45,0,0,1,96.49,62c-.27-.55-.75-1.43-1.43-2.66a6.18,6.18,0,0,0,.62-2.44c.13-1.5-.14-2.25-.82-2.25a2.46,2.46,0,0,0-.92.21,1.13,1.13,0,0,1-.92,0q-2,0-4.08-4.08,2.86-3.27,5.92-3.06a6.1,6.1,0,0,1,2,1.12A5.38,5.38,0,0,0,99.14,50a6,6,0,0,0,2.25,0,17.79,17.79,0,0,1,2.24-.2c1.09.13,2.31,1.29,3.67,3.46S109.34,57.12,109.34,58.34ZM91.19,72.62h-1V72h1Zm6.12,8.78-2.45,3.26-.61-.41L96.7,81Zm-.41-2.86-1.22,2-.62-.2,1.23-2Zm2.24-.41L97.92,79l-.41-.41,1.23-1Zm3.47,44.47a2.49,2.49,0,0,1-.61-1,13.29,13.29,0,0,0-2,2c.27.28.68.75,1.22,1.43A4.74,4.74,0,0,1,102.61,122.6Zm2.86.82-1.84,1.63,1.63.21A4,4,0,0,1,105.47,123.42Zm42.84-28.56A4.22,4.22,0,0,1,148.1,96a5.13,5.13,0,0,0-.2.92h-2c-.27-.41-.82-1.22-1.63-2.45,0,.28-.28.61-.82,1a1.74,1.74,0,0,0,1-1.83,25.55,25.55,0,0,0-.2-2.55,23.8,23.8,0,0,1-.21-2.55,7.44,7.44,0,0,1,.21-1.84l2,.2a39.33,39.33,0,0,1,.81,5.72A3.37,3.37,0,0,1,148.31,94.86Z"/><path class="cls-1" d="M196,114.85q0,7.55-3.47,12.45c-.81,1.22-1.9,3.13-3.26,5.71q-1.23,1.63-10,8.77a9.42,9.42,0,0,1,1-1.84.18.18,0,0,1,.21-.2h-1c1.08,0-.34.61-4.29,1.84a41.75,41.75,0,0,0,4.08-2.86.67.67,0,0,0-.2-.82L153,151.37c-.14-.54-.41-.82-.82-.82q-2.85,0-16.32,5.92a9.6,9.6,0,0,0-2.45,2c0-1,.14-1.43.41-1.43a6.41,6.41,0,0,0-1.63,3.47,12.15,12.15,0,0,1-1.63-1.23q-6.74,2.66-6.33,9.59a2.22,2.22,0,0,1-1.12-.51,2.22,2.22,0,0,0-1.12-.51c-.27.41-1.09,2.24-2.45,5.51h-1a28.43,28.43,0,0,1,0-4.9,3,3,0,0,0-1-1.22,2,2,0,0,0-.41,1.43,1.58,1.58,0,0,0-.61-1.43,35.23,35.23,0,0,0-2.24,3.06,24,24,0,0,0,0-4.49.81.81,0,0,0-.82.61,28,28,0,0,1-2,5.31,14.37,14.37,0,0,1-.61-3.27,4.26,4.26,0,0,1,.61-3.87,3.92,3.92,0,0,0-2.85-1.63,9.12,9.12,0,0,0-1.84.2,9.21,9.21,0,0,1-1.63.2v-3.06a44,44,0,0,0,5.91-1.63c.68-1.91,2.32-6.25,4.9-13.06q2.23-5.91,5.3-15.09V130a4.82,4.82,0,0,0-1.42,2q8.76-28.77,16.11-64.06,4.69-23.66,5.31-35.9V27.54a32.26,32.26,0,0,0-.21-4.29V19.58a24.28,24.28,0,0,0,1.63,3.88A8.54,8.54,0,0,0,143.82,19a11.76,11.76,0,0,0-.61-3.67,22.69,22.69,0,0,1,2-4.49q-.62,6.33-.62,8.77.62-1.21,2.45-4.49a36.62,36.62,0,0,1,3.27-3.26,12.69,12.69,0,0,1,1.42,2.45c.27-.14.48-.61.62-1.43v1.43a6.37,6.37,0,0,1,2.65.41,3.4,3.4,0,0,0,.71-1.33,3.58,3.58,0,0,1,.51-1.12,18.64,18.64,0,0,0,0,4.08,4.57,4.57,0,0,0,2.25-2.24l-1.23-1.43L161,15.09a9.4,9.4,0,0,0,1-4.28c.14.82.41,2,.82,3.47a6.12,6.12,0,0,1,1-2.45,57.77,57.77,0,0,0,1.84,6.73h.2a42.6,42.6,0,0,1,1.43-7.75,3.27,3.27,0,0,1,3.06-2c.81,0,1.7,1.23,2.65,3.67a3,3,0,0,0-3.26,2.45,8.28,8.28,0,0,0,0,4.49,84.44,84.44,0,0,1,1,12.85A63.44,63.44,0,0,1,167.69,52a3.16,3.16,0,0,0-.82-1.84q-.62,3.06-2.24,9.18a1.2,1.2,0,0,0-.82-.4A33.94,33.94,0,0,0,162,63.85a18,18,0,0,1,.21,3.27,30.08,30.08,0,0,0-2.25,3.46v-2c-.13-.13-.27,0-.4.41q-1,3.67-4.29,14.28,2-.2,8.57,0a46.16,46.16,0,0,1,11.63,1.84A30.79,30.79,0,0,1,190.13,96.9,31.15,31.15,0,0,1,196,114.85ZM138.51,16.12a11.22,11.22,0,0,0-.81,3.46,39.42,39.42,0,0,1-1.63-4.08c.54.55.88.82,1,.82h1A.59.59,0,0,1,138.51,16.12Zm-.81,120.15h-.61l-1,2.45.61.2Zm1.84-5.71q-1.23,1-1.84,4.49a.83.83,0,0,0-.61.2,7.5,7.5,0,0,0,.61,1C138.92,133.42,139.54,131.51,139.54,130.56Zm30.39-10.4a14.09,14.09,0,0,0-1.22-4.7l-1,3.27a18.68,18.68,0,0,0-1.84-6.94,5.51,5.51,0,0,1-.41,2.65c0-.68-.81-1.76-2.44-3.26h1.63q-1-3.25-11-3.26c-2.58,0-4.15.54-4.69,1.63a14.22,14.22,0,0,1,4.28,1l-4.49,1q-2,6.31-6.12,17.95c0-.27.07-.41.21-.41a3,3,0,0,1,.2,1.23,9.84,9.84,0,0,1-.92,3.26,12.83,12.83,0,0,0-.91,2.65,17.31,17.31,0,0,0,2-3.26c.27.27.33.48.2.61,0-.41-.27-.13-.82.82a8,8,0,0,1-1.83,2.44l-.41.41a12.6,12.6,0,0,1-.81,3.67c0-.67.4-1,1.22-1q.41,1.63-1.84,4.49h1.63c-.68.95-1.49,2.25-2.44,3.88a19.56,19.56,0,0,0,6.52-4.08c-1.49,1.09-2.58,1.5-3.26,1.22a27.8,27.8,0,0,1,2.45-1.83c-1.5.54-2.45.68-2.86.4q6.53-3.87,19-10.81l-4.28,1.23q3.87-2.87,7.75-5.51,4.69-3.47,5.31-6.94C169.52,120.09,169.93,119.48,169.93,120.16Zm-24.07-8a5.31,5.31,0,0,0-1.43.82q-1.83,5.51-4.9,16.32l1,.61ZM141,143l-.81,1-.62-.4,1.23-1.23Zm2.25-129.74h-.62v-2h.62Zm2.85,113.63-1.22,2.24-.82-.2,1.43-2.25Zm1.23-18.16c-1.36.68-2,1.23-2,1.63h1.63A2.83,2.83,0,0,1,147.29,108.73Zm-.82,2.65v-.81h-1.22v.81Zm2.24-98.53h-.81L147.49,11h.61ZM151,113.63a2,2,0,0,0-1.84,1.43,7.06,7.06,0,0,1,1.23-3.06A2.19,2.19,0,0,0,151,113.63ZM153.2.82l-.41.61-1-1,.41-.41Zm-.41,83.23V82.82H152v1.23Zm.41-1.43V81.19h-.81v1.43Zm.41-1.63V79H153v2Zm.82,1.63-.62-.2-.61,1.42.61.21Zm4.69-7.14-.61,2.24h-.62l.41-2.24Zm.41-.82h-.82V73.24h.82Zm4.89-10.81h-.61V62.22h.61Zm8.16-28.35h-1V32.64h1Zm.21-14.9h-.62V19.38h.62Zm0,10.82h-.62V21h.62Zm4.89,111.18-2,1V143l1.84-1Zm11.43-29.18q0-3.66-3.27-9a2,2,0,0,1-.41,1.43q-.19-1.84-3.06-4.59a14.12,14.12,0,0,0-4.69-3.37q11.43,9.18,10.61,20.4A16.9,16.9,0,0,0,189.11,113.42Zm-6.53-33.25.61.61h1.43c-.55,0-.34-.27.61-.81,1.23.41,1.5,1.15.82,2.24a3.94,3.94,0,0,0-.21,3.67,11.4,11.4,0,0,1,2.45,2.25l3.06.61q2,0,1.23-2,.6-.4,1.83-4.28.81.81,1,.81a2.34,2.34,0,0,0,2.65-2.65c0-2.45-1.15-3.67-3.47-3.67a.87.87,0,0,0-.51.3.8.8,0,0,1-.51.31,4.43,4.43,0,0,1-1.22-.71,4.31,4.31,0,0,0-1.22-.72,8.59,8.59,0,0,0-3.47,1.43A19.42,19.42,0,0,1,185.84,79a.18.18,0,0,1-.2-.21c0-1.35-.55-2-1.63-2-.41,0-.89.41-1.43,1.23Zm4.89,51-.4-.41-3.88,4.08.2.41ZM186.05,83l.61-.21V83l-.41.2Z"/><path class="cls-1" d="M292.53,93q0,3.67-3.06,10.82-1.22,3.47-3.47,11a98.74,98.74,0,0,0-6.93,9l1-2c.81-1.5,1.08-2.38.81-2.65a78.63,78.63,0,0,0-4.48,7.34,36.37,36.37,0,0,0-3.68,3.88c-.81,1.49-2,3.67-3.46,6.52a50.72,50.72,0,0,1-11.84,12.24q-11.22,8.37-14.89,8.37a6.6,6.6,0,0,1-1.84-.41,6.76,6.76,0,0,0-1.63-.41,20.87,20.87,0,0,0-4.59.72,21.35,21.35,0,0,1-4.59.71q-6.12,0-13.05-6.53l-4.08-.81a5.12,5.12,0,0,0-.21,1.63,17.21,17.21,0,0,0,.21,2.45q-2-2.66-5.51-6.94c-.14-.68-.48-1.9-1-3.67l-1.23-.82c-.27-1.76-.68-4.49-1.22-8.16a3.53,3.53,0,0,0,1-1.83,38.68,38.68,0,0,1-2.65-8q.61-.61,0-11a119.6,119.6,0,0,1,7.55-29.37q2.23-6.33,8.77-13.26,6.93-8.16,12.44-9.39c.54,0,3.13-1.08,7.75-3.26a49.19,49.19,0,0,0-22.43,17.75c-.14.14,0,.41.4.81l1-.81a22.19,22.19,0,0,0-4.28,6.93l.82.41q6.31-8.76,20.6-18.56a16.89,16.89,0,0,0-3.47,1q13-7.75,20.2-7.55c-.14,0-.41.21-.82.61a2.45,2.45,0,0,0,1.43.41,16.5,16.5,0,0,0,3.06-.41,17.19,17.19,0,0,1,3.06-.4A7.6,7.6,0,0,1,261,60.79a8.94,8.94,0,0,0,2.56,1.43c.54,0,.78-.1.71-.31s0-.3.31-.3a5.73,5.73,0,0,1,1.73,1.32q1.13,1.13,6,6.63a17.71,17.71,0,0,0,4.08,4.9l.81-.82c-1-.4-1.32-1-1.12-1.63a1.37,1.37,0,0,0-.51-1.63,7.27,7.27,0,0,1,4.9,1.43c.81-1,1.22-1.56,1.22-1.84A13.2,13.2,0,0,0,285,74.66q1.42,1.64,4.28,10.41c0,.54.07,1.43.2,2.65a4.45,4.45,0,0,0,1.84,1.63A6.64,6.64,0,0,1,292.53,93ZM223.17,71.4l-2.65,2.86-.2-.62,2.44-2.44Zm3.27-2-2.65,2-.21-.82L226,68.75Zm32.43,19.58a17.49,17.49,0,0,1-2.45-4.69q-2.64,1.84-8.56,6.94a7.39,7.39,0,0,1,1.63-3.06A75.35,75.35,0,0,0,235.82,114c-.54-.82-.89-1.23-1-1.23q-1.43,0-2.75,4.9a30.87,30.87,0,0,0-1.33,6.93,40.86,40.86,0,0,0,1.84,10.61q8.16-2.24,15.7-12t7.35-17.75c.54.27.95-.14,1.22-1.23l.62-1.42c-1.1-.41-2.25-.89-3.47-1.43a9.32,9.32,0,0,0,.2-1.63q0-2-6.53-3.68l5.1-.2a13.39,13.39,0,0,1,2.86,1.84,10.3,10.3,0,0,1,.61-1.43,2.68,2.68,0,0,1-1.43-.21c.68-.68,1-1.22.82-1.63-.55-.41-1.3-1-2.25-1.63a7.34,7.34,0,0,0,4.08-2.65,17.14,17.14,0,0,0-1.63-1.84,5.81,5.81,0,0,1,1.63.31A6.07,6.07,0,0,0,258.87,88.94ZM240.72,59.16h-1.23v-.82h1.23Zm8.77.2q-2.25.62-9.18,3.06h1.83Q243.37,62.63,249.49,59.36Zm-6.12-1.22h-1.23v-.82h1.23Zm9,43.86h-1v-.82h1Zm36.32-33.46h-.82V66.71h.82Z"/><path class="cls-1" d="M376.58,165.44a7,7,0,0,0-2.24-.1c-1.1.07-1.84.1-2.25.1s-1-1.09-2.35-3.26-2-3.34-2.14-3.47c-1,.54-1.5,1.09-1.63,1.63s.41,1.84,1.63,3.47a5.15,5.15,0,0,0,0,2.86,2.34,2.34,0,0,1-2.45,2.24,1.71,1.71,0,0,1-.91-.2,1,1,0,0,0-.51-.21,2.57,2.57,0,0,0-.62,1,.81.81,0,0,0,.21.61l-1-1c-.95,0-1.5.4-1.63,1.22l-.21,1.83a4.68,4.68,0,0,1-1.63-.4,4.85,4.85,0,0,0-1.84-.41,16,16,0,0,1,1.43,2.45l-.2,1.63h-1.63c-.69-1.77-1.77-4.42-3.27-8-2.31.68-3.81,1.09-4.49,1.23q-2.85,0-2.65-10.41,0-1.43.21-10.6a9.46,9.46,0,0,1-.82,1.22c-1.36.55-3.13,1.36-5.3,2.45q-8.58,3.06-12.65,3.26l-5.31.21q-1.83,0-6.12-2a19.59,19.59,0,0,1-2-1.23q-10-4.27-13.66-17.74a60.93,60.93,0,0,1-.82-24.49q.21-1.22.51-3.87c.21-1.77.37-3.2.51-4.29q.4-2.45,8-23.05,2.85-7.55,6.32-10.2c.14,1.09.41,2.52.82,4.29q.19-.21,3.26-4.08,2.44-3.47,3.88-3.47a5,5,0,0,1,1.83.41,7.66,7.66,0,0,1,.41,1l-.2,1.42c.13.55.4,1.43.81,2.66Q327,73.24,329.66,73q-1.64.21,4.28-1.83a9.28,9.28,0,0,1,0,2.85,39.22,39.22,0,0,1-1.43,5.31,2.65,2.65,0,0,0,0,1.43q-1,4.89-3.26,13.25a8.92,8.92,0,0,0-.41,3.68l.21.61q-2,11.63-1.64,17.54A37.45,37.45,0,0,0,333.74,134l-.21.41a8,8,0,0,1,2.86,1.22.65.65,0,0,0,.61.41q.81,0,8.57-4.69a1.2,1.2,0,0,1,1,.61,5.53,5.53,0,0,1-1.84,2,2.25,2.25,0,0,0,.82.41c0,.81.74,1.63,2.24,2.44a59.88,59.88,0,0,0,1.63-7.95,5.66,5.66,0,0,1-.4-1.22l.81-1q1.42-13.86,10.2-38.55,2.65-7.35,8.37-20.61l1,1c-.69,1.64-1.43,3.61-2.25,5.92l-.61,3.06c-.14.27.07.41.61.41q1.63,0,3.57-3.67a20.49,20.49,0,0,1,2.14-3.68,3,3,0,0,1,1.23.21l.2.2,1.43-3.67a12.66,12.66,0,0,0,0,3.26c.82-.4,1.63-1.76,2.45-4.08l2-.81c1.36,1.36,2,2.11,1.84,2.24.54,0,.78-.06.71-.2s0-.21.31-.21.81.48,1.22,1.43.75,1.5,1,1.63a15.27,15.27,0,0,1-1.63,2.66,3,3,0,0,0,0,2.65c-.14.14-.07.34.2.61a11.65,11.65,0,0,0,3.47-2.45l-.2.61a5.73,5.73,0,0,1,.61,1,23.47,23.47,0,0,0-1,3.68c-.28,1.9-.48,4.08-.61,6.52l.4.21a2.63,2.63,0,0,1,1-1.43q-.4,1.43-6.73,26.11a123.29,123.29,0,0,0-3.47,20.61c-.13,1.49-.68,4.62-1.63,9.38a1.56,1.56,0,0,0,.41,1.43l-.2,1.43a2.41,2.41,0,0,1-1,.2,1.35,1.35,0,0,1-1-.41l-1.43.21Q369,162.39,376.58,165.44Zm-39-83.84-2,5.71c-1.49,4.76-2.38,7.69-2.65,8.77s-.27,2.38-.4,4.29a9.09,9.09,0,0,1-2.45,4.69,32.25,32.25,0,0,1-.41-10c.27-1.22.82-3.12,1.63-5.71a40.88,40.88,0,0,0,1.43-5.3,62.87,62.87,0,0,1,2.86-6.73,4.19,4.19,0,0,0,.81,1,2.5,2.5,0,0,1,1.84-.82Z"/><path class="cls-1" d="M396.77,132c-.27,1.5-.88,2.17-1.83,2-.28,0-1.3-.95-3.06-2.86.13-.81-.41-1.76-1.64-2.85-.13-.82-.2-1.3-.2-1.43a1.62,1.62,0,0,1,1.22.81l1.64-1.22a3.19,3.19,0,0,1,1.42-.82C395.82,125.94,396.63,128,396.77,132ZM394.12,30.4a2.35,2.35,0,0,1-.31,1,2.46,2.46,0,0,0-.3.81,5.38,5.38,0,0,0-2,0c-.55-.54-.75-.88-.61-1a4.17,4.17,0,0,1,.61-1.53,4.23,4.23,0,0,0,.61-1.53,11.39,11.39,0,0,1,2.45.41ZM498,64.87l-3.88,1.84c-.14.54.34,1.16,1.43,1.83,0,.28-.28.69-.82,1.23-2.44.27-6,.48-10.6.61a3.49,3.49,0,0,0-2.25.82c1.09.27,2.25.54,3.47.81a32.25,32.25,0,0,0,3.67.21q-2.25.41-6.73,1a37.75,37.75,0,0,1-5.92,1.63.41.41,0,0,0,.62.2c2.31-.27,3.6-.41,3.87-.41.95,0,4.22-.13,9.79-.4l.82.4-1.43,1-25.7,2.86Q450.22,80,438.8,80.38l-.41.4q-.21.21-4.29,12a90.28,90.28,0,0,0-3.67,13.67q-3.06,20,2.65,32,10.6-6.33,10-6.33c.54,0,1.43.72,2.65,2.14s2.11,2.22,2.65,2.35c.27,0,.41-.07.41-.2s.13-.14.41,0a4.74,4.74,0,0,1,1.22,1.22q1.23-1,13.06-6.94a70,70,0,0,1-27.74,19c-.55.27-.82.54-.82.81l.41.61q4.08-.19,20.4-9.79l-10.61,8q-10.2,7.33-13.46,6.73c-.41,0-1.54-.82-3.37-2.45a14.13,14.13,0,0,1-3-3.06c-1.36.41-2.11,1.16-2.24,2.24l-2.45-.4q-2-.4-9.38-11.63-2.86-4.48-2.86-17.75A141,141,0,0,1,410,104.24q.41-2.64,5.31-22.44a25.66,25.66,0,0,1-7.55.41,21,21,0,0,1-4.69-1.63A19.13,19.13,0,0,0,398,79l-5.51-.82h-.82a2.59,2.59,0,0,1,.61-1.43,7.28,7.28,0,0,1,3.27-.41c.54.14,1.43.35,2.65.62s2.11.47,2.65.61l.61-.41a8.8,8.8,0,0,0-2.65-1.84c.68,0,1.84-.06,3.47-.2q-5.92-5.91-6.94-6.12c-.4,0-1.7.14-3.87.41.13-.41.47-.54,1-.41.13-.13,0-.41-.41-.82,1.09-1.08,2.17-2.17,3.26-3.26,2.86,0,4.36-.47,4.49-1.43.27-1.22.07-1.83-.61-1.83a4,4,0,0,1-2.65-1.43q1.83-.21,5.51-1l-.61-.82c.81-.41,2.1-1.08,3.87-2,.27-.41.21-.61-.2-.61.81.14,1.29.41,1.43.82a2.8,2.8,0,0,0,1.83-2.45,17.35,17.35,0,0,1,4.08-1q3.87-.4,11.63-1.43.81-1.63,4.9-14.28l.4-2.86a31.38,31.38,0,0,1,1.84-4.08l.2-2q.62-1.62,2.25-5.1c.13-.54.41-1.35.81-2.44a11.54,11.54,0,0,0,2.25-3.47q2.44,1.64,5.51,3.87l3.46-2.85a20.47,20.47,0,0,0,1.64,4.69q.81-1.83,2.65-6.12l1,.41a15.19,15.19,0,0,0,1.43,5.1,43.59,43.59,0,0,1,.4,6.12c0,3.4.14,5,.41,4.69l-.41,1.84h-.61q-1.22,5.1-4.08,15.3a11.7,11.7,0,0,0,.61,1,1.64,1.64,0,0,0,1-.62.74.74,0,0,0,.62,1,16.42,16.42,0,0,0,4.69-.4q2.85.2,9.18.2,7.95,0,9.18-.2-1.23,2.23-3.06,2L467.36,53l-.61.2a2.68,2.68,0,0,0,1.83,1,13.36,13.36,0,0,0,2.65-.41,6.62,6.62,0,0,1,2.66-.2c.27,0,.33.14.2.41s0,.41.41.41c-1-.14,1.7-.55,7.95-1.23H492a10.06,10.06,0,0,0-2.75.92c-1.43.61-2.35.85-2.76.71a16.89,16.89,0,0,0-7.95.62,1.64,1.64,0,0,0,1.22.81q9.58,1.64,7.75.82l3.27,4.28a3.77,3.77,0,0,0,.2,1.23c1.09.54,1.43.75,1,.61a36.46,36.46,0,0,0,5.71,0l.41.41Zm-103.23,10-2.85-.41a5.15,5.15,0,0,0,1.22-.61A2.21,2.21,0,0,0,394.73,74.87Zm37.74-57.94a5.38,5.38,0,0,1-1.43.82l-2.44-.41a3.09,3.09,0,0,1-.51-.82,3.84,3.84,0,0,0-.51-.81,2.93,2.93,0,0,0-2,1.53,2.2,2.2,0,0,0-.41,2.14c.95,3.13.74,5.3-.61,6.53l-5.31,3.47q-6.33.4-5.91.61a2.45,2.45,0,0,1-1.84-1.53,2.8,2.8,0,0,1,0-2.55,24.8,24.8,0,0,1-1.63-2.65q-.21-2-.61-5.72-1.44,1.23-2.25,1-5.1-.81-4.28-5.3A7.45,7.45,0,0,1,405.54,9c1.64-1.36,3.2-1.91,4.7-1.64a2,2,0,0,1,1,.41,6.93,6.93,0,0,0,1,.61,12.83,12.83,0,0,0,2.65-.91c1.49-.62,2.38-.85,2.65-.72q1.64.21,5.92,3.47a33.55,33.55,0,0,0,3.06,3.67,13.86,13.86,0,0,1,2-2.85,2.51,2.51,0,0,1,2-.82c.95.14,1.76,1,2.44,2.65ZM413.3,35.5l-3.68-1.43.21-.41,3.47,1.22Zm3.06,9.18c-.28,1.36-1,1.9-2.25,1.63A4.78,4.78,0,0,1,409.83,43c.68-1.49,1.49-2.17,2.45-2Q416.77,41.61,416.36,44.68Zm8.36-23.46-.41-.62-.41.21.41.61Zm6.73,4.28L423.9,47.74,430,23.26A6.58,6.58,0,0,1,431.45,25.5Zm4.29,94.66a1.44,1.44,0,0,1-1.43-1,10.89,10.89,0,0,1-.21-4.7q-.19,1.64,3.68-14.28a66.18,66.18,0,0,0-.92,9.69A61.43,61.43,0,0,1,435.74,120.16Zm15.5-74.06-.82,3.27h-.81l1-3.47Zm2.24-24.88h-.61l.21-.82h.61Zm12.45.81q-.21,2-3.27,3.47a2.53,2.53,0,0,1-.61-1.22A6.19,6.19,0,0,1,463.58,22a5.34,5.34,0,0,1,2.14-1.63A2.11,2.11,0,0,1,465.93,22Zm25.5.21a4.34,4.34,0,0,1-2.86,1l-.41-.41.21-1.23a12.63,12.63,0,0,1,2.85-1.42l.62.4Z"/></g></g></svg>