<svg xmlns="http://www.w3.org/2000/svg" viewBox="0 0 302.19 208.01"><defs><style>.cls-1{fill:#fff;}</style></defs><title>blog_title</title><g id="Слой_2" data-name="Слой 2"><g id="Layer_1" data-name="Layer 1"><path class="cls-1" d="M71.81,90.64a16.59,16.59,0,0,1-2.74,9.82q-1,1.46-2.58,4.51-1,1.29-7.89,6.93a6.93,6.93,0,0,1,.81-1.45.14.14,0,0,1,.16-.16h-.8c.85,0-.27.48-3.39,1.44a30.07,30.07,0,0,0,3.22-2.25.51.51,0,0,0-.16-.64l-20.6,10.62c-.11-.43-.33-.64-.65-.64q-2.25,0-12.88,4.67a7.59,7.59,0,0,0-1.93,1.61c0-.75.1-1.13.32-1.13a5.06,5.06,0,0,0-1.29,2.74,9.56,9.56,0,0,1-1.28-1q-5.33,2.08-5,7.57a1.79,1.79,0,0,1-.88-.4,1.76,1.76,0,0,0-.89-.41c-.21.32-.86,1.77-1.93,4.35h-.8a22.46,22.46,0,0,1,0-3.86,2.48,2.48,0,0,0-.81-1,1.59,1.59,0,0,0-.32,1.13A1.25,1.25,0,0,0,9,132a25,25,0,0,0-1.77,2.42,19.49,19.49,0,0,0,0-3.55.63.63,0,0,0-.65.49A22.58,22.58,0,0,1,5,135.56,10.55,10.55,0,0,1,4.51,133,3.38,3.38,0,0,1,5,129.93a3.1,3.1,0,0,0-2.25-1.29,7.28,7.28,0,0,0-1.45.16A6.75,6.75,0,0,1,0,129v-2.41a37.54,37.54,0,0,0,4.67-1.29Q5.48,123,8.53,115q1.77-4.67,4.19-11.91v-.48a3.84,3.84,0,0,0-1.13,1.61q6.93-22.71,12.72-50.56Q28,34.93,28.5,25.28V21.73a27.57,27.57,0,0,0-.16-3.38V15.46a19.07,19.07,0,0,0,1.28,3.06,6.74,6.74,0,0,0,1-3.55,9.12,9.12,0,0,0-.48-2.89,17.87,17.87,0,0,1,1.61-3.55c-.32,3.33-.49,5.64-.49,6.93.33-.65,1-1.83,1.94-3.55a27.63,27.63,0,0,1,2.57-2.57,9.6,9.6,0,0,1,1.13,1.93c.21-.11.37-.48.48-1.13v1.13a5.1,5.1,0,0,1,2.1.32,2.69,2.69,0,0,0,.56-1,2.68,2.68,0,0,1,.4-.89,14.78,14.78,0,0,0,0,3.22,3.54,3.54,0,0,0,1.77-1.77l-1-1.13,2.89,1.93a7.38,7.38,0,0,0,.81-3.38,27.55,27.55,0,0,0,.64,2.74,5,5,0,0,1,.81-1.93,46.65,46.65,0,0,0,1.45,5.31H48a33.2,33.2,0,0,1,1.13-6.12,2.57,2.57,0,0,1,2.41-1.61c.64,0,1.34,1,2.09,2.9A2.37,2.37,0,0,0,51,11.75a6.63,6.63,0,0,0,0,3.55,66.35,66.35,0,0,1,.8,10.14,50.1,50.1,0,0,1-2.41,15.62,2.42,2.42,0,0,0-.65-1.45Q48.3,42,47,46.85a.94.94,0,0,0-.64-.32,28.3,28.3,0,0,0-1.45,3.86A15.47,15.47,0,0,1,45.08,53a24.82,24.82,0,0,0-1.77,2.74V54.1c-.11-.11-.22,0-.32.32q-.81,2.89-3.38,11.27a64.5,64.5,0,0,1,6.76,0,36.39,36.39,0,0,1,9.18,1.45,24.27,24.27,0,0,1,11.59,9.34A24.56,24.56,0,0,1,71.81,90.64ZM26.4,12.72a8.88,8.88,0,0,0-.64,2.74,34.6,34.6,0,0,1-1.29-3.22c.43.43.7.64.81.64h.8A.47.47,0,0,1,26.4,12.72Zm-.64,94.83h-.48l-.81,1.93.49.16ZM27.21,103c-.64.54-1.13,1.72-1.45,3.54a.66.66,0,0,0-.48.16,5.59,5.59,0,0,0,.48.81A15.1,15.1,0,0,0,27.21,103Zm24-8.21a10.87,10.87,0,0,0-1-3.7l-.8,2.57A14.92,14.92,0,0,0,48,88.23a4.42,4.42,0,0,1-.32,2.09c0-.53-.65-1.39-1.94-2.57H47c-.54-1.72-3.43-2.58-8.69-2.58-2,0-3.28.43-3.7,1.29a11.53,11.53,0,0,1,3.38.8l-3.55.81q-1.61,5-4.83,14.16c0-.21.06-.32.17-.32a2.4,2.4,0,0,1,.16,1,8,8,0,0,1-.73,2.58,10.07,10.07,0,0,0-.72,2.09A14,14,0,0,0,30.11,105c.21.22.26.38.16.49,0-.33-.22-.11-.65.64A6.41,6.41,0,0,1,28.18,108l-.33.32a9.46,9.46,0,0,1-.64,2.9c0-.53.32-.8,1-.8.21.86-.27,2-1.45,3.54H28c-.53.75-1.18,1.77-1.93,3.06a15.47,15.47,0,0,0,5.15-3.22c-1.18.86-2,1.18-2.57,1,.64-.53,1.29-1,1.93-1.45q-1.77.64-2.25.33,5.15-3.06,15-8.54l-3.38,1q3.06-2.25,6.12-4.35c2.46-1.82,3.86-3.65,4.18-5.47C50.88,94.78,51.2,94.29,51.2,94.83Zm-19-6.28a4.34,4.34,0,0,0-1.13.64q-1.44,4.35-3.86,12.88l.8.49Zm-3.86,24.31-.65.81-.48-.33,1-1Zm1.77-102.4h-.49V8.85h.49Zm2.25,89.68-1,1.77-.65-.16L31.88,100Zm1-14.33c-1.08.54-1.61,1-1.61,1.29H33A2.24,2.24,0,0,1,33.33,85.81Zm-.65,2.1v-.65h-1v.65Zm1.77-77.77h-.64l-.32-1.45H34Zm1.78,79.54a1.55,1.55,0,0,0-1.45,1.12,5.6,5.6,0,0,1,1-2.41A1.73,1.73,0,0,0,36.23,89.68ZM38,.64l-.33.49-.8-.81L37.19,0Zm-.33,65.69v-1H37v1ZM38,65.21V64.08h-.65v1.13Zm.32-1.29V62.31h-.48v1.61ZM39,65.21,38.48,65,38,66.17l.48.16Zm3.71-5.64-.49,1.77H41.7L42,59.57Zm.32-.64h-.65V57.8H43Zm3.86-8.54h-.48V49.1h.48ZM53.29,28h-.8V25.76h.8Zm.16-11.75H53v-1h.48Zm0,8.53H53V16.58h.48Zm3.87,87.75-1.61.8v-.48l1.45-.8Zm9-23q0-2.91-2.57-7.09a1.54,1.54,0,0,1-.33,1.13c-.1-1-.91-2.17-2.41-3.62a11.34,11.34,0,0,0-3.7-2.66q9,7.25,8.37,16.1A13.13,13.13,0,0,0,66.33,89.52ZM61.18,63.27l.48.49h1.13c-.43,0-.27-.22.48-.65,1,.32,1.18.92.65,1.77a3.11,3.11,0,0,0-.16,2.9,9,9,0,0,1,1.93,1.77L68.1,70c1.07,0,1.4-.54,1-1.62.32-.21.8-1.34,1.45-3.38.43.43.69.65.8.65a1.85,1.85,0,0,0,2.1-2.09c0-1.94-.92-2.9-2.74-2.9a.65.65,0,0,0-.4.24.66.66,0,0,1-.41.24,3.46,3.46,0,0,1-1-.56,3.33,3.33,0,0,0-1-.57,6.75,6.75,0,0,0-2.73,1.13,14.4,14.4,0,0,1-1.45,1.13.14.14,0,0,1-.16-.16c0-1.08-.43-1.61-1.29-1.61-.32,0-.7.32-1.13,1ZM65,103.52l-.32-.32-3.06,3.22.16.32Zm-1.12-38,.48-.16v.16l-.32.16Z"/><path class="cls-1" d="M109,103a63.45,63.45,0,0,1-6,3.38c.21.43.37.64.48.64a1.55,1.55,0,0,0,1.13-.48,2.47,2.47,0,0,0-.16.65c-.22.1-.11.16.32.16a.62.62,0,0,0,.64-.49,3.5,3.5,0,0,1,.33,2.1,2.76,2.76,0,0,1-.49,1.45,20.73,20.73,0,0,0-6.28,4,1.59,1.59,0,0,1-.64-.32,1.59,1.59,0,0,0-.81-.32c-.53-.11-1.44.27-2.73,1.12l-.16,1a8.19,8.19,0,0,0-1.94,1.13c-.21.11-.1.16.33.16a3.68,3.68,0,0,0,2.09-.48c-.64.21-1.5.48-2.58.8-.32.43-.75,1-1.28,1.61a12.44,12.44,0,0,0-2.9,0A32.82,32.82,0,0,1,85,120.75a6.61,6.61,0,0,0-2.74,2.74,2.38,2.38,0,0,0-.48-1.77,2.19,2.19,0,0,0-1.13,1.77,1.62,1.62,0,0,0,.16,1.28l-.64-.8a28,28,0,0,0-2.26,2.74,7.29,7.29,0,0,0-.64-1,1.45,1.45,0,0,0-1.61,1.45,21.9,21.9,0,0,0-.16,2.41v.49H74.38a1.78,1.78,0,0,1,.32-1V128a2.37,2.37,0,0,0-.16-1.44L72,128.64a3.52,3.52,0,0,1-3.06-2.25l-1,.8a2.36,2.36,0,0,0-.48-1.45,1.73,1.73,0,0,0-.32.48,1.88,1.88,0,0,1-.33.49,6.24,6.24,0,0,1,.81-2.26l-.48-.32c-.33.43-.7.91-1.13,1.45a14.7,14.7,0,0,1,.48-2.42c.11-1.28-.21-1.93-1-1.93a3.21,3.21,0,0,0-1.78.33,1.72,1.72,0,0,0,.17.8l.8-.48c.32,0,.06.37-.8,1.12a2.47,2.47,0,0,0-.81-1.77c0-.1-.11,0-.32.16v2.42a7.67,7.67,0,0,1,0-2.25,1.26,1.26,0,0,0-.81-.17.53.53,0,0,0-.48.25c-.1.16-.21.24-.32.24a.7.7,0,0,0,.4-.49,1.2,1.2,0,0,1,.24-.48,19,19,0,0,0-1.45-1.61l1.45,1c.22-.22.11-.59-.32-1.13L64.72,115a1.31,1.31,0,0,0-.8-.16c.64,0-.54.33-3.55,1,1.08-.54,2.63-1.34,4.67-2.42v-1a32.4,32.4,0,0,0,2.1-3.22A20.22,20.22,0,0,1,69,107.71c1-.75,1.53-1.45,1.53-2.09a5.26,5.26,0,0,0,1.93-1.29q9-19.15,14-50.39l.48-8.22Q84.36,61,84,63.43a107.45,107.45,0,0,1-5.15,17.23q4.67-24,5.15-30.11l.32.65a1.8,1.8,0,0,0,.16-.81.66.66,0,0,0,0-.64c-.64.54-1,.64-1,.32a2.64,2.64,0,0,1,.24-.72A2.73,2.73,0,0,0,84,48.3l1-25.12a20.68,20.68,0,0,1,1.93-8.69v-.64A12.21,12.21,0,0,1,88.39,13a6,6,0,0,0,.16-.8h.8a2.44,2.44,0,0,0,.33,1L88.39,39.93q.48-1.77,1.61-13l-.16-7.09A36,36,0,0,1,91.12,14c.11.43.27,1,.49,1.61.64-.54,1-1.67,1.12-3.38a4,4,0,0,0,1.78.64c.21-.21.58-.64,1.12-1.29v1.29a12.15,12.15,0,0,0,2.26.32c.75.11,1.12,0,1.12-.32a2.27,2.27,0,0,0,.16,1.45,4.28,4.28,0,0,1,.81-2.09c.54-.86,1-1.24,1.45-1.13v1A3.54,3.54,0,0,0,100,13.36l.16,1.13a7.51,7.51,0,0,0,2.9-2.58l-.32,2.58c0,1.07.69,1.67,2.09,1.77a10.15,10.15,0,0,0-.81,2.58c-.1,1.29,0,4.88.17,10.78l-.33,2.9c-.1,1.08.11,1.77.65,2.1l-1.61,15.13Q101.26,66,92.57,95.63a6.9,6.9,0,0,1-.64,1.77c-.22.33-.27.54-.16.65a1.37,1.37,0,0,1,1.13-.16,6.43,6.43,0,0,1,1.28,1.45H95a3.74,3.74,0,0,0,1.13-2.1,2.62,2.62,0,0,0,.32.81.75.75,0,0,0,.8-.65,7.86,7.86,0,0,1-2.73,2.42,10.65,10.65,0,0,0,2.25.32,25.29,25.29,0,0,1,4.51-1.45c.32,0,.69.24,1.12.73s.7.72.81.72.43,0,.64-.32.43-.43.65-.32a13,13,0,0,1,4.67,1.77ZM64.4,118.5l-.32-.33-.49,1,.33.16Zm1.29,2.25a7.46,7.46,0,0,1-.33-2.9,13.27,13.27,0,0,0-1.28,2.58A2.59,2.59,0,0,1,65.69,120.75ZM65,125.58l-.48-.16.16-1.45.48.16Zm4-.64-.65-.17-.32,1.45h.48Zm.48-18.68-.48.64-.32-.16.48-.64ZM76.8,89.68a38,38,0,0,1-3.06,6.76,19.74,19.74,0,0,0-2.1,3.38q1.29-3.54,4-10.3Zm1.77-9.34-.49,1.13-.48-.16.32-1.13ZM81.3,63.92H81l.16-1,.32.16Zm1.77-8.54-.32,2.1-.48-.16.32-1.94Zm7.41,66.18a35.43,35.43,0,0,0-5.31,3.7,2.42,2.42,0,0,0,1.93,1.45.72.72,0,0,0,.64,0v-.32c-.1,1-.21,1.39-.32,1.28s-.38-.11-.8,0l-.49.16q-1-1-.48-1a7.88,7.88,0,0,0-3.06-.81A44.88,44.88,0,0,1,90.48,121.56ZM83.4,53.13,82.91,53l.16-2.42h.65Zm1.93-14.49.8-15.46c-.21-.1-.59,1.67-1.12,5.32A59.79,59.79,0,0,1,85.33,38.64Zm5,80,.16-.65H89.35l-.16.49Zm1.61-22.38h-.32l-1,1.45.32.32Zm.64-2.9h-.48l-.8,2.25h.32Zm1,5.8-.32-.65-1.93,1.13v.64Zm3.06,17.38-.81.17v-.49l.81-.32Zm4.35,1.13a1.42,1.42,0,0,0-.57.24,1,1,0,0,1-.88.08l-1.94-.16a2.41,2.41,0,0,1,1.94-.48Zm1.93-19.8L102.07,99l-.32-.49.81-1Zm2.57-46.69-.64-.16.16-1.61.64.16Zm0,47.33h-.64l.16-1,.48.16Zm.65-53.61h-.65l.16-1.61h.65Zm2.57,57.31h-.48l-.48,1.29h.48Z"/><path class="cls-1" d="M187.08,73.42c0,1.93-.81,4.77-2.41,8.53-.65,1.83-1.56,4.72-2.74,8.69a77.61,77.61,0,0,0-5.48,7.09l.81-1.61c.64-1.18.86-1.88.64-2.1a64.87,64.87,0,0,0-3.54,5.8,30.16,30.16,0,0,0-2.9,3.06q-1,1.77-2.73,5.15a40.47,40.47,0,0,1-9.34,9.66q-8.87,6.6-11.75,6.6a5.18,5.18,0,0,1-1.45-.32,5.09,5.09,0,0,0-1.29-.32,16.24,16.24,0,0,0-3.62.56,16.39,16.39,0,0,1-3.63.56q-4.83,0-10.3-5.15l-3.22-.64a4.1,4.1,0,0,0-.16,1.29,13.47,13.47,0,0,0,.16,1.93c-1.07-1.39-2.52-3.22-4.35-5.47-.11-.54-.38-1.51-.8-2.9l-1-.65c-.21-1.39-.54-3.54-1-6.44a2.81,2.81,0,0,0,.8-1.45A30.43,30.43,0,0,1,115.76,99c.32-.33.32-3.22,0-8.7a94.5,94.5,0,0,1,5.95-23.18,30.84,30.84,0,0,1,6.93-10.47q5.46-6.44,9.82-7.4.64,0,6.12-2.58a38.85,38.85,0,0,0-17.71,14c-.11.11,0,.32.32.64l.8-.64a17.64,17.64,0,0,0-3.38,5.47l.65.32q5-6.91,16.26-14.65a13,13,0,0,0-2.74.81q10.31-6.12,15.94-6c-.11,0-.32.16-.64.48a1.92,1.92,0,0,0,1.12.33,13.33,13.33,0,0,0,2.42-.33,13.85,13.85,0,0,1,2.41-.32A6.2,6.2,0,0,1,162.21,48a7,7,0,0,0,2,1.12c.43,0,.61-.08.56-.24s0-.24.24-.24a4.29,4.29,0,0,1,1.37,1.05c.59.59,2.18,2.33,4.75,5.23a14.22,14.22,0,0,0,3.22,3.87l.65-.65c-.76-.32-1-.75-.89-1.29a1.08,1.08,0,0,0-.4-1.28,5.74,5.74,0,0,1,3.86,1.12c.65-.75,1-1.23,1-1.45a10.61,10.61,0,0,0,2.57,3.71c.75.86,1.88,3.59,3.38,8.21,0,.43.06,1.12.17,2.09a3.44,3.44,0,0,0,1.44,1.29A5.14,5.14,0,0,1,187.08,73.42ZM132.34,56.35l-2.09,2.25-.16-.48L132,56.19Zm2.58-1.61-2.1,1.61-.16-.64,1.93-1.45Zm25.6,15.46a13.67,13.67,0,0,1-1.94-3.71q-2.09,1.45-6.76,5.48a6,6,0,0,1,1.29-2.42A59.6,59.6,0,0,0,142.32,90c-.43-.65-.7-1-.8-1q-1.12,0-2.18,3.87a24.26,24.26,0,0,0-1,5.47,32.25,32.25,0,0,0,1.45,8.37q6.44-1.77,12.39-9.5t5.8-14c.43.21.75-.11,1-1l.49-1.13c-.86-.32-1.77-.69-2.74-1.12a6.75,6.75,0,0,0,.16-1.29q0-1.61-5.15-2.9l4-.16a11.18,11.18,0,0,1,2.25,1.45,8.57,8.57,0,0,1,.48-1.13c-.64,0-1,0-1.12-.16.53-.53.74-1,.64-1.29l-1.77-1.29a5.77,5.77,0,0,0,3.22-2.09,13.67,13.67,0,0,0-1.29-1.45,4.83,4.83,0,0,1,1.29.24A4.31,4.31,0,0,0,160.52,70.2ZM146.19,46.69h-1v-.64h1Zm6.92.16q-1.77.48-7.25,2.42h1.45C148,49.37,149.89,48.57,153.11,46.85Zm-4.83-1h-1v-.64h1Zm7.08,34.62h-.8v-.64h.8ZM184,54.1h-.64V52.65H184Z"/><path class="cls-1" d="M302.19,96.6q-3.37,2.58-10,6.92V105a5,5,0,0,0,1.61.81,10.53,10.53,0,0,0,2.82-.57,25.38,25.38,0,0,1,2.82-.72,67.92,67.92,0,0,1-5.8,3.86L290,109.8a8.21,8.21,0,0,0-3.87,2.74h.33a.9.9,0,0,0,.64.16q1.44-.17,9.5-5l1.13.32-21.9,11.75.32.33q3.54-.33,14.33-2.58a3.46,3.46,0,0,0,1,.64l-25.93,10.15a6.48,6.48,0,0,0,3.23.48q3.69-.33,22.7-7.89a32.46,32.46,0,0,0,5.63-3.06,2.26,2.26,0,0,0,.48,1.13,1.62,1.62,0,0,1,.81-.32q-10.79,4.83-29,11.59Q259,134.1,250.51,137c-.54.43-.75.81-.64,1.13l-.65-.65a53.84,53.84,0,0,0-2.09,7.73,1.25,1.25,0,0,0,1.13-.32,5.39,5.39,0,0,0-1.13,1.13q-7.08,27.53-13.68,42.34A32.92,32.92,0,0,1,229.1,193a4.55,4.55,0,0,1-.89-.24,4,4,0,0,0-1.2-.24,8.26,8.26,0,0,0-2.1,1.85,8.72,8.72,0,0,1-2.09,1.85c-2.9,1.71-4.94,2.63-6.12,2.74l-1.77.32a1.14,1.14,0,0,1,.16-.48l-.16-.81c-.11-.86-.91-1.56-2.41-2.09l-1.13.64a5,5,0,0,0-.48-2.9,15.74,15.74,0,0,1-1.77-4l.48-1.29q-.33-5.48-.65-16.74c0,.53.38.8,1.13.8l.32-1.29q-.64-5.47,2.74-11.59,1.46-2.25,5.15-9c1.07-1.82,3.87-5,8.37-9.49.22-.11.43-.65.65-1.61-.22-.33-.43-.49-.65-.49a1.46,1.46,0,0,0,1-.8.71.71,0,0,0-.8-.16,14.27,14.27,0,0,0-4.35,2.25,2.71,2.71,0,0,0,1.13.16,28.49,28.49,0,0,0-7.89,4.67q-13.05,10.14-14.82,23.67-1.44,10.14-1.28,11.75a10.43,10.43,0,0,0,1.12,3.38,5.53,5.53,0,0,1-.32,3.06,3,3,0,0,1-1.93-.64,23.27,23.27,0,0,1-1.93-3.71L194.32,170q-1.12-7.1,3.55-18.36A52.76,52.76,0,0,1,206.24,137a39.07,39.07,0,0,1,4-4.51c1.07-.86,2.63-2,4.67-3.38a6.8,6.8,0,0,1,3.22-4.83q4.18-1.77,11.92-5.47a4.18,4.18,0,0,1,0-1.69c.1-.81.16-1.32.16-1.53a1.1,1.1,0,0,0-.33-.81,33.3,33.3,0,0,1-6.6,2.74c-.86,1.07-1.5,1.67-1.93,1.77a1.85,1.85,0,0,1-.72-.16.85.85,0,0,0-.73,0q-.81,0-8,4,3.06-1.6,8.86-5.15a11.22,11.22,0,0,1,1.93-1.77l7.24-1.77q.16-.48.81-3.06l-.64-2.25a1.53,1.53,0,0,0-.49,1.45l-.64-.49a1.31,1.31,0,0,0-.32,1c-.22,0-.54-.21-1-.64-.22,0-.43.16-.64.48.1.64.53.91,1.28.8q-2.73.64-8,1.61a22.71,22.71,0,0,0,2.58.65c-5.9-.86-9.34-1.23-10.3-1.13l-2,.56q-1.37.4-2,.57c-2.15.21-4.8-.49-8-2.09a20.42,20.42,0,0,1-7-5.32,24.88,24.88,0,0,0-2.74-5.15.79.79,0,0,0,.81.16,2.15,2.15,0,0,0,.48-1.29,13.18,13.18,0,0,0-1.53-3.38,8.7,8.7,0,0,1-1.37-3.38l-.48-3.86q3.54-9.18,5-14-2.9,15.61-2.9,15.13a3.49,3.49,0,0,0,.65,1.94q.15-2.1,3.7-13.69a21.56,21.56,0,0,1,4.83-7.4Q200.6,70,210.42,57a44.08,44.08,0,0,1-3.22,4.67q-1.77,3.39-1.28,5A166.83,166.83,0,0,1,217.35,51.2a84.38,84.38,0,0,0-7.89,11.27.5.5,0,0,0,.48.32l10.79-12.72a12.53,12.53,0,0,1-2.1,3.38l1.29-.16a3.54,3.54,0,0,0-1.61,2.42,21.15,21.15,0,0,1,12.24-6.28,12.34,12.34,0,0,1,5.79.64l.81-2.09a11.6,11.6,0,0,1-.16,2.09,49.68,49.68,0,0,1,8.69,3.54L247,53l-.16-1.61a5.54,5.54,0,0,0-1.29-.81q-.48,0-.48.81c-.32-.65-2-1.07-5-1.29l2.09-.16q5.31-.64,8.37,4.19a.94.94,0,0,1-.64.32c-.22,0-.43-.16-.65-.48l-.8,1.12A7.88,7.88,0,0,0,251,56.83a11.9,11.9,0,0,1,.64-1.45c.21,1.51.1,2.47-.32,2.9,0,.54.59,1,1.77,1.45a3.29,3.29,0,0,1,.64-2.25c.32.43.86,1.12,1.61,2.09l1-.16a39.57,39.57,0,0,1,2.09-5.31c.65.75.86,1.39.65,1.93l-.65,1.29.48,4.18a3.32,3.32,0,0,0,1,.65,1.57,1.57,0,0,0,.89-.49c.16-.21.29-.32.4-.32a12.63,12.63,0,0,1,1.45,2.26l.16,1.77a9.47,9.47,0,0,0,.32,1.61q.48,5.14-5.63,20.93a9.11,9.11,0,0,0-.33,4.83q-.48,3.54-1.61,11.11a7.48,7.48,0,0,0,4,.48,44.22,44.22,0,0,1,4.35-1.61,7.51,7.51,0,0,1-.09,1c-.05.43-.08.7-.08.81a2.81,2.81,0,0,0,1.13.48,3.72,3.72,0,0,0,1.45-.48,3.72,3.72,0,0,1,1.45-.48h2.9a12.94,12.94,0,0,0,4.83-1.61,4.11,4.11,0,0,0-2.26,1.77,2.41,2.41,0,0,0,1.94.48q1.13,0,3.54-2.25c.1.53.53.75,1.29.64a14.41,14.41,0,0,0,3.21-1.05,16,16,0,0,1,3.06-1,3.32,3.32,0,0,1,.73.08,4.05,4.05,0,0,0,.72.08,15.46,15.46,0,0,0,10-5,15.58,15.58,0,0,1,1.77,1.45,8.79,8.79,0,0,0,1.77-1.13ZM201.41,158.1l-.65-.16-.48,1.13h.81Zm21.25-24a94.36,94.36,0,0,0-8.86,5.48,31.93,31.93,0,0,0-7.56,9q-1,1.13-2.74,3.38a32.67,32.67,0,0,0-1.77,5.16q3.06-5,4.51-7.09a33.34,33.34,0,0,1,5.31-6.6,29.66,29.66,0,0,0,4.35-3.7,14.08,14.08,0,0,1,3.62-3C221.29,135.64,222.34,134.76,222.66,134.11Zm-15.78-6.92-2.57,2.9-.49-.65,2.74-2.57ZM245.2,55.06q-.16-1.94-3.38-2.73c-2.79-.65-4.46-1.18-5-1.62-.32,2.15-.92,5.16-1.77,9q.15-1.12.8-8.85l-2.74.32q-9,1-16.9,15.13c-.64,1.18-1.4,2.58-2.25,4.19q-7.89,17.22-7.41,21.89a2.33,2.33,0,0,0,.64,1.13l.65.65a13.44,13.44,0,0,1,1.45-3.87l.8.64a1.62,1.62,0,0,0-1.29,1.29v1.94c1.29,1.07,2.2,1.55,2.74,1.44h1.13a20.17,20.17,0,0,1,1.29-4.5.62.62,0,0,1,.64-.49,1.09,1.09,0,0,1,.8.32L214,95.8l5.79-.65q3.54-.32,11.75-5.63a1.69,1.69,0,0,1,.33-1,1.11,1.11,0,0,1,.32.8,3.29,3.29,0,0,0,.64-2.89,3.35,3.35,0,0,1-.64,1.29l-.65-.65Q232.16,84,234.73,70a.63.63,0,0,1-.48.64q-.65-2.25.48-10.47l.65.49a32.82,32.82,0,0,0-.32,9q.15-11.1,3.7-14.33c.43.86.91,1.83,1.45,2.9.53-.75,1.34-1.82,2.41-3.22a5.85,5.85,0,0,1,.81,2.9C244.72,56.46,245.31,55.49,245.2,55.06ZM208,96.6l-.65-.16-.32,1,.65.17Zm3.54,27.05L207.36,127l-.32-.64,4.19-3.23Zm-1.61-59.89a5.87,5.87,0,0,0-.64-.81c-.54,1.08-.92,1.77-1.13,2.09C208.6,65,209.19,64.62,209.94,63.76ZM213,98.85l-.16-1.12a18.48,18.48,0,0,0-4.67-1,4.82,4.82,0,0,1,.8,2.58Zm-4,61.34c.22,1.94.06,2.9-.48,2.9-.11.11-.22.06-.32-.16l.64-.48C208.81,162.13,208.87,161.37,209,160.19Zm4.19-7.88-1.61,2.25-.48-.16,1.45-2.42Zm16.74-6.61h-.64a8.42,8.42,0,0,0-3.22,2.58c-.22,1.07-.54,2.47-1,4.19q-.8,2.09-2.09,6.28a.54.54,0,0,1-.16-.65q.48-1.93,2.41-10-6.27,3.06-11.75,14.33a11.84,11.84,0,0,0-.8,4.83,12.75,12.75,0,0,0-.49,3.54,4.74,4.74,0,0,0,.49,1.61c.32.75.53,1.29.64,1.61q1-3.71,3.22-9.66.17.48-1.29,6.44a11.27,11.27,0,0,0-1,3.22,45.56,45.56,0,0,0,0,9.34,18.82,18.82,0,0,0,.8,4.18l1.61-.16a2.75,2.75,0,0,0,2.42-1.44,36.53,36.53,0,0,1,1.12-3.71c-.53,0-.8-.21-.8-.64.32-.22.54-.27.64-.16a2,2,0,0,0,1,.48,1.91,1.91,0,0,1-.48-.8l1-1.29a5.27,5.27,0,0,0,.49-2.9,1.56,1.56,0,0,1-.65-.16c.65-.54,1.82-3.06,3.54-7.57a22.89,22.89,0,0,0,2.26-9.66l-1.13.16Q227.5,154.88,229.9,145.7Zm1.45-51.84-.16-1.45-1,.81a11.81,11.81,0,0,0-3.71,1.29,1.73,1.73,0,0,1-.64,1.12,46.41,46.41,0,0,1-7.41,1.61c-1.61.11-3,.16-4.18.16a4.38,4.38,0,0,0-.65,2.26l5-.48q3.39-.33,9.34-3.06A22.37,22.37,0,0,1,231.35,93.86Zm-8.21,109.48-1.29,1.13a1.39,1.39,0,0,0,.49.81,53.67,53.67,0,0,0-7.41,2.73q4.83-4.66,7.09-5ZM217.67,56.51l-.48-.48-1.13,1.45.48.48Zm4,148.28-.64-.48-.32.32.48.65Zm.49-42.34-.33,1.13-.64-.33.32-1Zm.16-1.61L222,162l-.49-.16.32-1Zm7.56-17.55c.11-.22-.05-.59-.48-1.13a11.23,11.23,0,0,0-2.9,3.06C228.46,144.47,229.58,143.83,229.9,143.29Zm1.94,60.86a2.84,2.84,0,0,1-1.61.8c-.33,0-.86-.43-1.61-1.29a1.08,1.08,0,0,1,.48.25,1.44,1.44,0,0,0,.88.24h1.86ZM248.9,53.94a16.57,16.57,0,0,0-.8-2.1,5.56,5.56,0,0,0-.16,2.58A1.89,1.89,0,0,1,248.9,53.94Zm14,71.48-.16-.65-1.13.17.16.64Zm2.74-53.61-1.13,1.77-.64-.33L265,71.48Zm-.33-9.18-1.12.64v-.48l.8-.64Z"/></g></g></svg>