<svg xmlns="http://www.w3.org/2000/svg" viewBox="0 0 26 22"><defs><style>.cls-1{fill:#fff;}</style></defs><title>gh</title><g id="Слой_2" data-name="Слой 2"><g id="Layer_1" data-name="Layer 1"><path class="cls-1" d="M25.05,17.42C23,21.59,17.31,22,13.25,22S3.11,21.64,1,17.42a11.48,11.48,0,0,1-1-5.17A9.27,9.27,0,0,1,2.12,6.06,8.58,8.58,0,0,1,1.7,3.41,7.63,7.63,0,0,1,2.5,0C5,0,6.55,1.08,8.42,2.55A20.63,20.63,0,0,1,13.25,2a18.84,18.84,0,0,1,4.37.5C19.48,1.05,21.06,0,23.5,0a7.63,7.63,0,0,1,.8,3.41A8,8,0,0,1,23.87,6,9.39,9.39,0,0,1,26,12.25,11.77,11.77,0,0,1,25.05,17.42ZM18.5,10.5a22.56,22.56,0,0,0-3.05.33A16.62,16.62,0,0,1,13,11a16.62,16.62,0,0,1-2.45-.17A22.39,22.39,0,0,0,7.5,10.5c-2.55,0-4,2.11-4,4.5,0,4.78,4.37,5.52,8.19,5.52h2.62c3.81,0,8.19-.74,8.19-5.52C22.5,12.61,21.05,10.5,18.5,10.5ZM8,18c-1.41,0-2-1.86-2-3s.59-3,2-3,2,1.86,2,3S9.41,18,8,18Zm10,0c-1.41,0-2-1.86-2-3s.59-3,2-3,2,1.86,2,3S19.41,18,18,18Z"/></g></g></svg>