<svg xmlns="http://www.w3.org/2000/svg" viewBox="0 0 22.01 17.3"><defs><style>.cls-1{fill:#00bfa5;}</style></defs><title>mail</title><g id="Слой_2" data-name="Слой 2"><g id="Layer_1" data-name="Layer 1"><path class="cls-1" d="M19.91,5.33C18,6.66,16.07,8,14.16,9.32,13.36,9.88,12,11,11,11h0c-1,0-2.34-1.13-3.14-1.69C6,8,4,6.66,2.11,5.33,1.24,4.74,0,3.35,0,2.24A2,2,0,0,1,2,0H20.05a2,2,0,0,1,2,2A4.44,4.44,0,0,1,19.91,5.33Zm2.1,10a2,2,0,0,1-2,2H2a2,2,0,0,1-2-2V5.58A7.45,7.45,0,0,0,1.24,6.65c2,1.38,4.1,2.77,6.11,4.23,1,.76,2.3,1.7,3.64,1.7h0c1.34,0,2.61-.94,3.65-1.7,2-1.45,4.06-2.85,6.11-4.23A7.38,7.38,0,0,0,22,5.58Z"/></g></g></svg>