<svg xmlns="http://www.w3.org/2000/svg" viewBox="0 0 18.86 18.86"><defs><style>.cls-1{fill:#00bfa5;}</style></defs><title>phone</title><g id="Слой_2" data-name="Слой 2"><g id="Layer_1" data-name="Layer 1"><path class="cls-1" d="M18.45,16.76a3.46,3.46,0,0,1-1.64,1.42,5.09,5.09,0,0,1-2.49.68,10.48,10.48,0,0,1-3.51-.92,12.88,12.88,0,0,1-2.34-1.11A22.63,22.63,0,0,1,2,10.4,12.66,12.66,0,0,1,.92,8.05,10.42,10.42,0,0,1,0,4.54,5.09,5.09,0,0,1,.68,2.05,3.59,3.59,0,0,1,2.1.42,5.77,5.77,0,0,1,4,0a.7.7,0,0,1,.28,0c.28.09.57.75.71,1,.43.76.84,1.54,1.28,2.29.22.35.62.78.62,1.19,0,.82-2.43,2-2.43,2.73A2.84,2.84,0,0,0,5,8.43a13.34,13.34,0,0,0,5.48,5.48,3,3,0,0,0,1.15.52c.72,0,1.91-2.43,2.73-2.43.42,0,.85.41,1.19.62.75.44,1.53.86,2.3,1.29.26.13.92.42,1,.71a.66.66,0,0,1,0,.28A6,6,0,0,1,18.45,16.76Z"/></g></g></svg>