<svg xmlns="http://www.w3.org/2000/svg" viewBox="0 0 1175.5 313.96"><defs><style>.cls-1{fill:#fefefe;}</style></defs><title>portfolio_title</title><g id="Слой_2" data-name="Слой 2"><g id="Layer_1" data-name="Layer 1"><path class="cls-1" d="M188.27,83.15q0-2.34-5.7,24.45c-.22.23-.78.9-1.67,2l.33.67a8.31,8.31,0,0,0-1.34,3.35,7.53,7.53,0,0,1-2.68,2.68l-9.38,14.07c-2.46,3.58-3.68,6-3.68,7.37q-3.69,3-11.06,8.71Q133,158.52,115.24,167.9q-10,5-16.75,4a.78.78,0,0,1-.84-.5c-.11-.34-.39-.5-.84-.5-.89-.22-2.57,0-5,.67a23.23,23.23,0,0,1-5.36,1c.22-.89.34-.78.34.34l-1,11Q84.41,195,82.07,199.56t-8,22.95a8.5,8.5,0,0,1,0,3.35q-8,18.76-7.7,17.42-.67,6.36.67,9.38c0,.89.22,1.45.67,1.67a1.08,1.08,0,0,0-.67,1q-1,1.68.33,4.69a2,2,0,0,0-.33,1.34c.44.89,1,2.12,1.67,3.68a3.25,3.25,0,0,1-.33,2.34A7.89,7.89,0,0,0,71,269.07a1.31,1.31,0,0,0,1-1.34q0-2.34-2-12.06a13,13,0,0,1-1.35-2c0-.44.56-.89,1.68-1.34l-.33-.67-1-1a1,1,0,0,0-.34.67q.67-7,5.7-18.43,0-2.34-2,14.74-1,12.41,2,20.77.66-.67,3.35-4a45.63,45.63,0,0,1,.67,5l-1,10.39a9.79,9.79,0,0,1-4.69.67,3.73,3.73,0,0,1-1.67-.33,12.21,12.21,0,0,1-2.68-5l1-5-1.67-3.35a9.88,9.88,0,0,0-.67,2l-1,.34c-1.13.45-1.13.78,0,1-.46,0-.79-.33-1-1-1.12.89-1.68,1.68-1.68,2.35-.22,1.11.06,3.46.84,7s1.39,5.36,1.85,5.36.66-.11.66-.34.22-.22.67,0q2.34,0,1.68,5.7a49.86,49.86,0,0,0,.5,5.53,19.06,19.06,0,0,1,.17,5.52c-.23,1.34-1.79,2.24-4.69,2.68-1.79-.22-2.68-1.34-2.68-3.34A135.4,135.4,0,0,0,62,281.8c-.23,0-.68-.45-1.35-1.34-.67,1.11-1.79,2.79-3.35,5,.45-.22.67-.89.67-2l-1.34-1.33a28.25,28.25,0,0,1-2.67-3.35,3.32,3.32,0,0,0-.67,1c.21.22.11,1.11-.34,2.68v-1c-.45,2-2,4.8-4.69,8.37l-2.35-.33c-.45,0-.66-.45-.66-1.34a26.62,26.62,0,0,1,1.67-2.69,7,7,0,0,0,1.34-2.67,12.51,12.51,0,0,0-.34-5c-1.34.89-1.9,1.34-1.67,1.34-.45,0-.67-.11-.67-.33h-.33a7.14,7.14,0,0,0-1,2h-2c-.67-.23-2.35-1.91-5-5a.77.77,0,0,0-.84.5c-.12.34-.4.39-.84.17-2.68-.22-4.25-1.46-4.69-3.68a57.9,57.9,0,0,1-.34-8.71c-.22-3.58-1.12-5.92-2.68-7l5.36-43.21a16.44,16.44,0,0,1,1.68,1l.33-.33.34-1.34-2.68-4h1.34a23,23,0,0,1,.67-4.69,4.75,4.75,0,0,0,.33,2q1.68-1.34,3-10.72c-.23.22-.79.22-1.67,0l.33-3.69h2c1.34.23,2.23-1.45,2.68-5l.34-2.68c-.23,0-.57-.22-1-.67-.23,0-.34.11-.34.33v.34h-1c-.45,0-.67.16-.67.5s-.23.5-.67.5c-.23,0-.28-.11-.17-.33s-.06-.34-.5-.34l-1.34-.33A5.65,5.65,0,0,0,34.5,184a9.38,9.38,0,0,0-4.35.34q-13.74-.67-15.41-2,2-1,12.39-1.34a25.38,25.38,0,0,1,1.35-3.69c0-.22.83-.72,2.51-1.51s2.51-1.61,2.51-2.51c1.34.9,2.45,1.12,3.35.67-.45-.89-1.79-1.45-4-1.67-1.12-.22-1.68.22-1.68,1.34.22.45.22.78,0,1l-3-.33a2.54,2.54,0,0,1,.34-1v-1a2,2,0,0,0-1.68-1c-.45,0-.79.34-1,1q-.67-2.34-2-6c.89-.67,2.35-1.9,4.36-3.69a2,2,0,0,0-1.34-.33,3,3,0,0,0-1.34.33,2.93,2.93,0,0,1-1.34.34L6,164.89l-1,.67a3.2,3.2,0,0,1-1.67.67l-2.68-.34L0,165.22l.33-2q10.05-4.35,26.47-5l.33-.67v-1a8.39,8.39,0,0,0-3-.67,5.52,5.52,0,0,0-1.51.5c-.78.34-1.29.4-1.51.17H13.4l-1-1.67q1.35-2.68,9.55-4.36t9.55-3q7-1,14.74-2c.67-.67,1-1.12,1-1.34,0-.45-.33-.67-1-.67q1-.67,2.68-4.69a12,12,0,0,0,0,4c.44.22.89,0,1.34-.67a26.65,26.65,0,0,0,2-7.37,6.48,6.48,0,0,0,0-3,5.15,5.15,0,0,0-2.35,3.69c-.22,0-.66-.34-1.34-1q2.34-3.35,3.35-12.06A11.46,11.46,0,0,1,53.1,118c.78-1.79,1.28-2.9,1.5-3.35a18.57,18.57,0,0,0-2-2.68,4,4,0,0,0,2-2.68q2.68-8,4.69-14.74l1.34-3L61,89.18a11.66,11.66,0,0,0-2.18.33,11,11,0,0,1-2.18.34l-7.36-.67c-1.13-.67-1.35-1.9-.68-3.69.22-.67.56-1.67,1-3-.45-.89-.79-1.34-1-1.34a12.47,12.47,0,0,0-3.51.67q-2.19.68-2.85.33a18.59,18.59,0,0,1-7-2.34q-4.35-2.34-4-5.36-.33,1.34,4.69-6.7a13.88,13.88,0,0,0,2.68-.34c.22-.44-.22-1.11-1.33-2l-2,1.68V65.73h.67a.6.6,0,0,0,.68-.67l-1.35-1.68a6,6,0,0,1-.67-4c1.56,0,2.35.12,2.35.34-.22-.45.11-.67,1-.67a1.56,1.56,0,0,0,1.68-1c-.67.23-2.24-.22-4.69-1.34a18.16,18.16,0,0,1-5,3q-2.68-2-1.33-1.68,1.66,0-6.37,1c-.9-1.34-1.34-1.9-1.34-1.68q4.68-4.68,8-4.35-1-.33,4.35,1l2,2.35A11.21,11.21,0,0,1,36.85,55l.67-5.7a4.38,4.38,0,0,0-1.68-.67h2c.22-.22.22-.67,0-1.34.67-.44,1-.89,1-1.34s-.34-.89-1-1.34a5.59,5.59,0,0,1,1.68-.33c-.67,0,.44.78,3.35,2.34,0,.23-.45.67-1.34,1.34a2.82,2.82,0,0,0,2.34,1.68,2.38,2.38,0,0,0,.34,2,7.48,7.48,0,0,0,2.68-2.35l.67-6,4,.67a5.77,5.77,0,0,1,1.68.34l.67.33c.66-.22.88-.78.66-1.67L57,40.27c.22-.67.11-1-.34-1a10.54,10.54,0,0,0,1-4A34.48,34.48,0,0,0,67,31.56q4.35-3.35,13.4-5.7,0-1-3.69-2.34a8.25,8.25,0,0,0,3.35,0,4.18,4.18,0,0,0,1.68-1,10.18,10.18,0,0,1,3.68,1q-1.68-.68-5,1.67l.67.67h1a5.86,5.86,0,0,0,4.7-1.67l.33-1.34q1.66,2.34,2,2.34a11.47,11.47,0,0,0,4,0A19.31,19.31,0,0,1,97.32,25a16.31,16.31,0,0,0,4.35-.33,26.22,26.22,0,0,1,4.19-.5,3.23,3.23,0,0,1,1.67.67,3.23,3.23,0,0,0,1.68.67,8.25,8.25,0,0,0,3.35,0l3.69.67h5.19a29.5,29.5,0,0,1,5.19.33q4.35.34,15.41,3.52t12.73,5.19q-1.68-1-4.36-2.34c-.89.67-1.34,1.23-1.34,1.67,4.7,1.57,7.37,2.68,8,3.35a28.76,28.76,0,0,1,8.71,8l5.7-2.34c1.34.22,3.23,1.56,5.69,4q8.37,8.72,9.72,23.11Q188.27,82.15,188.27,83.15ZM17.08,148.81l-.33-.67-1,1.34.66.33Zm4.69-1c-1.56.23-2.46.34-2.68.34a2.13,2.13,0,0,0,1,1.34c1.34,0,2-.22,2-.67C22.33,148.59,22.22,148.25,21.77,147.8Zm6-134.67c-.22,2-1.34,2.91-3.35,2.68a5.48,5.48,0,0,1-3.68-2V11.46l4.36-1.68C27.13,10,28,11.12,27.8,13.13Zm1.68,33.5c-2.46,3.58-4.14,5.25-5,5-2.46-.22-3.57-1.34-3.35-3.35,0-.67.67-1.45,2-2.35s2.35-1.22,3-1a3,3,0,0,1,1.67.83A2.94,2.94,0,0,0,29.48,46.63Zm1,180.9h-1l-1,2.68h1Zm.67-82.74H29.81v-.67h1.34Zm3-.67a4.57,4.57,0,0,0-1,.16,4.17,4.17,0,0,1-1,.17,9.4,9.4,0,0,0,1.34,1A3.77,3.77,0,0,0,34.17,144.12Zm-1-81.74H32.5V60.7h.66ZM37.85,43l-1.67,1.34-3-.34a13.4,13.4,0,0,1,3.36-2C35.84,42.61,36.29,43,37.85,43Zm-1,154.1q-.33-1.34-1.34,4c-.45-1.56-.9-2.12-1.34-1.68A32.08,32.08,0,0,1,36.85,197.05Zm-2,21.77h-.67v-2h.67Zm3-74.37-2-.33v-.67l2,.33ZM51.25,184a20.28,20.28,0,0,1-.67,4.19c-.45,1.9-.78,3.3-1,4.19a10.92,10.92,0,0,1,.33-6c0-.22-.22-.45-.66-.67q-2.36,12.39-2,14.4a1.06,1.06,0,0,0,.67-1,7.27,7.27,0,0,1-1.67,3.68.89.89,0,0,0,1,1q-1.33,6.7-4,18.09c-.22,1.79-.67,4.69-1.33,8.71a6.06,6.06,0,0,0-.68-1.68v3.69a12.3,12.3,0,0,1-1,6H38.52a3.51,3.51,0,0,0-.67-3.69,1.09,1.09,0,0,1,1,.67,14,14,0,0,0,.67-3.35l-1.68,1,2-4a10.5,10.5,0,0,0-1-4,3.23,3.23,0,0,1,.67-1.68,20.18,20.18,0,0,0,.33-4.35c.22,0,.11-.22-.33-.67a8.83,8.83,0,0,1-1.34,2.34l1.67-15.41c.22,0,.45-.22.67-.67q0-1.67.34-5.69a20,20,0,0,0,1.67-2c.22-.89,0-1.34-.66-1.34l1-9.05c1.11-.22,2-1.11,2.68-2.68C48.91,184.43,50.8,184.43,51.25,184ZM39.53,242.61l.33-3.35h-1l-.34,3.35Zm.33,2-.67-.34-.67,1.34.34.34Zm5-176.88.34-2.35a20.31,20.31,0,0,1-4,1.34v2a14.57,14.57,0,0,0,2.68,1.34A4.57,4.57,0,0,0,44.89,67.74ZM43.21,220.16h-1l-1,2,1,.34Zm0-181.57-.33,2-1-.33.66-1.68Zm0,179.23h-1l.33-1.34h1ZM55.61,33.9c-1.34.9-3.58,2.35-6.7,4.36v2a5.6,5.6,0,0,1,1.67-.34.59.59,0,0,1,.67.67,6.56,6.56,0,0,1-3-.67,15.5,15.5,0,0,0-2,3.35c-2-.89-2.8-2.12-2.35-3.68l.34-4.36c0,.45.33.79,1,1q1,0,4.68-2c-.22,0-.45.22-.66.67s0,.67.66.67a25,25,0,0,0,4.36-2.68C54.49,32.9,54.94,33.23,55.61,33.9Zm-9,38.19a4.2,4.2,0,0,0-.33-5c-.9,0-1.34.78-1.34,2.34a1.64,1.64,0,0,0,.34,1.68,3.5,3.5,0,0,1,.66,1.34,9.26,9.26,0,0,1,.67-4A5.1,5.1,0,0,1,46.56,72.09ZM46.9,62l.33-4.35a4.9,4.9,0,0,0-2.34,3v1.68a2.51,2.51,0,0,0,1-.34C46.34,61.82,46.67,61.82,46.9,62ZM46.23,179l-.67-.67-.33.33.33.67ZM62.64,10.45q0,2.36-4,3.52a17.26,17.26,0,0,1-6.71.84q-6.7-.68-6-8c.45-3.57,1.9-5.14,4.36-4.69.44,0,.67.11.67.33h1c.22,0,.84-.44,1.85-1.34A3.58,3.58,0,0,1,57,.07a5.38,5.38,0,0,1,4.69,3.68,4.58,4.58,0,0,0-.34,2Q62.64,11.46,62.64,10.45ZM49.25,184v-1l-2.69-.34v1Zm-1-48.91.33-1.34h-1l-.34,1.34Zm1.34,2.68-1-.33.34-1.34,1,.33ZM49.25,194h-.68v-2h.68Zm4-63v-3a25.53,25.53,0,0,0-2,2.68Zm1-89.11c-.45.23-.67.79-.67,1.68-1.34-1.56-2.13-2.23-2.35-2Zm8.37,79.73a5,5,0,0,0-1.67,1l.67-6.37a26,26,0,0,1-2.35,5.36V120q-1,4.69-4,17.08-.68,1.68-2.34,7.37a4.24,4.24,0,0,1,1.67-.67v-1a2.6,2.6,0,0,1-.33-1l2.68.34,1.34-1,.34-3a2.55,2.55,0,0,0-1,.33l-.67.67c-.67-.67-.9-1.22-.67-1.67l-.34.33c0,.23.22.34.67.34s.62-.17.51-.51.05-.5.5-.5l1.67.67.67-8.37A18.77,18.77,0,0,1,62.64,121.67Zm-7.37,0,.34-.67c-1.12-.44-1.67-.55-1.67-.33C53.94,121.34,54.38,121.67,55.27,121.67Zm1-4L54.6,119v-.67L55.94,117ZM57,9.78l.33-1-2.34-1v1Zm3,270.68a11.21,11.21,0,0,0-2.34-4l.33-3a2.62,2.62,0,0,0,2.35,1,35.37,35.37,0,0,0-.34,4.36Zm0-176.21c0-1.11-.22-1.67-.67-1.67a3.49,3.49,0,0,0-1.34.67A2.91,2.91,0,0,0,60,104.25Zm1.34,34.17-.67,2.35H60l.34-2.35Zm5.36,126.3a.59.59,0,0,1,.67.67,8.5,8.5,0,0,1-1,2c.22-.89.22-1.33,0-1.33a2.6,2.6,0,0,0-1,.33C65.54,265.28,66,264.72,66.66,264.72Zm12.07-67.67a2,2,0,0,0-1.68-1l.67-6.7q.33-3.68.33-5.69c.45-1.12.56-1.12.34,0q-1.35,1.33-2,6L73,206.09a17.64,17.64,0,0,0-1.68,6,1,1,0,0,1,.67.34c-.45.67-2,6.14-4.69,16.41-.22.45-.45.67-.67.67a10.77,10.77,0,0,0,.67,2.68q1-3,3.69-9l-1,.33-.68-.67c1.56-.44,2.46-1.22,2.68-2.34a3.23,3.23,0,0,0-.67-1.68c-.45,0,.34-.78,2.35-2.34a2.76,2.76,0,0,1-1.68-1c.89-.67,1.34-1.22,1.34-1.67a2.46,2.46,0,0,1-1-.34c1.56-.22,2.34-1.22,2.34-3-.22.22-.56.22-1,0a.3.3,0,0,1-.34-.34,5.15,5.15,0,0,1,.67-2,5.05,5.05,0,0,0,.67-2h2.35l1-7.37-2,1.34c0-.67.45-1.22,1.34-1.67-1.12,0-1.67-.34-1.67-1A4.26,4.26,0,0,1,78.73,197.05Zm-3-174.87-2,.33v-.67l1.68-.33Zm0,181.9-.67-.33-.67,1,.67.67Zm1.67-2.68-1,1.34-.34-.33.67-1.34ZM79.06,182l-.67-.33-.67,1.67.33.34Zm5,1.68,1-10.05-2.34-.34-1.35,1-2.34-.34v2.35a3.12,3.12,0,0,0,2.34-1.68,4,4,0,0,1,.34,2.68,1.08,1.08,0,0,1-.67,1,26,26,0,0,1-2.34,10.38,23.69,23.69,0,0,0,.66,5Q80.07,190,84.08,183.65Zm56-37.86q-1.35,2-8.54,6.37t-8.55,7.7a3,3,0,0,0-2,0q-.34,1.68-3.36,2.68l-5,1.68-18.76,5a3.67,3.67,0,0,0-1.34-2.34q-2.35,2.34-4,2.34a13.12,13.12,0,0,0-4,.34c.67,1.12,1.11,1.56,1.34,1.34l-1.68.33-2-.33v-3.69q.68-.33,23.45-6c.45-.22.45-.67,0-1.34q12.74-2,27.14-11.05a1.08,1.08,0,0,1,.34-1.34,3.47,3.47,0,0,0,1.33-.67,12,12,0,0,0-3.35-1,21.64,21.64,0,0,1-3,1,4.84,4.84,0,0,0,2,.67c-.23,1.34-.9,1.9-2,1.67-.45,0-.62-.11-.5-.33s-.06-.34-.51-.34q-1.33,0-10.38,2.85t-11.73,2.51q3-.66,5.7-1.34a15.37,15.37,0,0,1,5.7-3c1.11-.22,2.45-.45,4-.67q4.33-2.34,14.4-7.37c.67,0,1.11.67,1.34,2a3,3,0,0,1,3.35,0l-2,1.34-4-.34-1,1a13.88,13.88,0,0,0,2.68-.34ZM88.1,158.86l-.33-.67-2,1,.33.67ZM150.41,86.5a32.47,32.47,0,0,1-1.34-6.37q-.67-2.67-8-11.72-1.68,0-6-2.68c.22.45-.45.89-2,1.34.21-.22-.34-.45-1.68-.67-.23-.22-.45.33-.67,1.67a1.06,1.06,0,0,0,1,.67c1.35-.22,3.24,1,5.7,3.69q-1.68-.33-6.37-1.68c-1.34-1.56-2.34-2.34-3-2.34a1,1,0,0,0-.67.33,5.86,5.86,0,0,1,2.34,2.35,8.88,8.88,0,0,1-4.35-1.34,9.21,9.21,0,0,0-3-1.34,21,21,0,0,0-2.68.33l-2.68,1a8.71,8.71,0,0,0-2.34,1.34,47.89,47.89,0,0,0-6.37-.34c-.45.9-2.23,2.24-5.36,4l-1,7.37a123.33,123.33,0,0,1-4,13.4c.22.23.55.23,1,0,.68-.22,1.12-.22,1.34,0-.22.67-.78,2-1.67,4a2.87,2.87,0,0,1-.34-1.34c0,.23-.28.67-.83,1.34a2.91,2.91,0,0,0-.84,1.68l-.34,1,.34.67h.33a1.38,1.38,0,0,1,1-.33c.22,0,.33.33.33,1q-2.69.67-3,4.69c0-.22.11-.33.34-.33v.33q-1.35,4.7-1.35,3a2.65,2.65,0,0,1,1,.33l-1.34.67a229.66,229.66,0,0,0-4,23.45.3.3,0,0,1,.33.34c-.45.22-.45.45,0,.67.67.45,1,.78,1,1l-1.34,1,3.35.33q12.39-5.68,36.51-18.09c.45-.44,1.34-1.45,2.68-3a25.85,25.85,0,0,0-3.68,1.34l-10.39,5c-.67-.22-.89-.33-.67-.33l1.34-1a4,4,0,0,0,1.68.67,4.77,4.77,0,0,0-1-1.67,2.2,2.2,0,0,1,1.68,0c-.89-1.34-1.34-1.9-1.34-1.68q5.68-2.34,17.76-12.06,4.68-4.68,9.71-14.74A32.54,32.54,0,0,1,150.41,86.5Zm-36.85,75.37-.33-.33-1.34-.67q4.35.67-16.75,4.69c-1.12.67-1.68,1.23-1.68,1.67,1.12-.22,2.46-.55,4-1-.67.22-.22.33,1.34.33-.67,0-.22-.33,1.34-1A110.87,110.87,0,0,0,113.56,161.87Zm-18.42-4-.67.34-.67-.67.33-.67Zm9.71-3.35q-6.36,3-10,2.35c4.7-1.79,7.37-2.68,8-2.68Zm-5.69-54.27-1-.33-.33,1.34.33.33Zm17.75,25.46-3.68-.33q-1.35,1.68-7.71,4.69c-1.79,2.23-3.8,3.24-6,3l2,.34,1-1Q109.88,129.38,116.91,125.69ZM102.84,88.51a14.76,14.76,0,0,1-2.68,5.69,12.16,12.16,0,0,1,.67-3.18c.45-1.45.78-2.51,1-3.18Zm18.76,69.34-2.34,1v-.67l2.34-1.34Zm9.05-92.46a17.73,17.73,0,0,1-4.36-1l3.35,2C130.31,66.62,130.65,66.29,130.65,65.39Zm12.06,76.72c.44.22-.56.22-3,0-.45,0-.89-.45-1.34-1.34l-1,1c-.45,0-1.12-.55-2-1.67l3.35-1.34a10.07,10.07,0,0,0,2,.67,10.55,10.55,0,0,1,2,.67Zm-1-68.68L140,72.76v.67l1.34.67Zm33.5,24.12q-1.68,5-5,13.74c0,.89-.79,2.23-2.35,4L165.49,118a16.28,16.28,0,0,1-2,3.35l.33,1.67c-.22,1.79-1.33,3.58-3.35,5.36-.22,0-.67-.33-1.33-1l-1.35-.34a7,7,0,0,1-1.34,1.68,3.42,3.42,0,0,0,.67,1.34,18.82,18.82,0,0,1-2.67,3v-.67a1.4,1.4,0,0,0-1-.33,4,4,0,0,0-3.35,1,5.37,5.37,0,0,0,3,1.34,34.31,34.31,0,0,1-9.71,7.71v-2c.67-.22,1.56-.56,2.68-1l-3-.33a138.63,138.63,0,0,0,15.75-16.42,21.74,21.74,0,0,1,2-3.68l3.35-3.69.33-2.34q2.69-4,7.71-12.4a31.28,31.28,0,0,1,.33-4.35,1.91,1.91,0,0,1,2.35-1.34Z"/><path class="cls-1" d="M323.61,164.22q0,6-5,17.75-2,5.7-5.69,18.09A162.81,162.81,0,0,0,301.5,214.8l1.67-3.35q2-3.67,1.34-4.35a133.43,133.43,0,0,0-7.37,12.06,60.9,60.9,0,0,0-6,6.36q-2,3.69-5.69,10.72A83.49,83.49,0,0,1,266,256.34q-18.44,13.74-24.46,13.73a10.49,10.49,0,0,1-3-.67,11.38,11.38,0,0,0-2.68-.67,34.11,34.11,0,0,0-7.54,1.18,34.67,34.67,0,0,1-7.54,1.17q-10,0-21.44-10.72l-6.7-1.34a8.87,8.87,0,0,0-.33,2.68,29.41,29.41,0,0,0,.33,4q-3.35-4.35-9-11.39-.35-1.67-1.68-6l-2-1.34q-.67-4.35-2-13.4c1.12-1.34,1.68-2.34,1.68-3a63,63,0,0,1-4.36-13.07q1-1,0-18.09a196.47,196.47,0,0,1,12.4-48.24q3.68-10.38,14.4-21.77Q213.39,116,222.44,114q1.34,0,12.73-5.36a80.75,80.75,0,0,0-36.85,29.14c-.23.23,0,.67.67,1.34l1.67-1.34a36.43,36.43,0,0,0-7,11.39l1.34.67q10.38-14.4,33.83-30.48a27.79,27.79,0,0,0-5.69,1.67q21.44-12.72,33.16-12.39c-.22,0-.67.33-1.34,1a4.1,4.1,0,0,0,2.35.67,27.9,27.9,0,0,0,5-.67,28.83,28.83,0,0,1,5-.67c.67,0,2.17.79,4.52,2.35s3.74,2.34,4.19,2.34c.89,0,1.28-.17,1.17-.5s.05-.5.5-.5a9,9,0,0,1,2.85,2.17q1.83,1.85,9.88,10.89,1.33,3,6.7,8l1.34-1.34c-1.56-.67-2.18-1.56-1.84-2.68a2.27,2.27,0,0,0-.84-2.68c3.57,0,6.25.79,8,2.35,1.34-1.56,2-2.57,2-3a21.92,21.92,0,0,0,5.36,7.71q2.34,2.69,7,17.08c0,.9.11,2.35.33,4.36a7.28,7.28,0,0,0,3,2.68A10.81,10.81,0,0,1,323.61,164.22Zm-113.9-35.51-4.36,4.69-.33-1,4-4Zm5.36-3.35-4.36,3.35-.33-1.34,4-3Zm53.26,32.16q-3.34-5-4-7.71-4.35,3-14.07,11.39a12.3,12.3,0,0,1,2.68-5,123.8,123.8,0,0,0-22.44,42.54q-1.35-2-1.68-2-2.34,0-4.52,8t-2.18,11.39q0,6.71,3,17.42,13.4-3.67,25.79-19.76T263,184.65q1.33.67,2-2l1-2.34q-2.69-1-5.7-2.35a14.72,14.72,0,0,0,.34-2.68q0-3.35-10.72-6l8.37-.33a22.17,22.17,0,0,1,4.69,3,17.36,17.36,0,0,1,1-2.34c-1.34,0-2.13-.11-2.35-.34,1.12-1.11,1.56-2,1.34-2.68q-1.34-1-3.68-2.68,5-1.66,6.7-4.35a30.6,30.6,0,0,0-2.68-3,10.09,10.09,0,0,1,2.68.5A9.51,9.51,0,0,0,268.33,157.52Zm-29.81-48.91h-2v-1.34h2Zm14.4.33q-3.69,1-15.07,5h3Q242.87,114.3,252.92,108.94Zm-10-2h-2v-1.34h2Zm14.74,72h-1.67v-1.34h1.67ZM317.24,124H315.9v-3h1.34Z"/><path class="cls-1" d="M317.57,86.83c3.13-1.34,5.58-2.34,7.37-3,.22,2.68.34,4.47.34,5.36q-6.7,2.68-5.7,2.68a5,5,0,0,1-1.67-1Zm8.71,81.74.34-1.34-.34-3.35q3.69-8.7,6.7-9c1.56,0,3,1,4.36,3a11.65,11.65,0,0,0,2,3.69,4.66,4.66,0,0,1,2-.34q3.34,0,3.68,5,.33,9.72-5.36,9.71a.29.29,0,0,1-.33-.33l-.67.33q-1.68,0-4.36,2-8.71-6.36-8.71-7.7A3.23,3.23,0,0,1,326.28,168.57Zm7,72L329.63,253l.67.34,4-12.73Zm128-108.21q-1-4,0-4.69-2.69-9.7-4-14.74-4.69-3.67-6-4a10.27,10.27,0,0,0-1,3.69h-.67q-2.69-4.35-4.35-4l-4,2.34a11,11,0,0,0-1-1.34q-6.71-4-8.71-3.68-2,0-12.06,9.71a3.16,3.16,0,0,1-2.68-1.34,3.27,3.27,0,0,1-.67,2.35l-2,.33c-.45,0-.61-.17-.5-.5s-.06-.5-.5-.5q-1.68,0-3.35,3.68v3a4.81,4.81,0,0,1-.67,2.68c2-2.9,3.46-5,4.35-6.37l.34.67q-12.41,21.78-20.1,33.17a103.44,103.44,0,0,1,0-12.06,1,1,0,0,1-.34-.67,56.26,56.26,0,0,0,0-15.08.54.54,0,0,0-.5.34q-.16.33-.84.33c-.89,0-1.23-1.34-1-4l.67-4q-7.38-8-11.06-6,6.7,3.36,6.37,5.36c1.78.45,2.79,1.9,3,4.36a4.75,4.75,0,0,1-.33,2q-3.36-6.7-7-7.71a2.49,2.49,0,0,0,.34,1,2.62,2.62,0,0,1,.33,1l1-.33q1.67,0,3.68,3.35L385.24,122q-7-7.71-8.37-8a4.18,4.18,0,0,0,.67-2.35,31.38,31.38,0,0,1-10.72,4.69q-3.69,1.68-5.36,2.35a9.49,9.49,0,0,0-.34,2.34,9.18,9.18,0,0,1-3.68,4,44.1,44.1,0,0,0-4.69-1.34c0-.22-.34-.11-1,.34a.59.59,0,0,1,.67.67c-1.12,3.13-1.79,4.91-2,5.36a3.84,3.84,0,0,1,1.51-.67,3.91,3.91,0,0,0,1.51-.67.42.42,0,0,1,0,.67c-2.46,3.13-3.69,5-3.69,5.69a15.73,15.73,0,0,0-4,2.68l1.34-1a7.23,7.23,0,0,1,1.34,1.67,2.2,2.2,0,0,0,0,1.68,15.77,15.77,0,0,1,2-4.36,1.86,1.86,0,0,1-.33,2.35c1.11-.22,1.56.78,1.34,3q2.34,10.4,2.68,11.73.33,2-1.34,9.38c.22-.22.67.22,1.34,1.34q-2.68,14.74-3.69,19.76-4.35,23.46-6.36,29.48-3.69,10.4-3.69,16.42a6.85,6.85,0,0,1-.5,1.67,6.63,6.63,0,0,0-.5,2c0,.9.22,1.34.67,1.34l9.38-29.14-9,34.84q2.34-8,3.69-11.39,0,.68-3.69,14.4c0-.44.45-.78,1.34-1l-4,10.05a11.47,11.47,0,0,1,.84-5.36q1.17-3.34.84-4-2.36,8.37-2.68,9.71a1,1,0,0,1,.33-.67q.33,2-4,16.41l-.67-1c.22,3.57-.11,5.91-1,7,1.11-1.79,2-3.13,2.68-4a5.63,5.63,0,0,1,.33,1.35q-.33-2.69,2-7l.67,1a2.54,2.54,0,0,1,.34-1,10.39,10.39,0,0,1-.5,4.69,15.18,15.18,0,0,0-.84,3.69,53.41,53.41,0,0,1,2-5c.67.67,1,1.12,1,1.34a20.28,20.28,0,0,0-1.67,6.37l4.35-8.72q20.43-53.93,20.44-54.26,6.36-20.43,10.72-38.19c1.56,1.56,2.34,2.12,2.34,1.67q-11.73,44.22-12.06,45.23-8,30.15-17.42,48.23c.67-.44,1-.33,1,.34v2a22.83,22.83,0,0,1,3.68-7.37c.45.23.56.45.34.67q-2.36,7-4,8.71-4.7,9.38-6,14.74,2-4,3-5.69.33,0,0,.66c0,.23.22.34.67.34q.67-.33,6-12.06,8.37-18.09,8.71-18.76a2,2,0,0,1,.34,1.34q.33,2.35-7.71,19.77c1.34-1.79,2.57-3.35,3.69-4.7.22-.67.44-.89.67-.67.67-.44,1.22-.44,1.67,0a93.18,93.18,0,0,0-4,12.07,140.55,140.55,0,0,0,8-17.09l-1,1q0-1,2-5.36c.44.45.67.78.67,1a30.87,30.87,0,0,1,1.67-7.7c.67.67.78,1.23.34,1.67q7.69-14.73,7.7-22.11,3.35-5.35,3.35-8a2,2,0,0,0-1-1.67,20.61,20.61,0,0,0,1.67-1.34c.22-2,.67-3.24,1.34-3.69l-.33-2.34a3,3,0,0,1,.33-3l1,.67q1.33-3.67,2-5.36a5.87,5.87,0,0,1-2.35,2q0-4,2-5a3.58,3.58,0,0,1,.67,2q6.36-23.12,9.72-25.46l1,1a3.31,3.31,0,0,1,2.35-.67,16.61,16.61,0,0,1,1.67-5.36c.45.23.56.45.34.67a29.46,29.46,0,0,1-2,7c-.45-.45-.56-.67-.34-.67a2.9,2.9,0,0,1,1,2,13,13,0,0,1-1.17,3.85q-1.18,2.85-.51,4.19c2.23-4.47,3.57-6.92,4-7.37l.67.67q-.33,4-.33,6,3-6.36,4.69-8l.67.67a10.61,10.61,0,0,0-.34,4.69,32.47,32.47,0,0,0,3.35-5c1.12,1.57,2.23,2.35,3.35,2.35a16.37,16.37,0,0,0,1.68-3.69c.44.45.55,1.9.33,4.36q5-9.72,6-11.39a4.09,4.09,0,0,1,.67,1.67q4.35-7.69,5-9a11.55,11.55,0,0,1,.33,3.68l1-1a1.9,1.9,0,0,0,1.34.67q.66,0,6.36-9.38t6.37-9.38h2l.67-2.68c0-1.79.55-2.68,1.67-2.68a14.55,14.55,0,0,1,4,1.17,14.55,14.55,0,0,0,4,1.17c.45,0,1-.44,1.68-1.34q-.35-2,.33-2.34,2,2.69,2,4.35a27.2,27.2,0,0,1,1-6,27.7,27.7,0,0,1,1.34,3.69l-1,1.34h2.68q-.33-7,.34-8.71,2-3.69,2.34-4.36A35,35,0,0,1,461.29,132.39Zm-129,146.06-.67,2,.67.34.67-2.35Zm3.35-5.36-.67,1.68h.67l.67-1.34Zm3.69-6-.67-.34,3.68-12.39H343Zm1.34,24.12-1.34,2.68,1,.34,1-2.68Zm.67-174.2q3.67-3,6-3c2-.22,3.12,1.12,3.35,4q.33,6-3.35,6.36,1.33,0-6-3.68Zm2.34,171.86-2.34,5.36h1.34l2-5.36ZM343.37,253v-1.34h1V253ZM345,228.54h-1l.67-3.35h1Zm1-3.35h-.67l1.34-8.38h1Zm1.34,56.28-1.34,1.34.67.66,1.34-1.33Zm.33-149.75h-1v1.68h1Zm2-8a11.39,11.39,0,0,0-2.34,4,4.18,4.18,0,0,1,2.34-3l1.34.67C350.4,124.47,350,123.91,349.73,123.68Zm1.34,20.44-1.34,2,1,.67,1-2.35Zm.34,26.46h-1v1.68h1Zm-.34-34.17v-1.67h1v1.67Zm1.68,27.81h-1l.34,1.67h1Zm1.34-32.16-.67-.34.67-1.34.67.34Zm-.34-3.35q1-3,2.68-3.69l.34,3C356.1,127.59,355.09,127.82,353.75,128.71Zm.67,6.7-.67-.34.67-1.34h.34Zm.67,81.07-.67-.34.67-1.67,1,.33Zm6,16.41-.67-.33.67-3.35h1Zm4-109.54q-.33-3.34,5.7-3.69a4.88,4.88,0,0,1,4,2.35Zm1,127V249l1-.33V250Zm1.67-2.34-.67-.34,1.68-5h.67Zm2.68-10.05v-1.34h1v1.34Zm.67-1.68-.33-1.34h1l.34,1.34Zm.67-2.68v-2l1-.33v2Zm1-3-.34-2h1l.33,2Zm.67-118.93c0-.67.72-1.45,2.18-2.34a7.37,7.37,0,0,1,3.18-1.34,1.58,1.58,0,0,1,1.17.5,1.39,1.39,0,0,0,.84.5q1.33-2.34,5-2.34,8-.33,8.38,6c.22.89,0,3.13-.67,6.7Zm1,59.3h-1l.33-4.36h1Zm-.67,55.94v-1.67h.67v1.67Zm1.68-55.61h-1l.67-4.69h1Zm6,32.83-.67-.33.33-1.34,1,.33Zm.67-2.34h-.67l.67-3h1Zm1-6-.67-.34,1-2.34h1Zm1.68-3-.67.34v-3l1-.33Zm.67-47.57-1-.33.67-1.68h1Zm0,5.36v-2h1v2Zm1.34-3.35h-.67v-3.68h1ZM390.6,183l-.67,3,.67.34,1-3Zm5-44.56h-1l.34,1.34h1Zm12.06-11.72-.67,1.67.67.34.67-2Zm17.42,45.89-2,1.68.67.67,2-2Zm5-6.7-.67-.33.67-1.34h.67Zm2.68-64.32a2.88,2.88,0,0,1-2.34,1.34q4.35-.33,4.35,2.35Q434.82,102.25,432.81,101.57ZM450.9,154.5a1.35,1.35,0,0,0-.67-1.34c0,1.79-.22,2.8-.67,3h1A5.59,5.59,0,0,0,450.9,154.5Zm2-17.08-.67-3.35h1l.67,3Zm3.35,1.67a54.22,54.22,0,0,0,1.68,5.7q-3-5-3.35-5.7a5.6,5.6,0,0,1,.33-1.67,5.79,5.79,0,0,0,.34-1.34,4,4,0,0,0,2,1A7.25,7.25,0,0,1,456.26,139.09Zm5.7,7.71h-.67v2H462Z"/><path class="cls-1" d="M463.63,228.2c-.45,2.46-1.46,3.58-3,3.35-.46,0-2.13-1.56-5-4.69q.33-2-2.68-4.69-.33-2-.33-2.34a2.7,2.7,0,0,1,2,1.34l2.69-2a5.12,5.12,0,0,1,2.34-1.34Q463.29,218.5,463.63,228.2ZM459.27,61.37a3.88,3.88,0,0,1-.5,1.68,4.17,4.17,0,0,0-.5,1.34,8.58,8.58,0,0,0-3.35,0c-.9-.89-1.23-1.45-1-1.68a7,7,0,0,1,1-2.51,6.83,6.83,0,0,0,1-2.51,18.18,18.18,0,0,1,4,.67ZM629.79,118l-6.37,3c-.22.9.56,1.9,2.35,3,0,.45-.45,1.12-1.34,2q-6,.68-17.42,1a5.76,5.76,0,0,0-3.68,1.34q2.67.67,5.69,1.34a53,53,0,0,0,6,.34q-3.69.67-11,1.67a61.43,61.43,0,0,1-9.72,2.68.66.66,0,0,0,1,.34q5.7-.68,6.37-.67,2.34,0,16.08-.67l1.34.67-2.34,1.67-42.21,4.69q-23.13,2.35-41.88,3l-.67.67q-.33.33-7,19.76a148.68,148.68,0,0,0-6,22.45q-5,32.83,4.36,52.59,17.41-10.38,16.41-10.38c.89,0,2.35,1.17,4.36,3.51s3.46,3.64,4.35,3.86c.45,0,.68-.11.68-.34s.21-.22.67,0a8.4,8.4,0,0,1,2,2q2-1.67,21.44-11.39a114.75,114.75,0,0,1-45.55,31.16c-.9.45-1.35.89-1.35,1.34l.67,1q6.7-.33,33.5-16.08L543,256.68q-16.75,12.06-22.11,11.05c-.66,0-2.51-1.34-5.52-4s-4.64-4.35-4.86-5q-3.36,1-3.68,3.68l-4-.67q-3.36-.66-15.42-19.09-4.7-7.37-4.68-29.15a230.91,230.91,0,0,1,2.67-30.82q.68-4.35,8.72-36.85-8.39,1.35-12.4.67a34.19,34.19,0,0,1-7.7-2.68,32,32,0,0,0-8.38-2.68l-9-1.34h-1.35a4.13,4.13,0,0,1,1-2.34,11.83,11.83,0,0,1,5.36-.67c.89.22,2.34.56,4.36,1s3.46.79,4.35,1l1-.67c-.45-.67-1.89-1.68-4.35-3,1.11,0,3-.11,5.69-.33Q463,125,461.29,124.69c-.67,0-2.8.22-6.37.67.22-.67.78-.89,1.68-.67.21-.22,0-.67-.68-1.34l5.37-5.36q7,0,7.36-2.35c.45-2,.12-3-1-3a6.52,6.52,0,0,1-4.36-2.35c2-.22,5-.78,9-1.67l-1-1.34q2-1,6.37-3.35c.44-.67.34-1-.33-1,1.33.23,2.11.67,2.34,1.34,1.56-.44,2.56-1.78,3-4a28.88,28.88,0,0,1,6.69-1.67q6.36-.68,19.1-2.35,1.34-2.67,8-23.45l.67-4.69a48.43,48.43,0,0,1,3-6.7l.33-3.35c.67-1.78,1.89-4.57,3.69-8.37a40.09,40.09,0,0,1,1.33-4,18.74,18.74,0,0,0,3.69-5.7q4,2.68,9,6.37,2-1.68,5.7-4.69,0,1.34,2.68,7.7c.89-2,2.35-5.36,4.35-10.05l1.68.67q0,2.68,2.34,8.38a70.73,70.73,0,0,1,.67,10q0,8.37.67,7.7l-.67,3h-1q-2,8.37-6.7,25.12a13.69,13.69,0,0,0,1,1.68,2.77,2.77,0,0,0,1.67-1,1.22,1.22,0,0,0,1,1.68,27,27,0,0,0,7.71-.67q4.68.33,15.08.33,13.07,0,15.07-.33c-1.34,2.46-3,3.57-5,3.35l-5-.67-1,.33a4.44,4.44,0,0,0,3,1.68,22.65,22.65,0,0,0,4.35-.67,10.64,10.64,0,0,1,4.36-.34c.44,0,.55.23.34.67s0,.67.67.67q-2.35-.33,13.06-2h15.75a16.29,16.29,0,0,0-4.53,1.51c-2.34,1-3.85,1.4-4.52,1.17a27.66,27.66,0,0,0-13.06,1,2.71,2.71,0,0,0,2,1.34q15.74,2.68,12.72,1.34,1,1.33,5.37,7a6.13,6.13,0,0,0,.33,2c1.78.9,2.35,1.23,1.68,1a62.43,62.43,0,0,0,9.37,0l.67.67ZM460.28,134.4l-4.69-.67a8.19,8.19,0,0,0,2-1A3.6,3.6,0,0,0,460.28,134.4Zm62-95.14a9.17,9.17,0,0,1-2.34,1.34l-4-.67a5.5,5.5,0,0,1-.84-1.34,5.4,5.4,0,0,0-.84-1.34,4.89,4.89,0,0,0-3.34,2.51c-.9,1.46-1.13,2.63-.68,3.52q2.34,7.71-1,10.72-3,2-8.71,5.7-10.39.67-9.71,1a4,4,0,0,1-3-2.51,4.62,4.62,0,0,1,0-4.19,41.32,41.32,0,0,1-2.68-4.35c-.23-2.23-.56-5.36-1-9.38q-2.34,2-3.68,1.67-8.38-1.34-7-8.71c.44-2.45,2-4.8,4.69-7s5.24-3.13,7.7-2.68a3.17,3.17,0,0,1,1.67.67,14.78,14.78,0,0,0,1.68,1,20.87,20.87,0,0,0,4.35-1.51q3.69-1.5,4.36-1.17c1.78.23,5,2.13,9.72,5.7a55.37,55.37,0,0,0,5,6,23.29,23.29,0,0,1,3.35-4.69c1.34-1.12,2.45-1.56,3.35-1.34q2.34.33,4,4.35ZM490.77,69.75l-6-2.35.34-.67,5.7,2Zm5,15.07c-.45,2.24-1.67,3.13-3.69,2.68q-5.36-.66-7-5.36c1.12-2.45,2.45-3.57,4-3.35Q496.46,79.79,495.79,84.82ZM509.52,46.3l-.67-1-.66.34.66,1Zm11.06,7L508.19,89.85l10-40.2Q518.91,50,520.58,53.33Zm7,155.44a2.36,2.36,0,0,1-2.35-1.67,17.65,17.65,0,0,1-.33-7.71q-.35,2.69,6-23.45a109.5,109.5,0,0,0-1.5,15.91A100.63,100.63,0,0,1,527.62,208.77Zm25.46-121.6-1.35,5.36h-1.34l1.68-5.7Zm3.68-40.87h-1l.34-1.34h1Zm20.43,1.34c-.22,2.23-2,4.13-5.36,5.69a4,4,0,0,1-1-2,10,10,0,0,1,2.51-3.68c1.45-1.56,2.62-2.46,3.52-2.68A3.48,3.48,0,0,1,577.19,47.64Zm41.88.33q-3,2-4.69,1.68l-.67-.67.34-2a20.32,20.32,0,0,1,4.69-2.35l1,.67Z"/><path class="cls-1" d="M571.83,211.79h-2.34v-1.34h2.34Zm7.37-4.36-3,1q-2,4-2,2a4,4,0,0,1,1-2q-1.66.67-5.36-1.34c0,.45.56.67,1.68.67l6.7-2A4.85,4.85,0,0,1,579.2,207.43Zm-1.67,3.69-3.35,2-.34-1,2.68-2Zm2.34-15.75-3.68,3.69-.34-1,3.35-3.35Zm215.41-31.82q-2,0-3.69,2.34a3.36,3.36,0,0,0,0,4q-2,.34-15.74,2c0,.9.22,1.34.67,1.34h9.71a3.23,3.23,0,0,0,.67,1.68q-6.36.33-12.39.33-8.71,1-11.73,3.35,1,.34,8,.34a44,44,0,0,0-6,1.67c-.45.23-.22.67.67,1.34a2.92,2.92,0,0,0-3,.34l11.72,1q-56.28,9.39-92.12,17.76a87.59,87.59,0,0,1-10.39,6q-3.35,1-22.78,6v7a41.23,41.23,0,0,1,6,.67h2q-8.37,0-8.37,4-4.69,41.88-8.71,61,1-6.7,2.34-20.77l-1-1c-.23,0-.67.33-1.34,1q1,5.35-3.69,21.44a47.45,47.45,0,0,0,1.34-12.06,1,1,0,0,0-.67.34q-3,8.7-15.07,26.79a15.39,15.39,0,0,0-2,1.34q-1.35,3.36-3.69,11.06c-2.23-2.24-3.13-3.8-2.68-4.69q3-10.38-5.36-18.42v-1.68l-1-1.34q-2.68,1.34,5,16.42a31.43,31.43,0,0,0-.33-3.52,30.15,30.15,0,0,1-.34-3.52q0,1.67-7-11.39l-1-1a45.15,45.15,0,0,1-3.35,6c-1.12-1.13-1.67-1.79-1.67-2a25.84,25.84,0,0,1,1.17-6.2,25.92,25.92,0,0,0,1.17-6.2,92.44,92.44,0,0,0-3.35,8.71,2.12,2.12,0,0,1-1-1.34q5-22.11,5-26.13V256a4.18,4.18,0,0,0-3-.34l5.36-38.19c-.67-.89-1.23-1.34-1.68-1.34q-1.34.35-4.35,3.69l.67-.34a1.07,1.07,0,0,0,.67-1c.67-.22.44-.34-.67-.34q-1.35,0-7.71,3.69l-8,4.35a2.51,2.51,0,0,1-1,.34l-3.69-.34q6.71.34,12.73-6.36c.22.22-.33.33-1.67.33-.45,0-.56-.22-.34-.67v-1.34q-4,4-6,4a1.92,1.92,0,0,1-1.34-.67l-1-.67,1-.67a1.08,1.08,0,0,1,1-.67c.89,0,1.34.12,1.34.34a.29.29,0,0,0,.33.33,13,13,0,0,0,1.68-3.68q0-1.33-3-5c.45-1.34,1-3.23,1.68-5.69.22-.45,0-.67-.67-.67a4.64,4.64,0,0,0-3,1.67,21.24,21.24,0,0,0,1.34-5h-4q6.36-4.69,16.75-12.4,4.35-1,10.39-6a2.72,2.72,0,0,0-1.68-.33q-4.35,0-11.22,4.18t-9.55,8.21c-.22-.44,0-1,.67-1.67a5,5,0,0,0-1.67-1,1.56,1.56,0,0,0-1,1.68,10,10,0,0,1,1.34-5,1.46,1.46,0,0,0,.34,2,13,13,0,0,0,3.35-2.34c-.9.89-1,1.56-.34,2Q589.92,183.31,607,180a13.82,13.82,0,0,0,2-2.68v-1.34c-.23-.44-.79-.67-1.68-.67L596,180c-.22.45-.22.79,0,1a2.65,2.65,0,0,0-1.67-.34q-2,0-10.39,5v-2c-.45,0-1.34.67-2.68,2q2.68-2.68,6.7-7c2-.89,2.9-1.34,2.68-1.34h1a.59.59,0,0,0,.67.67q1.34,0,16.41-5a7.2,7.2,0,0,0,0-4.36H608a2.09,2.09,0,0,1,.5-1,2,2,0,0,0,.51-1,9.82,9.82,0,0,0,0-3.68,27.45,27.45,0,0,0,.33-5.36l7.37-60.3q0-3.69,2.68-12.4a134.67,134.67,0,0,0,3.69-13.06q4-19.77,9-31.83a9.21,9.21,0,0,0,5-5.36l2.68-7a6.15,6.15,0,0,0-.34,2,1.32,1.32,0,0,0,.34,1q3.35-6.69,14.07-14.4l-3,3c.67.45,1.56.12,2.68-1q-6.36,7.71-5.69,9.71a10.51,10.51,0,0,1,2.34-3.68q18.09-10.05,19.77-10l1.34,1.34q2-3.69,13.73-3.69a17.24,17.24,0,0,1,9.38,3q4,4,4,4.35c.67,0,1-.17,1-.5s.22-.5.67-.5.89.45,1.34,1.34.89,1.34,1.34,1.34q10.38.68,16.75,5.69a41.42,41.42,0,0,1,5.69,5.36q5.7,4,9.38,4-1.33,0,2.68-2Q738.66,37.59,741,44c-.9.23-3-.11-6.37-1a39.17,39.17,0,0,0-6-1.34q-1,0-3,3c-1.34,2-2.24,3-2.68,3-.9,0-4.52-2-10.89-5.87s-10.11-6.41-11.22-7.53c-.9,0-1.34.33-1.34,1,0,.23.22.56.67,1a4.84,4.84,0,0,0-3.35-1.68l-2,1a46.17,46.17,0,0,0-8.71,3.35q-10.4,11.73-17.42,44.55-1.35,5-4,21.44a11,11,0,0,0-2,3.35q-1,6-2.35,16.75a37,37,0,0,0-3,6l-1.68,25.13a3.42,3.42,0,0,1,1.34.67,3.42,3.42,0,0,0,1.34.67c-1.12,0-2.23.78-3.35,2.34,1.12.67,3,.79,5.7.34,1.34-.22,3.23-.45,5.69-.67a77.56,77.56,0,0,0-12.06,4.69.59.59,0,0,0,.67.67l44.56-7.71q3.35.34,11,1-11.06,1.34-37.18,7.7a23.44,23.44,0,0,0,5.36,1.68L745,160.2l-45.23,7.37-1.34,1c.22.23,1.34.34,3.35.34l53.94-8.71Q786.56,160.2,795.28,163.55ZM582.22,213.8a11.57,11.57,0,0,0-2,2.68,5.79,5.79,0,0,0-.34-1.34l-.33-1.34.67,1.34A2.71,2.71,0,0,1,582.22,213.8Zm5,3.68-.67-1-1.34,1v.67Zm13.4,11.39q-1.68-.66-4.35,1.84t-4,2.52q3.68-1.68,9-4.36Zm8,33.5v-6.7a2.71,2.71,0,0,1-1.67-1,15.25,15.25,0,0,1-1.34,2.68q-1,9.38-2.35,24.79Q608.67,263.71,608.68,262.37ZM607,183.31v-1h-2v1Zm5,123.62h-1.34v-1.68H612Zm1-184.25h-1v-2.35h1ZM638.16,54V51.32h-.67V54Zm8-34.17-4.35,5.36-.67-1,4.35-4.69Zm-4,27.81V45h-1v2.68Zm2-7.37h-.67l-1.67,4.35.67.34Zm1,0V38.59h-1.34v1.68Zm3.35-10.39h-.67l-3.69,8,1.34.34Zm29.48,2h-.67l-2.68,5.7.67.33ZM692.1,16.82a10.54,10.54,0,0,1-3-.67,10.94,10.94,0,0,0-3.35-.67,9.81,9.81,0,0,0-6,2Q683.72,17.49,692.1,16.82Zm24.12,141.37h-4.36v-1h4.36Zm6.36-.67h-4.69v-1.34h4.69Zm5-1h-4.36v-1h4.36Zm6-.33h-5v-1h5Zm2-123.62-.34,1-2-1v-.67Zm3.68,123h-3.68v-1.34h3.68Zm24.46,59h-2.35v-1h2.35Z"/><path class="cls-1" d="M854.91,164.22q0,6-5,17.75-2,5.7-5.69,18.09A161,161,0,0,0,832.8,214.8l1.67-3.35c1.34-2.45,1.78-3.9,1.34-4.35a133.43,133.43,0,0,0-7.37,12.06,60.9,60.9,0,0,0-6,6.36q-2,3.69-5.69,10.72a83.49,83.49,0,0,1-19.43,20.1q-18.43,13.74-24.46,13.73a10.49,10.49,0,0,1-3-.67,11.38,11.38,0,0,0-2.68-.67,34,34,0,0,0-7.54,1.18,34.67,34.67,0,0,1-7.54,1.17q-10,0-21.44-10.72l-6.7-1.34a8.83,8.83,0,0,0-.34,2.68,29.61,29.61,0,0,0,.34,4q-3.34-4.35-9-11.39-.35-1.67-1.68-6l-2-1.34q-.68-4.35-2-13.4c1.12-1.34,1.68-2.34,1.68-3a63,63,0,0,1-4.36-13.07q1-1,0-18.09a196.47,196.47,0,0,1,12.4-48.24q3.68-10.38,14.4-21.77Q744.69,116,753.74,114q1.34,0,12.73-5.36a80.75,80.75,0,0,0-36.85,29.14c-.23.23,0,.67.67,1.34l1.67-1.34a36.43,36.43,0,0,0-7,11.39l1.34.67q10.38-14.4,33.83-30.48a27.79,27.79,0,0,0-5.69,1.67q21.44-12.72,33.16-12.39c-.22,0-.67.33-1.34,1a4.1,4.1,0,0,0,2.35.67,27.9,27.9,0,0,0,5-.67,28.71,28.71,0,0,1,5-.67c.67,0,2.17.79,4.52,2.35s3.74,2.34,4.18,2.34c.9,0,1.29-.17,1.18-.5s0-.5.5-.5a9,9,0,0,1,2.85,2.17q1.83,1.85,9.88,10.89,1.34,3,6.7,8l1.34-1.34c-1.56-.67-2.18-1.56-1.84-2.68a2.27,2.27,0,0,0-.84-2.68c3.57,0,6.25.79,8,2.35,1.34-1.56,2-2.57,2-3a21.92,21.92,0,0,0,5.36,7.71q2.34,2.69,7,17.08c0,.9.11,2.35.33,4.36a7.28,7.28,0,0,0,3,2.68A10.81,10.81,0,0,1,854.91,164.22ZM741,128.71l-4.35,4.69-.33-1,4-4Zm5.37-3.35L742,128.71l-.33-1.34,4-3Zm53.26,32.16q-3.35-5-4-7.71-4.35,3-14.07,11.39a12.3,12.3,0,0,1,2.68-5,123.8,123.8,0,0,0-22.44,42.54q-1.35-2-1.68-2-2.34,0-4.52,8t-2.18,11.39q0,6.71,3,17.42,13.4-3.67,25.8-19.76t12.06-29.15q1.34.67,2-2l1-2.34q-2.68-1-5.7-2.35a14.72,14.72,0,0,0,.34-2.68q0-3.35-10.72-6l8.37-.33a22.17,22.17,0,0,1,4.69,3,17.36,17.36,0,0,1,1-2.34c-1.34,0-2.13-.11-2.35-.34,1.12-1.11,1.56-2,1.34-2.68q-1.34-1-3.69-2.68c3.36-1.11,5.58-2.56,6.71-4.35a30.6,30.6,0,0,0-2.68-3,10.16,10.16,0,0,1,2.68.5A9.51,9.51,0,0,0,799.63,157.52Zm-29.81-48.91h-2v-1.34h2Zm14.4.33q-3.69,1-15.07,5h3Q774.17,114.3,784.22,108.94Zm-10.05-2h-2v-1.34h2Zm14.74,72h-1.67v-1.34h1.67ZM848.54,124H847.2v-3h1.34Z"/><path class="cls-1" d="M927.93,225.86q-1.68,1.33-12.39,7c.44.9.78,1.34,1,1.34a3.23,3.23,0,0,0,2.35-1,5.29,5.29,0,0,0-.34,1.34c-.45.22-.22.33.67.33a1.31,1.31,0,0,0,1.34-1,7.24,7.24,0,0,1,.67,4.35,5.8,5.8,0,0,1-1,3q-5.7,2-13.07,8.37a3.42,3.42,0,0,1-1.34-.67,3.33,3.33,0,0,0-1.67-.67q-1.68-.33-5.7,2.35l-.33,2a17.15,17.15,0,0,0-4,2.34c-.45.23-.23.34.67.34.89.22,2.34-.11,4.35-1q-2,.67-5.36,1.68-1,1.33-2.68,3.35a26.87,26.87,0,0,0-6,0,65.74,65.74,0,0,1-7,3.35c-2.91,1.79-4.81,3.68-5.7,5.69a4.93,4.93,0,0,0-1-3.68c-1.57,1.12-2.35,2.34-2.35,3.68a3.48,3.48,0,0,0,.34,2.68L868,269.4a57.89,57.89,0,0,0-4.69,5.7,15.39,15.39,0,0,0-1.34-2,3,3,0,0,0-3.35,3,45.37,45.37,0,0,0-.34,5v1h-2.34a3.58,3.58,0,0,1,.67-2v-2.35a5.12,5.12,0,0,0-.34-3l-5.36,4.35a7.34,7.34,0,0,1-6.36-4.69l-2,1.68a4.88,4.88,0,0,0-1-3,3.9,3.9,0,0,0-.67,1,3.67,3.67,0,0,1-.67,1,13,13,0,0,1,1.68-4.69l-1-.67c-.67.89-1.45,1.9-2.34,3a30,30,0,0,1,1-5q.35-4-2-4c-.67-.22-1.89,0-3.68.67a3.81,3.81,0,0,0,.33,1.68l1.68-1c.67,0,.11.79-1.68,2.34a5.12,5.12,0,0,0-1.67-3.68c0-.22-.22-.11-.67.34v5a16.66,16.66,0,0,1,0-4.69,2.68,2.68,0,0,0-1.68-.33,1.11,1.11,0,0,0-1,.5c-.22.33-.45.5-.67.5a1.45,1.45,0,0,0,.83-1,2.28,2.28,0,0,1,.51-1,41.31,41.31,0,0,0-3-3.35l3,2c.45-.44.22-1.23-.67-2.34l6.7-8.71a2.66,2.66,0,0,0-1.68-.34q2,0-7.37,2,3.36-1.66,9.72-5v-2a68.13,68.13,0,0,0,4.35-6.7c.45-.45,1.74-1.45,3.85-3s3.19-3,3.19-4.35a10.59,10.59,0,0,0,4-2.68Q870.64,188.67,881,123.68l1-17.08q-5.37,31.83-6,36.85a224.36,224.36,0,0,1-10.72,35.84Q875,129.39,876,116.65l.67,1.34a3.81,3.81,0,0,0,.33-1.68,1.44,1.44,0,0,0,0-1.34c-1.34,1.12-2,1.34-2,.67a5.74,5.74,0,0,1,.5-1.51A5.45,5.45,0,0,0,876,112l2-52.26q.33-10.73,4-18.09V40.27a28.82,28.82,0,0,1,3-1.68,10.72,10.72,0,0,0,.34-1.67h1.67a5.05,5.05,0,0,0,.67,2l-2.68,55.61q1-3.69,3.35-27.14l-.33-14.74a74.26,74.26,0,0,1,2.68-12.06c.22.9.55,2,1,3.35,1.34-1.11,2.12-3.46,2.35-7a8.27,8.27,0,0,0,3.68,1.34c.45-.45,1.23-1.34,2.35-2.68v2.68a27.28,27.28,0,0,0,4.69.67c1.56.22,2.34,0,2.34-.67a4.55,4.55,0,0,0,.34,3,8.93,8.93,0,0,1,1.67-4.35c1.12-1.79,2.12-2.57,3-2.35v2a7.35,7.35,0,0,0-3,2.68l.34,2.35q2.67-1,6-5.36l-.67,5.36q0,3.35,4.35,3.68a20.72,20.72,0,0,0-1.67,5.36q-.34,4,.33,22.45l-.67,6c-.22,2.23.22,3.68,1.34,4.35L915.2,115q-3.35,33.84-21.44,95.48a15,15,0,0,1-1.34,3.68c-.45.67-.56,1.12-.33,1.34a2.84,2.84,0,0,1,2.34-.33,13.06,13.06,0,0,1,2.68,3h1.68a7.64,7.64,0,0,0,2.34-4.35,5.76,5.76,0,0,0,.67,1.67,1.59,1.59,0,0,0,1.68-1.34q-1,2-5.7,5a23,23,0,0,0,4.69.67q8-3,9.38-3a3.59,3.59,0,0,1,2.35,1.51c.89,1,1.45,1.51,1.67,1.51.45.22.89,0,1.34-.67s.89-.89,1.34-.67q3.69.33,9.72,3.68ZM835.14,258l-.67-.67-1,2,.67.33Zm2.68,4.69a15.54,15.54,0,0,1-.67-6c-.45.45-1.34,2.23-2.68,5.36C836.26,262,837.37,262.26,837.82,262.71Zm-1.34,10.05-1-.34.34-3,1,.34Zm8.37-1.34-1.34-.34-.67,3h1Zm1-38.86-1,1.34-.67-.34,1-1.34Zm15.07-34.51q-1,4-6.36,14.07a41.72,41.72,0,0,0-4.36,7q2.68-7.36,8.38-21.44Zm3.69-19.43-1,2.35-1-.34.67-2.34Zm5.69-34.17h-.67l.34-2,.67.34ZM874,126.7l-.67,4.35-1-.33.67-4Zm15.41,137.68a76.4,76.4,0,0,0-11.06,7.71,5,5,0,0,0,4,3,1.44,1.44,0,0,0,1.34,0v-.67c-.22,2-.45,2.9-.67,2.68s-.78-.22-1.67,0l-1,.34c-1.34-1.34-1.67-2-1-2q-1.35-1-6.37-1.68A93.51,93.51,0,0,1,889.41,264.38ZM874.67,122l-1-.34.34-5h1.34Zm4-30.15,1.67-32.16q-.68-.33-2.34,11Q879.36,84.82,878.69,91.86Zm10.38,166.49.34-1.34h-2.35l-.33,1Zm3.35-46.56h-.67l-2,3,.67.67Zm1.34-6h-1l-1.68,4.69h.67Zm2,12.06-.67-1.34-4,2.34v1.34ZM902.14,254l-1.68.33v-1l1.68-.67Zm9,2.34a3,3,0,0,0-1.17.5,2.08,2.08,0,0,1-1.84.17l-4-.33a5,5,0,0,1,4-1Zm4-41.2-1.67,2.34-.67-1,1.67-2ZM920.56,118l-1.34-.34.34-3.35,1.34.34Zm0,98.49h-1.34l.34-2,1,.33Zm1.34-111.56h-1.34l.34-3.35h1.34Zm5.36,119.26h-1l-1,2.68h1Z"/><path class="cls-1" d="M1027.76,233.23q-5.35,3.69-5.36,5c-.22.67.22,1.12,1.34,1.34q-1.34,1.35-9.38,8a2.73,2.73,0,0,0-.67,2q-2.69,3-6.36,6.7-1.68,1.68-6,5.7-3.69,2.34-9.72,7l-.33.67,1.67-1a4,4,0,0,0-.67,1,1.92,1.92,0,0,0,.67,1.34,7.24,7.24,0,0,1-4.35.67l-.67,1.34a1.08,1.08,0,0,0,.67,1h-1a3.15,3.15,0,0,0-1.67-.67c-1.12,0-1.68.44-1.68,1.34a5.44,5.44,0,0,0,0,2.68,8.39,8.39,0,0,0-4.35-1,5.05,5.05,0,0,1-1.68,1c-.67-.23-1.67-.62-3-1.18a8.77,8.77,0,0,0-3-.83,33.06,33.06,0,0,1-4-5.37,1.31,1.31,0,0,0-1.34-1c-.67,0-1,.45-1,1.34a17.82,17.82,0,0,0-1.68-2.35,2.14,2.14,0,0,1-2.34,1c-2.46.22-4,.33-4.69.33-.45,0-.56-.11-.34-.33.45-.45.45-.67,0-.67q-3.69-.33-6-6.36a84.22,84.22,0,0,1-5.36-39.2q2-17.09,9-45.22,5.69-24.8,11.72-40.2a32.81,32.81,0,0,1,6.7-10,21.83,21.83,0,0,0,4-1.68,33.17,33.17,0,0,0,3.35-2.34c.89,1.34,2.35,3.57,4.36,6.7q5.36-3.35,8-3h2a2.66,2.66,0,0,1-.34,1l-.33.67c.44.45.78.67,1,.67q1,0,3.35-2.68a14.57,14.57,0,0,0,2.68-1.34c-2.23,2.9-3.46,5.14-3.68,6.7v2l1,1a4.15,4.15,0,0,0,2.35-1,28,28,0,0,1,.33,3.68c-.22.9-.67,1.34-1.34,1.34h-1.34l.34,2.68a2.89,2.89,0,0,1,2-1,5.59,5.59,0,0,0,.33,1.34,4.86,4.86,0,0,0-2.68,3c.22-.44.22-.78,0-1l-4,20.43q-9.37,32.16-11.72,55.28a162.77,162.77,0,0,0-.67,20.77,3.74,3.74,0,0,0,1,.67l27.47-17.76q-3,6-10.72,12.06-3.69,2.69-13.4,9.72,1.34-1,16.08-10.72l-17.75,14.07c.22.22.78.11,1.67-.34L983.88,250c0,.22.33.33,1,.33q1.33.34,33.5-22.44a2.37,2.37,0,0,0,1.68,1l4-1.34c-2.24,1.57-3.35,2.8-3.35,3.69-.23,1.56.55,2.46,2.34,2.68A27.87,27.87,0,0,0,1027.76,233.23Zm-70.35,33.83v-.67l-2.34-.33v.66Zm5-8,.33-1-3.68-.34-.34,1Zm-.67,9.38.33-1.34h-1l-.34,1.34Zm2.68-12.73-3-.33-.33,1.34C962,256.46,963.11,256.12,964.45,255.67Zm3.68,27.47-6.36-1.34.33-1,6,1.34ZM1034.8,80.47a30.37,30.37,0,0,1-2-2.35,1,1,0,0,0-.67.34,8.82,8.82,0,0,1,.33,2.68,18.85,18.85,0,0,1-2,6,36.45,36.45,0,0,0-.33-8c-.45-.22-.79-.22-1,0v2.34a6,6,0,0,0-2.34,5.36l2.34,2.35c.45-.45.67-.78.67-1l-3,7.71A168.69,168.69,0,0,1,1013,106.6a1.81,1.81,0,0,0,.84,1.34,1.85,1.85,0,0,1,.84,1.34c0,.22-.23.56-.67,1-2-1.78-3.47-2.68-4.36-2.68l-5.69,2.68a16.94,16.94,0,0,0,2.34-3.68l-2.34-.34-.34,3.35c0-.44-.33-.67-1-.67-.45,0-.67.12-.67.34a3.58,3.58,0,0,0,.67,2,15.7,15.7,0,0,1-2-3.19c-.9-1.67-1.57-2.51-2-2.51a8.31,8.31,0,0,0-4.36.34q-1-5-4-4a10,10,0,0,0,2.35-3c-.67-.67-1.12-1-1.34-1l-1.68,1.34q-2.34,2-4.35,1.67c-.23,0-.34-.11-.34-.33s-.22-.34-.67-.34a4.73,4.73,0,0,0-1.51.67,4.48,4.48,0,0,1-1.5.67q-3.69-.33-2.68-11.72l1.34-1a11.57,11.57,0,0,0,1-6q2-6.69,11.39-22.78,7.37-3,13.4-5a2.94,2.94,0,0,0-4.35-.67q-7,1-12.57,7.7a28,28,0,0,0-6.53,14.07,89.55,89.55,0,0,0,2.68-11q-10.05,7.71-10,18.09a12,12,0,0,1,1,3.35.59.59,0,0,0-.67-.67,9.23,9.23,0,0,0-2,.33l-.34-2.68Q974.16,70.76,987.56,61l4.36-3.35a21.39,21.39,0,0,0-1.34-6q3-2,4.69-2A52,52,0,0,1,1004,52l9,3q0,.68,2,4a5.44,5.44,0,0,1,2.68,0c.22.67.45,1,.67,1a1.4,1.4,0,0,0,1-.33,1,1,0,0,1,.67-.34c.44,0,.83.34,1.17,1s.72,1,1.17,1a5.59,5.59,0,0,0,1.68-.33,5.6,5.6,0,0,1,1.67-.34,1.55,1.55,0,0,0,1.17,1.68c.78.22,1.06.5.84.83s-.11.51.34.51a18.15,18.15,0,0,0,5,0l.67,1c-.22.23-.45.45-.67.67a5.87,5.87,0,0,0,1,2.35l-4.36,2c0,.45.45.78,1.34,1a15.54,15.54,0,0,0-.67,5.36c1.34,0,2.9.9,4.69,2.68Zm-56.62,6.7-.67-.34-.33-1.34h.67Zm7.71,158.45-.67-1-1.68,1,.34.67Zm1-181.57h-.67l-1,1,.67.33ZM1015,237.25v-.34l-1.34.34v.67ZM1029.44,86.5l-.67,1-.67-.33.33-1.34Z"/><path class="cls-1" d="M1175.5,164.22q0,6-5,17.75-2,5.7-5.69,18.09a161,161,0,0,0-11.39,14.74l1.67-3.35c1.34-2.45,1.78-3.9,1.34-4.35a133.43,133.43,0,0,0-7.37,12.06,60.9,60.9,0,0,0-6,6.36q-2,3.69-5.69,10.72a83.49,83.49,0,0,1-19.43,20.1q-18.44,13.74-24.46,13.73a10.49,10.49,0,0,1-3-.67,11.38,11.38,0,0,0-2.68-.67,34,34,0,0,0-7.54,1.18,34.67,34.67,0,0,1-7.54,1.17q-10.05,0-21.44-10.72l-6.7-1.34a8.83,8.83,0,0,0-.34,2.68,29.61,29.61,0,0,0,.34,4q-3.35-4.35-9-11.39-.35-1.67-1.68-6l-2-1.34q-.67-4.35-2-13.4c1.12-1.34,1.68-2.34,1.68-3a63,63,0,0,1-4.36-13.07q1-1,0-18.09a196.47,196.47,0,0,1,12.4-48.24q3.67-10.38,14.4-21.77Q1065.28,116,1074.33,114q1.34,0,12.73-5.36a80.75,80.75,0,0,0-36.85,29.14c-.23.23,0,.67.67,1.34l1.67-1.34a36.43,36.43,0,0,0-7,11.39l1.34.67q10.38-14.4,33.83-30.48A27.79,27.79,0,0,0,1075,121q21.43-12.72,33.16-12.39c-.22,0-.67.33-1.34,1a4.09,4.09,0,0,0,2.34.67,27.88,27.88,0,0,0,5-.67,28.71,28.71,0,0,1,5-.67c.67,0,2.17.79,4.52,2.35s3.74,2.34,4.18,2.34c.9,0,1.29-.17,1.18-.5s.05-.5.5-.5a9,9,0,0,1,2.85,2.17q1.83,1.85,9.88,10.89,1.34,3,6.7,8l1.34-1.34c-1.56-.67-2.18-1.56-1.84-2.68a2.27,2.27,0,0,0-.84-2.68c3.57,0,6.25.79,8,2.35,1.34-1.56,2-2.57,2-3a21.92,21.92,0,0,0,5.36,7.71q2.34,2.69,7,17.08c0,.9.11,2.35.33,4.36a7.21,7.21,0,0,0,3,2.68A10.81,10.81,0,0,1,1175.5,164.22Zm-113.91-35.51-4.35,4.69-.33-1,4-4Zm5.37-3.35-4.36,3.35-.33-1.34,4-3Zm53.26,32.16q-3.35-5-4-7.71-4.35,3-14.07,11.39a12.3,12.3,0,0,1,2.68-5,123.8,123.8,0,0,0-22.44,42.54q-1.35-2-1.68-2-2.34,0-4.52,8T1074,216.14q0,6.71,3,17.42,13.39-3.67,25.8-19.76t12.06-29.15q1.34.67,2-2l1-2.34c-1.8-.67-3.69-1.45-5.7-2.35a14.72,14.72,0,0,0,.34-2.68q0-3.35-10.72-6l8.37-.33a22.17,22.17,0,0,1,4.69,3,16.16,16.16,0,0,1,1-2.34c-1.34,0-2.13-.11-2.35-.34,1.12-1.11,1.56-2,1.34-2.68q-1.33-1-3.69-2.68c3.36-1.11,5.58-2.56,6.71-4.35a30.6,30.6,0,0,0-2.68-3,10.16,10.16,0,0,1,2.68.5A9.51,9.51,0,0,0,1120.22,157.52Zm-29.81-48.91h-2v-1.34h2Zm14.4.33q-3.69,1-15.07,5h3Q1094.76,114.3,1104.81,108.94Zm-10-2h-2v-1.34h2Zm14.74,72h-1.67v-1.34h1.67ZM1169.13,124h-1.34v-3h1.34Z"/></g></g></svg>