<svg xmlns="http://www.w3.org/2000/svg" viewBox="0 0 24 24"><defs><style>.cls-1{fill:#00bfa5;}</style></defs><title>skype</title><g id="Слой_2" data-name="Слой 2"><g id="Layer_1" data-name="Layer 1"><path class="cls-1" d="M18,24a6,6,0,0,1-3.66-1.25A11.26,11.26,0,0,1,12,23,11,11,0,0,1,1,12a11.26,11.26,0,0,1,.25-2.34A6,6,0,0,1,9.66,1.25,11.26,11.26,0,0,1,12,1,11,11,0,0,1,23,12a11.26,11.26,0,0,1-.25,2.34A6,6,0,0,1,18,24ZM13.47,10.45l-1.63-.37c-1.18-.28-2.07-.49-2.07-1.39S10.64,7.48,12,7.48c2.45,0,2.5,1.8,4,1.8a1.61,1.61,0,0,0,1.63-1.7c0-1.8-3-3-5.94-3C9,4.61,5.88,5.78,5.88,9c0,2.63,1.75,3.57,4,4.11l2.28.57c1.39.34,2.25.5,2.25,1.5,0,.79-.89,1.4-2.27,1.4-2.89,0-3-2.4-4.72-2.4a1.5,1.5,0,0,0-1.57,1.64c0,1.92,2.93,3.48,6.45,3.48,2.94,0,6-1.47,6-4.64C18.33,11.89,15.69,11,13.47,10.45Z"/></g></g></svg>