<svg xmlns="http://www.w3.org/2000/svg" viewBox="0 0 30.01 17.12"><defs><style>.cls-1{fill:#fff;}</style></defs><title>vk</title><g id="Слой_2" data-name="Слой 2"><g id="Layer_1" data-name="Layer 1"><path class="cls-1" d="M27.62,5.83c-3,4-3.35,3.66-.85,6a13.29,13.29,0,0,1,3,3.45s1,1.75-1.11,1.77l-4,.06a3.34,3.34,0,0,1-2-.61c-1.5-1-2.91-3.7-4-3.36,0,0-1.12.36-1.09,2.76a1.22,1.22,0,0,1-.24.8,1.35,1.35,0,0,1-.83.35H14.69c-4,.25-7.44-3.4-7.44-3.4S3.44,9.71.09,1.85c-.22-.52,0-.77,0-.77A1.13,1.13,0,0,1,1,.79l4.28,0A1.68,1.68,0,0,1,6,1a1.1,1.1,0,0,1,.37.5A32.58,32.58,0,0,0,8,4.88c1.57,3.22,2.63,3.76,3.24,3.44,0,0,.79-.49.62-4.38a4.67,4.67,0,0,0-.45-2A2.11,2.11,0,0,0,10,1.22c-.23,0,.16-.59.67-.84A9.8,9.8,0,0,1,14.44,0a8.43,8.43,0,0,1,2.11.21c1.48.36,1,1.73,1,5,0,1.07-.2,2.55.56,3,.33.21,1.14,0,3.14-3.38a28.57,28.57,0,0,0,1.68-3.52A.9.9,0,0,1,23.3.91a1,1,0,0,1,.59-.09l4.5,0C29.75.61,30,1.24,30,1.24,30.2,1.88,29.47,3.38,27.62,5.83Z"/></g></g></svg>