<svg xmlns="http://www.w3.org/2000/svg" viewBox="0 0 505.1 165.04"><defs><style>.cls-1{fill:#6e7171;}</style></defs><title>works_title</title><g id="Слой_2" data-name="Слой 2"><g id="Layer_1" data-name="Layer 1"><path class="cls-1" d="M12.85,32.64q-.21,1.63-5.3,8a1.64,1.64,0,0,1-1.84,1,4.6,4.6,0,0,1-3.06-1.23A25.39,25.39,0,0,1,.2,36.52C.07,34.34,0,33,0,32.44q.62-5.92,5.51-5.31,1.22.21,3.06,3.47c.13.14.3.1.51-.1a1,1,0,0,1,.71-.31,3.76,3.76,0,0,1,1.84.92C12.44,31.72,12.85,32.23,12.85,32.64Zm137.7-6.53A4,4,0,0,0,148.31,29a3.52,3.52,0,0,0,.41,1.63,10.29,10.29,0,0,0-2.66,1.84,1.7,1.7,0,0,0-.2-.62,7.7,7.7,0,0,0-4.08,6.94q1.64-1.42,4.69-4.69l-.2,1,1.22.2a3.57,3.57,0,0,1,.82-.2q-2.25,0-4.29,4.69a3.29,3.29,0,0,0,.21,1q-4.29,7.35-4.29,9a1.18,1.18,0,0,0,1.23-.41q.62-1.63,5.51-7.35-2.25,3.67-4.7,8.16-4.69,9.18-4.89,11.43a5.15,5.15,0,0,1-.72,1.73,10.06,10.06,0,0,0-.91,2.14,8.74,8.74,0,0,0,.4,2.25l-.61-.41a1.39,1.39,0,0,1,.41,1,1.67,1.67,0,0,1-.61,1v.41c-.14.14-.07.27.2.41l.82-1.43c.68,1.09,1,1.83.81,2.24q0,1.23-4.08,8c-.13,0-.2.41-.2,1.22l-.82-.61v.2a.57.57,0,0,0,.21.41,1.23,1.23,0,0,1,.2.82q-.21.62-2.65,6.73a3.4,3.4,0,0,0-1.63,0c-.14.55,0,.82.41.82s.61,0,1-.41a19.57,19.57,0,0,1-1.64,2.45,10.57,10.57,0,0,1,1.64,2.24l-11.63,26.11q-9,20.61-17.55,28.56,0,1-2.24,3.88a13.49,13.49,0,0,0-2.86,1.83c-.27,0-.64-.23-1.12-.71s-.85-.71-1.12-.71a1.18,1.18,0,0,0-.82.4,1.17,1.17,0,0,1-.81.41c-.82,0-1.84-1.15-3.06-3.47a1.45,1.45,0,0,0-1,1.43,3.4,3.4,0,0,1,0,1.63c-.14-.4-1.09-.54-2.86-.4a27.86,27.86,0,0,0,1.84,3.87q-10.41-4.49-9.79-4.49a.36.36,0,0,0-.41.41c0,.27-.21.41-.61.41.13,0,.06-.2-.21-.61a33,33,0,0,0-8.57-1.84c-1.22-.54-2.11-1.76-2.65-3.67a2.39,2.39,0,0,0-1.22-.82q-3.68-6.93-5.31-7.14c0-.13.14-.33.41-.61l.41-.61c.27-1.63-.2-2.52-1.43-2.65-1-.14-2,1.09-3.26,3.67a2.93,2.93,0,0,1,.2,1.22c-.27,0-2.18,2-5.71,6.12S42.09,151.09,41,151c.41.13-.47-.41-2.65-1.63a8.85,8.85,0,0,1-2.24-.41,8.91,8.91,0,0,0-2.25-.41A6.41,6.41,0,0,0,32.23,152c-.41.68-1.36.88-2.85.61q-5.71-.41-7.35-6.32l-3.67-4.08q-2.25-4.08-4.69-8a44.24,44.24,0,0,1-3.47-8.57,225.69,225.69,0,0,1-5.51-33l.21-2.45a2.52,2.52,0,0,0-1.43-2.25,78.86,78.86,0,0,0,2.24,23.87c-1.09-.13-1.7-.54-1.83-1.22A47.42,47.42,0,0,1,2.45,104,98.07,98.07,0,0,1,1.84,76.3a15.05,15.05,0,0,1,3.06-8q-.21.41,0-1c.27.41.54.61.81.61l.82-.41a4.34,4.34,0,0,1-1.23-2,1.69,1.69,0,0,0,1.23-.4c.27.81.68,1.9,1.22,3.26l.82.2c.27.28.47-.27.61-1.63C8,65.69,7.41,64.6,7.55,63.65c.13,0,.3-.14.51-.41a.52.52,0,0,1,.71-.2c.54,0,1.23,1,2,2.85a1.14,1.14,0,0,0,.21-.81,7.5,7.5,0,0,0-1.64-5.72,1.74,1.74,0,0,0-.51.11,2.17,2.17,0,0,1-.71.1c-.41,0-1-.85-1.84-2.55s-1.15-2.82-1-3.37a1,1,0,0,1,.31-.71.9.9,0,0,0,.31-.51H7.14a4.65,4.65,0,0,1,2,2.85,7,7,0,0,1-.41,3.06,2.78,2.78,0,0,0,1,1.23,1.17,1.17,0,0,1,1.43-.82,6.81,6.81,0,0,1,2,1.84,18.33,18.33,0,0,1,1-3.06,14.94,14.94,0,0,1,2.24,2.65,2.38,2.38,0,0,0,1.43,0Q13.87,53,14.08,51a9.05,9.05,0,0,1,2.24-3.88c1.36-1.63,2.51-2.37,3.47-2.24.68,0,1.56.61,2.65,1.84s1.56,2.17,1.43,2.85A7.07,7.07,0,0,1,23,52.22,7.15,7.15,0,0,0,22,54.88c.14.27.54,1.15,1.23,2.65q4.89-1,4.89-2.25,0,1.63-.81-3.46a2.32,2.32,0,0,0,.71-.21,1.13,1.13,0,0,1,.92,0q2,.21,2.65,8a202.7,202.7,0,0,0,3.26,43q.4.61,1.23,2.25a.66.66,0,0,0,.61-.41c0-.14-.14-.34-.41-.61,1.23-1.5,1.7-2.52,1.43-3.06l.82,1a6.16,6.16,0,0,0,1-1.64c-.14-.27-.28-.4-.41-.4a2,2,0,0,0,.61-1.43c.54-.82,1.63-2.65,3.26-5.51-.13.27-.54-.07-1.22-1a2.56,2.56,0,0,1,1,.41,18.68,18.68,0,0,0,1.22-1.43,1.66,1.66,0,0,0-.2-.61,8.89,8.89,0,0,0,1.63-3.67,9.9,9.9,0,0,0,2.45-3.88c0,.14.13.27.41.41A4.25,4.25,0,0,0,50,80.17c0-.54.07-1.43.2-2.65.82-.27,1.33-1,1.53-2.35A4.51,4.51,0,0,1,54.06,72a16.16,16.16,0,0,0,2.65-1.83,46.87,46.87,0,0,1,2.65-13.67,10.6,10.6,0,0,1,3.06-4.08c1.64-1.5,3-2.18,4.08-2s2.38,1.29,3.47,3.47a3,3,0,0,1,2-.21c-.27-.13.07-.41,1-.81l2-2.86,3.06,1.43a8.75,8.75,0,0,0,2-.41Q82,55.08,81.8,62.22l-.2,11.22c-.14-.41-.27,0-.41,1.22.14.28.27.41.41.41a3.12,3.12,0,0,0,.82-1.63,8.75,8.75,0,0,0-.41-2,1.21,1.21,0,0,1,1.22-.2,14.31,14.31,0,0,1,.41-2.86c.27-1.22.47-2.17.61-2.86a6.33,6.33,0,0,0,.61,2.25c.14-.41.62-1.63,1.43-3.67a.18.18,0,0,0,.21.2.83.83,0,0,0,.81,0l-2.85,25.3a29.06,29.06,0,0,0-.41-3.88,5.21,5.21,0,0,0-.82,2.45A15.93,15.93,0,0,0,83.64,93a12.07,12.07,0,0,0,1-3.06l-.61,16.94c-.14,2.17-.28,5.44-.41,9.79Q91,108.13,98.53,90.78,109.14,66.71,111,63.24a8.21,8.21,0,0,0,1-3.47,1.45,1.45,0,0,0,1.22-.81,3.57,3.57,0,0,0-.2-.82,109.6,109.6,0,0,0,6.12-11,2.75,2.75,0,0,0,1,1.64h.61q1.22-1.84,3.47-4.9a39,39,0,0,1-5.1,10.4l.4,1c-1.09.28-2,1.23-2.65,2.86a5.05,5.05,0,0,0-.41,1.84,1.41,1.41,0,0,0,.41,1.42q-.21,0-.81-.81a6,6,0,0,1-1.64,2.24v1.63c1.64-.67,2.38-1.08,2.25-1.22-.55-.41-.82-.75-.82-1l.82.2c-.28,0,.27-.2,1.63-.61-.41-.54-.48-.81-.2-.81l.2-.21.2-.81q.21-.42,4.7-7.76c.4-.95.33-1.49-.21-1.63a3.42,3.42,0,0,0,1.43-1.43,43.61,43.61,0,0,1,2.65-6.52,36.23,36.23,0,0,0,4.69-5.31c.41-.41,1.77-2.1,4.08-5.1l2-2.45c-.13.69-.13,1.09,0,1.23.55-.54,1.43-1.36,2.66-2.45l1.22-2.45c-.14.14-.07.34.2.61a20.73,20.73,0,0,0,1.23-1.83,7.92,7.92,0,0,1-1.63,4.69.79.79,0,0,0,.61.2l3.26-3.26Q136.68,38.15,129.74,49a4,4,0,0,0-.4,2.45l13-17.55c.54-.81,1.16-1.7,1.84-2.65-.28,0-.21.28.2.82,1.77-2.58,2.58-4.29,2.45-5.1.13,0,.41.27.82.81.4-.27,1-.61,1.63-1a4.23,4.23,0,0,1,1.22-1.83ZM29.38,18.77q-.21,2.85-9.18,7.34a7.7,7.7,0,0,0-4.08-2.24H15.5c0,.13-.13.2-.4.2-3.81-.41-5.38-3.8-4.7-10.2.41-3.53,1.77-5.17,4.08-4.89a4.75,4.75,0,0,1,1.84.61q4.48-6.52,6.73-6.33c1.9.28,3.33,1.5,4.29,3.68l1.83,5.91L29,16.12a9.15,9.15,0,0,0,.2,1.22A8.41,8.41,0,0,1,29.38,18.77ZM17.54,40c-.13,1.23-1.15,1.77-3.06,1.64-1.09-.14-2-1.09-2.85-2.86a2.57,2.57,0,0,1,2.45-1C16.52,37.88,17.68,38.63,17.54,40ZM13.26,67.32h-.61l-.61.82.61.4Zm.2,18q0-2.64.21-7.14L12.44,76.3l-.2,1.83a6.82,6.82,0,0,0,.82,3.06C12.37,83,12.51,84.32,13.46,85.27Zm.21-22.64h-.61l-.41,1,.61.2Zm-.21,2.45v-.82h-.4l-.21.82Zm4.9,15.7-.41-.2-.41.82.41.4Zm6.12,65.28-1-.2v-.61l1,.2Zm3.26-72L28,71.2a3,3,0,0,1-.82-.62c0,.41-.14,1.57-.41,3.47l-.4.21v1A4.56,4.56,0,0,1,27.74,74.05ZM32,39.17q-4.5,2-3.67,2-2.25-.21-1.84-3.88c.13-1.76.82-2.58,2-2.45a8.54,8.54,0,0,1,3.67,2Zm-3.27,20v-.82l-.61-.2V59ZM51.41,22c-.55.55-.89.82-1,.82q.61,0-3.47-1.84a23.76,23.76,0,0,1,.41-3.26q1.62.62,4.28,1.83Zm3.67,50.39-.41-.2-.41,1,.41.2Zm11-15.71c.27-2.17.27-3.4,0-3.67a5.1,5.1,0,0,0-1.84,2.45,2.34,2.34,0,0,0,.2,1v.41a6.39,6.39,0,0,0,.82-.11A7.94,7.94,0,0,1,66.1,56.71Zm12.64,64.87,1.64-26.52a13.53,13.53,0,0,1-.31,2.15,21.07,21.07,0,0,1-.51,2.14ZM81,93.23h-.61l-.41,1,.61.2Zm.2-1.23h-.61l-.41,1,.41.21Zm.41-4.08a7.42,7.42,0,0,1-.2-2.85A25,25,0,0,0,81,90.58,12.39,12.39,0,0,1,81.6,87.92ZM82,82.21l.41-4.08a7.64,7.64,0,0,0-1.23,2.65C81.33,81.06,81.6,81.53,82,82.21Zm.81-5.51-.61-.2-.41.61.62.41ZM83,111.18l.41-3.06h-.62l-.4,3.06Zm.2,2.24.21-1.22h-.62l-.2,1.22Zm.21,3.68L83,118.52l-.41-.2L83,117.1Zm0-10.61.2-2.86H83l-.21,2.86Zm.2-6.33.2-1.22h-.61l-.2,1.22Zm.61-15.5L84.46,82h-.62l-.2,2.45Zm19.59,6.53a.8.8,0,0,1-.82-.61,16.09,16.09,0,0,0,1.22-4.9q-1.21,2-3.06,5.71a3.22,3.22,0,0,1,.21,1.84,2.21,2.21,0,0,1-1,1.63l-.21,2.24c.82-.4,1.6-1.46,2.35-3.16A19.93,19.93,0,0,1,103.84,91.19Zm-.82,56.3a1.74,1.74,0,0,1-1.84.61,1.17,1.17,0,0,1,.21.82C102.47,148.65,103,148.17,103,147.49Zm1.43-1.22-1,1-.21-.41.82-1Zm6.32-69.16a1.86,1.86,0,0,0-.2-.81,1.58,1.58,0,0,1-.21-.62.66.66,0,0,0-.61.41c.14.82-.27,1.43-1.22,1.84a24,24,0,0,1-2.86,6.73,11.34,11.34,0,0,0-.2-2.45,3.33,3.33,0,0,1-.51,1.53,3.33,3.33,0,0,0-.51,1.53l1-.41a1.42,1.42,0,0,1,.41,1Q110.56,77.74,110.77,77.11Zm-4.08,4.08.21-1-.41.21c-.28.13-.41.27-.41.4C106.08,81.06,106.28,81.19,106.69,81.19Zm5.51-11.83-.41-.2L111.18,71h.61Zm2,.82a5.28,5.28,0,0,0-.1-.72,4,4,0,0,1-.1-.71c-.28.41-.69,1-1.23,1.63A1.71,1.71,0,0,1,114.24,70.18Zm.61-4.29h-.61l-.61,1.63.61.21Zm11.83-8.77h-.4l-.41,1,.2.41Zm2.25-14.69-.21-.61L127.3,43l.4.21Zm-.61,47.13-.41-.41-.41.2.41.61Zm2.24-5.92c-.68,1-1.16,1.63-1.43,2h.61C130.15,84.73,130.42,84.05,130.56,83.64ZM133.82,69l-.61-.2L132.6,71H133ZM134,21.42l-.82.82L132.8,22l.62-1Zm1,46.72V66.71h-.61v1.43Zm2.65,5.5-1,1.43-.41-.2,1-1.23Zm-.2-8-1,.2v-.41l.81-.4Zm3.06-47.13A26.54,26.54,0,0,1,138.72,22a2.21,2.21,0,0,1-.2-1C138.52,20.6,139.19,19.79,140.56,18.56Zm.81,4.7h-.61v-1h.61Zm2-7.14-1.83,2-.41-.41,1.83-2Zm-1,8.16-1.22,1a4.4,4.4,0,0,1,1-2.25A2.83,2.83,0,0,0,142.39,24.28Z"/><path class="cls-1" d="M233.78,85.88q0,3.68-3.06,10.82-1.22,3.47-3.47,11a98.74,98.74,0,0,0-6.93,9l1-2c.82-1.5,1.09-2.38.82-2.65a76.1,76.1,0,0,0-4.49,7.34,35.55,35.55,0,0,0-3.67,3.88c-.82,1.49-2,3.67-3.47,6.52A50.69,50.69,0,0,1,198.7,142q-11.23,8.37-14.9,8.37a6.48,6.48,0,0,1-1.83-.41,6.8,6.8,0,0,0-1.64-.41,20.8,20.8,0,0,0-4.58.72,21.53,21.53,0,0,1-4.59.71q-6.12,0-13.06-6.53l-4.08-.81a5.12,5.12,0,0,0-.21,1.63,17.21,17.21,0,0,0,.21,2.45q-2-2.65-5.51-6.94c-.14-.68-.48-1.9-1-3.67l-1.22-.82c-.28-1.76-.69-4.49-1.23-8.16a3.57,3.57,0,0,0,1-1.83,38.68,38.68,0,0,1-2.65-8q.61-.61,0-11A120,120,0,0,1,151,77.93q2.23-6.33,8.77-13.26,6.93-8.16,12.45-9.39c.54,0,3.12-1.08,7.75-3.26a49.17,49.17,0,0,0-22.44,17.75c-.14.14,0,.41.4.81l1-.81a22.26,22.26,0,0,0-4.28,6.93l.82.41q6.31-8.76,20.6-18.56a16.89,16.89,0,0,0-3.47,1q13.06-7.76,20.2-7.55c-.14,0-.41.2-.82.61a2.47,2.47,0,0,0,1.43.41,16.5,16.5,0,0,0,3.06-.41,17.42,17.42,0,0,1,3.06-.41,7.79,7.79,0,0,1,2.76,1.43,9.28,9.28,0,0,0,2.54,1.43c.55,0,.79-.1.72-.31s0-.3.3-.3a5.45,5.45,0,0,1,1.74,1.32q1.11,1.13,6,6.63a17.71,17.71,0,0,0,4.08,4.9l.81-.82c-.95-.4-1.32-1-1.12-1.63a1.38,1.38,0,0,0-.51-1.63,7.29,7.29,0,0,1,4.9,1.43c.81-1,1.22-1.56,1.22-1.84a13.28,13.28,0,0,0,3.26,4.69q1.43,1.64,4.29,10.41c0,.54.07,1.43.2,2.65a4.38,4.38,0,0,0,1.84,1.63A6.64,6.64,0,0,1,233.78,85.88ZM164.42,64.26l-2.65,2.86-.2-.62L164,64.06Zm3.27-2-2.65,2-.21-.82,2.45-1.83ZM200.12,81.8a17.09,17.09,0,0,1-2.44-4.69Q195,79,189.11,84.05A7.39,7.39,0,0,1,190.74,81a75.35,75.35,0,0,0-13.67,25.91c-.54-.82-.89-1.23-1-1.23q-1.43,0-2.75,4.9A30.87,30.87,0,0,0,172,117.5a40.86,40.86,0,0,0,1.84,10.61q8.16-2.24,15.71-12t7.34-17.75c.54.27.95-.14,1.22-1.23l.62-1.42c-1.1-.41-2.25-.89-3.47-1.43a9.32,9.32,0,0,0,.2-1.63q0-2-6.53-3.68l5.1-.2a13.39,13.39,0,0,1,2.86,1.84,10.3,10.3,0,0,1,.61-1.43,2.68,2.68,0,0,1-1.43-.21c.68-.67,1-1.22.82-1.63l-2.24-1.63A7.38,7.38,0,0,0,198.7,83a18.56,18.56,0,0,0-1.64-1.84,5.93,5.93,0,0,1,1.64.31A5.93,5.93,0,0,0,200.12,81.8ZM182,52h-1.23V51.2H182Zm8.77.2q-2.25.62-9.18,3.06h1.83Q184.62,55.49,190.74,52.22ZM184.62,51h-1.23v-.82h1.23Zm9,43.86h-1V94h1ZM229.91,61.4h-.82V59.57h.82Z"/><path class="cls-1" d="M230.11,38.76q2.85-1.23,4.49-1.84c.13,1.64.2,2.73.2,3.27-2.72,1.09-3.87,1.63-3.47,1.63a3,3,0,0,1-1-.61Zm5.3,49.78.21-.82-.21-2q2.25-5.3,4.08-5.51A3.36,3.36,0,0,1,242.15,82a7.1,7.1,0,0,0,1.22,2.24,2.93,2.93,0,0,1,1.22-.2q2,0,2.25,3.06Q247,93,243.57,93a.18.18,0,0,1-.2-.2L243,93a4.93,4.93,0,0,0-2.65,1.23c-3.54-2.58-5.3-4.15-5.3-4.69A2,2,0,0,1,235.41,88.54Zm4.29,43.86-2.25,7.54.41.21,2.45-7.75Zm77.92-65.9q-.6-2.44,0-2.85-1.64-5.92-2.44-9a16.16,16.16,0,0,0-3.67-2.45,6.28,6.28,0,0,0-.62,2.25h-.4c-1.09-1.77-2-2.58-2.66-2.45l-2.44,1.43a6.57,6.57,0,0,0-.62-.82q-4.08-2.45-5.3-2.24-1.23,0-7.35,5.91a1.94,1.94,0,0,1-1.63-.81,2,2,0,0,1-.4,1.43l-1.23.2c-.27,0-.37-.1-.3-.31s0-.3-.31-.3c-.68,0-1.36.75-2,2.24v1.84a2.91,2.91,0,0,1-.41,1.63c1.22-1.77,2.11-3.06,2.65-3.88l.21.41Q281.1,72,276.42,79a63.13,63.13,0,0,1,0-7.35.57.57,0,0,1-.21-.4,34.06,34.06,0,0,0,0-9.18.32.32,0,0,0-.3.2c-.07.14-.24.2-.51.2-.55,0-.75-.81-.62-2.44l.41-2.45q-4.49-4.91-6.73-3.67c2.72,1.36,4,2.44,3.88,3.26,1.09.27,1.7,1.16,1.83,2.65A3,3,0,0,1,274,61q-2-4.08-4.29-4.7a1.53,1.53,0,0,0,.21.62,1.61,1.61,0,0,1,.2.61l.61-.21c.68,0,1.43.69,2.25,2l-1.63.82q-4.29-4.69-5.1-4.9a2.49,2.49,0,0,0,.4-1.42,19.22,19.22,0,0,1-6.52,2.85c-1.5.68-2.59,1.16-3.27,1.43a6.33,6.33,0,0,0-.2,1.43A5.69,5.69,0,0,1,254.39,62a26.72,26.72,0,0,0-2.86-.82c0-.13-.2-.07-.61.2a.37.37,0,0,1,.41.41c-.69,1.91-1.09,3-1.23,3.27a2.34,2.34,0,0,1,.92-.41,2.42,2.42,0,0,0,.92-.41.26.26,0,0,1,0,.41c-1.5,1.9-2.25,3.06-2.25,3.47a9.32,9.32,0,0,0-2.44,1.63l.81-.61a4.35,4.35,0,0,1,.82,1,1.28,1.28,0,0,0,0,1,9.84,9.84,0,0,1,1.22-2.66,1.13,1.13,0,0,1-.2,1.43c.68-.13.95.48.81,1.84.95,4.21,1.5,6.6,1.64,7.14a20.69,20.69,0,0,1-.82,5.71c.13-.13.41.14.82.82q-1.64,9-2.25,12-2.65,14.28-3.87,17.95-2.25,6.33-2.25,10a4.33,4.33,0,0,1-.3,1,3.75,3.75,0,0,0-.31,1.22c0,.55.13.82.41.82l5.71-17.75L244,132q1.43-4.91,2.25-6.94,0,.42-2.25,8.77c0-.27.27-.47.82-.61l-2.45,6.12a6.84,6.84,0,0,1,.51-3.26,5.08,5.08,0,0,0,.51-2.45c-1,3.4-1.5,5.37-1.63,5.92a.57.57,0,0,1,.2-.41c.14.81-.68,4.15-2.45,10l-.4-.61c.13,2.18-.07,3.6-.62,4.29.68-1.09,1.23-1.91,1.64-2.45a3.65,3.65,0,0,1,.2.81,7.63,7.63,0,0,1,1.22-4.28l.41.61a1.55,1.55,0,0,1,.21-.61,6.34,6.34,0,0,1-.31,2.86,9.12,9.12,0,0,0-.51,2.24,32.8,32.8,0,0,1,1.22-3.06c.41.41.62.68.62.82a12.12,12.12,0,0,0-1,3.87q2.44-4.89,2.65-5.3,12.44-32.85,12.44-33,3.87-12.44,6.53-23.26c1,1,1.43,1.3,1.43,1Q258,120,257.85,120.56q-4.89,18.36-10.6,29.38c.4-.27.61-.2.61.2v1.23a13.79,13.79,0,0,1,2.24-4.49c.27.14.34.27.21.41-1,2.85-1.77,4.62-2.45,5.3a48,48,0,0,0-3.68,9c.82-1.63,1.43-2.79,1.84-3.47.14,0,.14.13,0,.41,0,.13.14.2.41.2s1.5-2.58,3.67-7.34c3.4-7.35,5.17-11.15,5.31-11.43a1.23,1.23,0,0,1,.2.82q.19,1.43-4.69,12c.81-1.09,1.56-2,2.24-2.86.13-.41.27-.55.41-.41q.62-.41,1,0a56.29,56.29,0,0,0-2.45,7.35,86.35,86.35,0,0,0,4.9-10.41l-.61.61a12.49,12.49,0,0,1,1.22-3.26c.27.27.41.48.41.61a18.83,18.83,0,0,1,1-4.69c.41.41.47.75.2,1q4.7-9,4.69-13.46,2-3.27,2-4.9a1.19,1.19,0,0,0-.61-1c.54-.41.88-.68,1-.82.14-1.22.41-2,.82-2.24l-.21-1.43a1.83,1.83,0,0,1,.21-1.83l.61.4c.54-1.49.95-2.58,1.22-3.26a3.53,3.53,0,0,1-1.42,1.22c0-1.63.4-2.65,1.22-3.06a2.23,2.23,0,0,1,.41,1.23q3.87-14.09,5.91-15.51l.62.62a2,2,0,0,1,1.42-.41,10.31,10.31,0,0,1,1-3.27c.27.14.34.28.21.41a18.45,18.45,0,0,1-1.23,4.29c-.27-.28-.34-.41-.2-.41a1.74,1.74,0,0,1,.61,1.22,8.08,8.08,0,0,1-.71,2.35,3.28,3.28,0,0,0-.31,2.55,32.82,32.82,0,0,1,2.45-4.49l.41.41c-.14,1.63-.21,2.85-.21,3.67a21.13,21.13,0,0,1,2.86-4.9l.41.41a6.45,6.45,0,0,0-.21,2.86,19.75,19.75,0,0,0,2-3.06c.68,1,1.36,1.43,2,1.43a9.55,9.55,0,0,0,1-2.25c.27.28.34,1.16.21,2.65q3.06-5.91,3.67-6.93a2.72,2.72,0,0,1,.41,1c1.76-3.13,2.78-5,3.06-5.51A7.16,7.16,0,0,1,295,91l.61-.61a1.15,1.15,0,0,0,.82.41q.4,0,3.87-5.71t3.88-5.71h1.23l.4-1.64c0-1.08.34-1.63,1-1.63a8.74,8.74,0,0,1,2.45.72,9.06,9.06,0,0,0,2.45.71c.27,0,.61-.27,1-.82-.14-.81-.07-1.29.2-1.42a4.93,4.93,0,0,1,1.23,2.65,16.56,16.56,0,0,1,.61-3.67,16.49,16.49,0,0,1,.82,2.24l-.62.82h1.63c-.13-2.86-.07-4.63.21-5.31.81-1.49,1.29-2.38,1.43-2.65A21.69,21.69,0,0,1,317.62,66.5Zm-78.53,88.95-.41,1.22.41.21.4-1.43Zm2-3.27-.4,1h.4l.41-.81Zm2.25-3.67-.41-.2,2.24-7.55h.41Zm.81,14.69-.81,1.63.61.21.61-1.64Zm.41-106.08c1.5-1.22,2.72-1.84,3.68-1.84,1.22-.13,1.9.69,2,2.45q.19,3.68-2,3.88.81,0-3.68-2.25ZM246,161.77,244.59,165h.82l1.22-3.27Zm-.2-21.83v-.81h.61v.81Zm1-14.89h-.61l.4-2h.62Zm.61-2H247l.82-5.1h.61Zm.82,34.27-.82.82.41.41.81-.82Zm.2-91.18h-.61v1h.61Zm1.22-4.9a6.82,6.82,0,0,0-1.42,2.45,2.57,2.57,0,0,1,1.42-1.84l.82.41C250.1,61.68,249.83,61.34,249.69,61.2Zm.82,12.44-.82,1.23.62.41.61-1.43Zm.2,16.12h-.61v1h.61ZM250.51,69v-1h.61v1Zm1,16.93h-.61l.2,1h.61Zm.82-19.58-.41-.2.41-.82.4.2Zm-.21-2A3.36,3.36,0,0,1,253.77,62l.21,1.83C253.57,63.58,253,63.72,252.14,64.26Zm.41,4.08-.41-.2.41-.82h.2Zm.41,49.37-.41-.21.41-1,.61.21Zm3.67,10-.41-.2.41-2h.61ZM259.08,61q-.21-2,3.47-2.25A3,3,0,0,1,265,60.18Zm.61,77.31v-.81l.61-.21v.82Zm1-1.43-.41-.2,1-3.06h.41Zm1.63-6.12V130H263v.81Zm.41-1-.2-.81h.61l.2.81Zm.41-1.63v-1.22l.61-.21v1.23Zm.61-1.83-.2-1.23h.61l.2,1.23Zm.41-72.42c0-.41.44-.89,1.32-1.43a4.57,4.57,0,0,1,1.94-.82,1,1,0,0,1,.72.31.82.82,0,0,0,.51.3,3.21,3.21,0,0,1,3.06-1.42c3.26-.14,5,1.09,5.1,3.67a13.67,13.67,0,0,1-.41,4.08Zm.61,36.1h-.61l.2-2.65H265ZM264.38,124v-1h.41v1Zm1-33.86h-.61l.41-2.86h.61Zm3.67,20-.4-.2.2-.82.61.2Zm.41-1.43h-.41l.41-1.83h.61Zm.61-3.67-.41-.2.62-1.43h.61Zm1-1.84-.41.21v-1.84l.62-.2Zm.41-29-.61-.21.41-1h.61Zm0,3.26V76.3h.61v1.22Zm.82-2h-.41V73.24h.61Zm2.24,21.83-.41,1.83.41.21.61-1.84Zm3.06-27.13H277l.2.81h.62ZM285,63l-.41,1,.41.2.4-1.22ZM295.59,91l-1.22,1,.41.41L296,91.19Zm3.06-4.08-.4-.2.4-.82h.41Zm1.63-39.16a1.75,1.75,0,0,1-1.42.81c1.76-.13,2.65.34,2.65,1.43C301.51,48.76,301.1,48,300.28,47.74ZM311.3,80a.84.84,0,0,0-.41-.82c0,1.09-.13,1.7-.4,1.84h.61A3.55,3.55,0,0,0,311.3,80Zm1.22-10.41-.4-2h.61l.41,1.84Zm2.05,1a32.48,32.48,0,0,0,1,3.47c-1.23-2-1.91-3.19-2-3.47a3.24,3.24,0,0,1,.2-1,3.41,3.41,0,0,0,.2-.81,2.46,2.46,0,0,0,1.23.61A4.5,4.5,0,0,1,314.57,70.58Zm3.46,4.7h-.41V76.5H318Z"/><path class="cls-1" d="M455.32,100.37a6.62,6.62,0,0,0-5.3,1.43,7.53,7.53,0,0,1-1.43,1.83,41.43,41.43,0,0,1-3.88,3.06q-2.44,2.25-2.24,4.08-2.66,2.66-11.83,10.2c-.14.14-.07.34.2.61a13.48,13.48,0,0,0,4.29-2.65l1.43,1.43c0,.55-.07.75-.21.61l.82.21q2.24,0,6.32-3.68l-3.67,3.06a3.33,3.33,0,0,0,1.43.41q1.83,0,6.73-2.65l-.21,1.43a29.47,29.47,0,0,1-3.06,3.47c-1.49.4-3.26,1.63-5.3,3.67.54.27,1.43.13,2.65-.41a13.6,13.6,0,0,1-1.94,1.53,14.64,14.64,0,0,0-1.93,1.53l1,1.22c-1.91-.27-2.86.21-2.86,1.43v1.43a13.14,13.14,0,0,0-2.85,1.22c0,.41.47.62,1.42.62q-4.49,2.85-9.58,5.91l-1.23,1.23a6.88,6.88,0,0,0,.41,1.63,2.34,2.34,0,0,1-.2,1.63l-5.72,4.08c-2.44,1.9-4.42,2.86-5.91,2.86q-5.1-.21-5.1,2l-5.51-.21c-.41.14-.68,0-.82-.3a1.27,1.27,0,0,0-.61-.72,65,65,0,0,0-7.75,2,28.66,28.66,0,0,1-9.18,1,45.72,45.72,0,0,1-22.44-7.34,9.39,9.39,0,0,0-.82-1.23c-2.58-1.35-3.67-2-3.26-2q-.82,0-1,.21l.41-.41v-.2H356l-1-1c-.68-.82-1.36-1.16-2-1a28.84,28.84,0,0,0,1.63,2.65,54.6,54.6,0,0,1-4.29-5.1,13.69,13.69,0,0,0-.41-2.86q-1.62-3.47-4.28-11-1,.2-1,1,0,1.22.21,1a2.39,2.39,0,0,0-.82-1.64l-.61.62q-1.23,7.14-6.12,22.44c.27.4-.34.61-1.84.61a3.21,3.21,0,0,1-1.43-.82,3.09,3.09,0,0,0-1.83-.81,2.23,2.23,0,0,1,.81-1.43,6.58,6.58,0,0,0-2.24-1.43q-2,2.66-6.73,8.77L322.52,154a7.09,7.09,0,0,0,1.43-2.24,5.62,5.62,0,0,0-1.43-2.66c-.55.27-1.7,1.7-3.47,4.29-.81-1.23-1.77-2.72-2.86-4.49-.13.13-1.63,1.22-4.48,3.26q-1.84-3.66-1.84-5.1a3.82,3.82,0,0,1,1.43-2.44,4.35,4.35,0,0,0-.82-1h-1a.54.54,0,0,0-.61.61V142.8a8.72,8.72,0,0,0,2.45-2.86q1.83-5.3,3.06-17.13a8.59,8.59,0,0,0,.82-2.45,18.12,18.12,0,0,0,.2-3.88,19.11,19.11,0,0,0-.41-4.69l1.84-1.43,5.3-46.71q3.47-30.39,6.94-46.31.81-3.25,4.89-14.69.4-4.69.21,6.73L333.53,22A1.71,1.71,0,0,0,335,21a158.47,158.47,0,0,1,5.51-21,11.4,11.4,0,0,1,3.47,2.86c.54-.41,1.63-.55,3.26-.41a3.57,3.57,0,0,1,.82.2,3.29,3.29,0,0,0,1,.21c.41,0,.61-.14.61-.41s.2-.34.61-.21a1.21,1.21,0,0,1,.82.41,1.35,1.35,0,0,0,1,.41c1.36.14,2.17-.61,2.45-2.24l2.24,4.89c-.14,3.4-.07,5.31.21,5.71a36.15,36.15,0,0,1-.41,6.94c.27.95.54,2.11.81,3.47L349.24,86.5c-.27,2.58.82,5.17,3.27,7.75a38,38,0,0,0,3.06,4.89q14.28-11.42,29-37.33a22.93,22.93,0,0,0,2.86,2.25A22,22,0,0,1,385.56,69l-.21,1.43c.82.14,1.63-.34,2.45-1.43l1.63-2.65a1.18,1.18,0,0,0,.82.41,25.16,25.16,0,0,1-.41,3.87,8.06,8.06,0,0,0,2.45-2.85l-7.55,15.09a60.41,60.41,0,0,1-9.18,13.88c-.41.4-1.73,1.8-4,4.18s-3.37,3.7-3.37,4c0-.41.62.68,1.84,3.26-.54-.54-1.29-1.36-2.24-2.45-.69.28-1.43,1.23-2.25,2.86l.82.41c.41.13-.28.2-2,.2-.68.27-.89.55-.61.82q-1.23.41-3.27,3.06,2.66,2.85,8.16,4.28,12.24,3.27,11.43,3.26h6.12l5.91-.2.61.82q6.74.41,31.22-15.1-3.27,2.44-12.85,8.57a1.26,1.26,0,0,0,1.42,1.43l14.49-8q14.07-8,16.93-7.75c.27,0,.41.07.41.2s.2.21.61.21a7.65,7.65,0,0,0,3.36-.72,12.82,12.82,0,0,1,3.57-.92C452.13,99.28,453.28,99.69,455.32,100.37ZM333.94,10.61h-.81l-1,5.71h.61ZM345.57,131h-.81v-1h.81Zm2,.2-.41-2-.81-.2.4,2Zm5.1-43.25-2,1.64-.41-.41,2-1.63Zm8.57,20.61-.41-.41L358,110.57l.4.61ZM359,11h-.81V10H359Zm.62,80.78-.62-.2-.4-1.43.61-.21Zm6.53,11.42-.41-.2-4.08,4.08.41.41Zm-2.25,42.64-2-1-.2.61,2,1Zm4.28-36.11H367v-.81h1.22Zm3.88-46.51-3.26,4.69-.62-.41,3.27-4.89ZM370.46,110l-.2.61-1.43-.61v-.62Zm16.93,43.45c-4.89-.68-8-1.16-9.38-1.43a22.79,22.79,0,0,1-8.37-3.47h1.43a30.57,30.57,0,0,1,7.55,2,30,30,0,0,0,7.55,2C387,152.59,387.39,152.86,387.39,153.41ZM372.5,111l-.21.61-1.42-.61v-.62Zm4.69-46.31L376,66.3l-.41-.61,1-1.43Zm1-3.47-.81,1.63-.62-.2.82-1.43Zm0,28.36-.41-.41-1,1.43.41.4Zm17.55-20.81Q393.3,73.44,388,82.62q-3.47,4.29-10,12.85Zm-9.59,9.18h-.61l-1.84,3.87.41.41Zm53,31-.21-.62-2.65,1.23v.61ZM457,100.37l-1.22-.21v-.61l1.22.21Z"/><path class="cls-1" d="M472.67,49a18.45,18.45,0,0,0-4.7,3.26.81.81,0,0,0-.81-.4c-1.64,0-2.79,1.56-3.47,4.69a21.7,21.7,0,0,0,5.91-4.08,2.19,2.19,0,0,0-1,1.63,1.6,1.6,0,0,0,.81,1.22q-.61.21-7.14,3.47l.2.41-1-.2-.61.61a14.52,14.52,0,0,0,3.68.61,13.09,13.09,0,0,0-1.84,1.43c-.68-.27-1.7,0-3.06.92s-2,1.66-1.84,2.34c-.13.14-1.15,1-3.06,2.45-.13.27-.07.41.21.41a3.57,3.57,0,0,0-.82.2,3.25,3.25,0,0,1-.82.21,2.14,2.14,0,0,0,.82-.41,5,5,0,0,0-3.88.81l-1.83,1.23h-1.22a.59.59,0,0,0-.21.41,1.17,1.17,0,0,0,.41.81c-.14-.13-.34-.06-.61.21a1.2,1.2,0,0,1-.82.4c-.27,0-.27-.13,0-.4s0-.41-.41-.41c-.81,0-2.85.81-6.12,2.45l-4.89,2.44-3.27,1a9.29,9.29,0,0,1-2.45,1l-.81.62c-2.31.54-3.47,1.36-3.47,2.44s.82,2.45,2.45,4.08a23.67,23.67,0,0,0,1.22,4.29c2.18.27,3.4.41,3.67.41s.41-.07.41-.21.14-.2.41-.2a1.42,1.42,0,0,1,.92.51,1.39,1.39,0,0,0,.92.51,24.3,24.3,0,0,1,4.59.61,23.81,23.81,0,0,0,4.38.61,16.6,16.6,0,0,1,4.9,1l.81-.81q3.27.81,10.21,5.1l-.41.2a10.53,10.53,0,0,0,2.24,3.26h1c.41,0,.54-.06.41-.2l2.45,2.65a1.42,1.42,0,0,0-.31.72,1.43,1.43,0,0,1-.3.71q6.72,4.48,6.73,5.51a17.18,17.18,0,0,1-.31,2.55,17,17,0,0,0-.31,2.55,22.63,22.63,0,0,0,.21,2.85,2,2,0,0,0-1-.4,6,6,0,0,0,.41-2.25,12.11,12.11,0,0,0-.41-2.85q-1.44,8.35-2.45,12.24a34.25,34.25,0,0,1-5.92,12.24c-.13.27-.47.81-1,1.63l.4-.61-.61-.62a19,19,0,0,1-1.84,2,2.14,2.14,0,0,0,.62.41l1-.61a6.88,6.88,0,0,1-1.23,2.45A49.09,49.09,0,0,0,454.1,144c-.54-1.22-1.16-1.83-1.83-1.83a17.06,17.06,0,0,1-3.07,1c-.27.41-.13.61.41.61-.68,1.36-1.56,2-2.65,2-.27,0-.41-.07-.41-.2s-.13-.21-.41-.21A2.22,2.22,0,0,0,445,146a2.22,2.22,0,0,1-1.12.51,4.76,4.76,0,0,0-.81-1,5.83,5.83,0,0,1-.62.51c-.27.21-.47.38-.61.51a2,2,0,0,1,1.43.41,15.11,15.11,0,0,1-1.94-.2,14,14,0,0,0-1.94-.21,1.35,1.35,0,0,0,1-.41c-.41-.4-.68-.61-.81-.61a2,2,0,0,0-1.43.61l1,1.23a1.21,1.21,0,0,0-.82-.41l-.41.61a1.66,1.66,0,0,0,1,.61q-6.12,2-4.7,2l-1.22-.4a5.36,5.36,0,0,0-1.94,1.12,5.62,5.62,0,0,1-1.94,1.12c-.68,0-1.7.07-3.06.2s-2.38.21-3.06.21c-.27,0-.81-.41-1.63-1.23a1,1,0,0,0,.21,1q-1.85.62-5.11,1.43a192.71,192.71,0,0,1-20.8,1.84h-2a17.79,17.79,0,0,1-4.9-1.43,1.61,1.61,0,0,1-.61-.2h-1c-.41,0-.55.1-.41.3s.07.31-.2.31a2,2,0,0,1-1-.41,2.48,2.48,0,0,0-1.43,0,2.81,2.81,0,0,0,1.83,1h-.81a9.2,9.2,0,0,1-1.43.2,1.91,1.91,0,0,1-1.12-.71,2,2,0,0,0-1.33-.71.9.9,0,0,0-1,1l-1.42-.62c-1-.4-1.43-.74-1.43-1a.55.55,0,0,1,.2-.4c-.14-.28-.54-.41-1.22-.41h-.82a.84.84,0,0,1-.61.2q.62,0-7.35-2.24-2.44-.82-20.8-3.67c.4,0,.61-.28.61-.82,3.81,1.36,6.66,2,8.57,2a2,2,0,0,0,1.43-.41,17.27,17.27,0,0,0-5.31-1.63c-.27,0-.44.07-.51.2s-.24.21-.51.21a3.38,3.38,0,0,0-1.43-1,12.19,12.19,0,0,0-5.71-1.63,1.9,1.9,0,0,1,.2-.82c-1.35-1.09-3.19-2.72-5.5-4.9a7.71,7.71,0,0,1,.4-3.06,3.4,3.4,0,0,1-1-1.42h1.23c-.14,0,0,.2.41.61l.61-.61a27.94,27.94,0,0,1-3.47-2,6.72,6.72,0,0,0-1.22-1.84,4.44,4.44,0,0,1,2.24-2.24c0-.41-.47-.62-1.43-.62.41-.81,1.36-1.35,2.86-1.63-.14-1.36,0-2.17.41-2.45q2.44.62,7.75,1.43l.61.61a5.13,5.13,0,0,1,2,.82,1.62,1.62,0,0,0,.41-1.22q3.46,1.83,5.1,1.83c.68,0,1-.47,1-1.43a.82.82,0,0,0,.82.41.72.72,0,0,0,.81-.81c.68.4,1.57.88,2.65,1.42a51.24,51.24,0,0,0,8.77,1.23.67.67,0,0,0,.62-.41.65.65,0,0,1,.61-.41c.27,0,.51.24.71.72s.45.71.72.71a18.44,18.44,0,0,1,3.57.51,18.24,18.24,0,0,0,3.57.51c5.43,0,11.15-.2,17.13-.61a1.57,1.57,0,0,0-1-.21q3.87-.4,10.41-1.42a142,142,0,0,0,29.78-4.49c.54-.41.82-.68.82-.82a8.83,8.83,0,0,0,4.28-1.83c0-.82-.27-1.23-.82-1.23h-.81l1.22-.61a2,2,0,0,0-1.42-.41q1.22-.19,6.11-3.06L437.17,112a13.17,13.17,0,0,0,3.87.81h5.1v-1.43a138.37,138.37,0,0,1-15.29-2.85l-1.23.2q1,1,1,1.23a9.58,9.58,0,0,0-3.47-.82c.14,0,.34-.13.61-.41a1.82,1.82,0,0,0-1.63-.61,2.91,2.91,0,0,0-1.63.41c-.27.13-.14.68.41,1.63-.68-.13-2.79-1.43-6.33-3.88-.4.41-.47.75-.2,1a4,4,0,0,0-2-.61c-1.36,0-2.24,1.3-2.65,3.88a5.41,5.41,0,0,0-2.45-.61,7.57,7.57,0,0,0-1.33.2,6.54,6.54,0,0,1-1.32.2c-.27.28-.2.82.2,1.64a5.66,5.66,0,0,0-3.87.81,3.41,3.41,0,0,0-.61-2.85q-1.23.2-2.66,3.87a3,3,0,0,0-.2-2h-1a3.85,3.85,0,0,0,0,2.45,2.45,2.45,0,0,0-1.84.41,18.23,18.23,0,0,0-.81-2.65,7,7,0,0,1-2.66,1.83,4.77,4.77,0,0,1,1.64-1.63,17.59,17.59,0,0,1,.81-3.47l-.2-1.63a1.15,1.15,0,0,0-.41.82.59.59,0,0,0,.2.4,4.34,4.34,0,0,0-1,.82,2,2,0,0,1-.82-2,8.93,8.93,0,0,0,0-2.65c-1.91.81-2.72,2.65-2.45,5.51,0-.14-.1-.27-.3-.41a.68.68,0,0,1-.31-.61q0-1.23,2.85-6.12l-.2-1.64c-.41,0-.82.55-1.22,1.64a7.47,7.47,0,0,0-1.23-1.43,2.1,2.1,0,0,0-1.43,2,1.62,1.62,0,0,0-1-.61h-.61a.59.59,0,0,1-.41.2q2.66-3.26,2.66-4.49a.88.88,0,0,0-.31-.81.71.71,0,0,1-.31-.62h-.81c-1.09,0-2,.69-2.65,2a2.65,2.65,0,0,1-.92-.4,2.44,2.44,0,0,0-1.12-.41q.6-5.72,11.42-25.91A98.54,98.54,0,0,0,406.57,60V61.4q2.24-2.24,6.53-5.91,3.25-2,4.28-2.86c1.9-1.49,2.92-2.72,3.06-3.67q3.06,0,11.42-4.69l8-4.49c3.94-1.36,6.19-2.72,6.73-4.08a1.18,1.18,0,0,0,.82.2c.68,0,2.17-.74,4.49-2.24a1.67,1.67,0,0,0-1-.61l.81-1c.14,0,.24.24.31.71s.31.72.71.72a1.78,1.78,0,0,0,1.23-.62c-.28,0,.06.48,1,1.43.68-.27,1.7-.74,3.06-1.43v2.45a1.93,1.93,0,0,0-1.23,0v.61l-.61-.2a3.65,3.65,0,0,0-.81-.2l-.21,2q3.06,0,3.67-2.45c3.4-1.63,5.51-2.25,6.33-1.84a2.55,2.55,0,0,1-.61,1.23,1.18,1.18,0,0,0,.81.2,7.26,7.26,0,0,0,.41-2.65l1.83,1.22A17.06,17.06,0,0,1,468,35.9a3.63,3.63,0,0,1-.71,1.13,2.72,2.72,0,0,0-.72,1.53,6.69,6.69,0,0,0,.62,1.83,3.6,3.6,0,0,0,.2-1.43c.14,0,.34-.13.61-.4a1.4,1.4,0,0,1,1-.41c.27,0,.34.14.21.41s-.07.4.2.4a1.75,1.75,0,0,0,1.12-.4,1.59,1.59,0,0,1,.72-.41,8.41,8.41,0,0,1-.21,1.43V40.8a4.1,4.1,0,0,1,1.23,2.45c-.14.41-.68,2.45-1.64,6.12,0-.82.14-1.29.41-1.43V46.72a.64.64,0,0,0-.61-.41l-1,3.06a1.66,1.66,0,0,0,1,.2,1.73,1.73,0,0,0,1.43-1A2,2,0,0,0,472.67,49ZM338,134.84h-1v-.61h1Zm6.53,10.82-1.83-.41v-.61l1.83.4Zm13.88,1v-.62H357.2v.62Zm.4-3.27v-.61h-1v.61Zm1,1.43v-.61H359v.61Zm1.43.41v-.61h-1.22v.61Zm-.2,2.24v-.61h-1v.61Zm.2-3.26v-.61h-.82v.61Zm1.84.41V144h-1.23v.62Zm1.83,1.42v-.61l-2.44-.41v.62Zm-.41-7.34v-.61h-.81v.61Zm.82,6.12v-.61h-1.63v.61Zm.2,3.67v-.61l-1.83-.41v.61Zm1.84-1.83v-.62l-2.24-.4v.61Zm1.22-7.14v-.62h-1v.62Zm1,7.14v-.62h-1.42v.62Zm1.43-6.74v-.61h-2v.61Zm.41,7.14v-.61h-1v.61Zm0,2v-.61h-1v.61Zm1.43,0v-.61h-1v.61Zm5.71-2.44v-.62l-5.92-.4v.61Zm-.41,1v-.62l-5.51-.2v.61ZM375,149.53v-.61h-2v.61Zm4.69.82v-.61l-3.87-.82v.61Zm1-.41v-.61h-.81v.61Zm1.22,3.06-1.63-.82-.2.62,1.63.81Zm1.84-5.92v-.61h-1.84v.61Zm2.45-4.08v-.61h-3.06V143Zm0,7.35v-.61h-2.45v.61Zm39,.61c-.54,0-1.39-.07-2.55-.2a23.42,23.42,0,0,0-2.55-.21,1.1,1.1,0,0,0-.81.51,1.13,1.13,0,0,1-.82.51,1.33,1.33,0,0,1-.81-.3A1.23,1.23,0,0,0,417,151a11.19,11.19,0,0,0-4.69,1l-.82-.82a31.62,31.62,0,0,0-4.89,1.23,1.21,1.21,0,0,0,.41-.82h-2.45a1.94,1.94,0,0,1-.2.82,1.76,1.76,0,0,0-1.23-.61c.41.4.54.67.41.81a12.12,12.12,0,0,0-2.86-.41c.68,0,.82.14.41.41h-1a3.53,3.53,0,0,0-2.45-.61h-5.1a23.72,23.72,0,0,1-4.28.2h-2.86a6.44,6.44,0,0,1,2.55.92A7.7,7.7,0,0,0,390,154a3.79,3.79,0,0,0,1.23-.31,3.94,3.94,0,0,1,1.22-.3c.27,0,.27.13,0,.41-.14.13-.07.2.21.2a11,11,0,0,0,2.24-.31,11.4,11.4,0,0,1,2-.3,2.86,2.86,0,0,0,1,.61,42.21,42.21,0,0,0,7.14-.41c0-.68.07-1.09.21-1.22s.2.17.2.51.2.51.61.51.75-.14.61-.41l.61.82a26.78,26.78,0,0,0,8.16-1.23c-.27.27-.07.41.62.41a8.75,8.75,0,0,0,4.08-1.22c0,.27.47-.07,1.43-1l.2.61a.79.79,0,0,0,.81.61,3.26,3.26,0,0,0,1.33-.51A4,4,0,0,1,425.13,151Zm-37.53-3.88v-.61h-2v.61Zm.81,3.06-1.43-.4v.4l1.23.41Zm2.45-23.25h-1v-.61h1Zm.2-46.72-.61,1.43-.41-.2.41-1.23Zm1-2.85-.82,2.44-.61-.2.81-2.24Zm0,20.8v-1h-.62v1Zm2,52.23v-.61h-2v.61Zm0-50.39-.2-.61-.82.41v.61ZM400,147.49v-.61h-5.1v.61Zm-3.87,2.86v-.61h-1v.61Zm1.42,0v-.61h-1v.61Zm1.84-22v-.62H397v.62Zm0,22v-.61h-1v.61Zm3.87-22v-.62l-3.46-.2v.61Zm-1.42,22v-.61h-2v.61Zm-1,1v-.61h-1v.61Zm.81,5.91-.2.62-1-.62.2-.4Zm2.45-.81h-2v-.82h2Zm-.82-6.12v-.61h-.81v.61Zm1.64-90.78-1.23,1.22-.41-.41,1.23-1.22Zm1,91.8v-.61h-2.45v.61Zm-.41-1v-.61h-1.63v.61Zm3.47-3.27v-.61h-1.23v.61Zm1.22,9.39a2.32,2.32,0,0,0-1.63.41l.82-1A6.68,6.68,0,0,0,410.24,156.47Zm-.61-10.61-.61-.41-.21.41.41.41ZM418.4,155a25.22,25.22,0,0,1-5.3.61c2.58-.81,3.67-1.22,3.26-1.22A3.91,3.91,0,0,1,418.4,155ZM416,150.55v-.61h-1.43v.61Zm.41-1v-.61h-1.43v.61Zm1-3.87V145H416v.62Zm5.1,8.56h-1.84v-.61h1.84Zm1.43-.61h-1.43V153h1.43Zm2.86-3.26h-2.66a3.07,3.07,0,0,1,2.25.81A2,2,0,0,1,426.77,150.35Zm3.46,1v-.61h-.81v.61Zm2.25-2.45v-.61h-1v.61Zm.61-1.22v-.62h-1.23v.62Zm.2,1.83-.2-.61-1.23.41v.61Zm1.23-2v-.61h-1.23v.61Zm.81-35.9h-1V111h1Zm3.27,5.51-1,.4v-.4l.81-.41ZM440,149.74l-1.22.81-.2-.41,1.22-.81Zm2-3.68v-.61h-1.22v.61Zm2.86,1.43h-.82v-.61h.82Zm3.67-9.38v-.61h-1v.61Zm0,5.91-.2-.4-.82.4v.41Zm2.66-7.14-.21-.4-2.24.61v.61Zm-1,13.26-1.22.41v-.41l1-.4Zm7.35-53.44c-.55-1.09-3.2-2.31-8-3.68a4.28,4.28,0,0,0-.2,1.84A29.93,29.93,0,0,1,457.57,96.7Zm-7.14,42.43v-.61h-1v.61Zm7.95.41q-2.44.19-3.87,3.06a.82.82,0,0,0-.82-.41,3.15,3.15,0,0,0,.41,1.22A8.57,8.57,0,0,0,458.38,139.54Zm1.84-74.06-4.28,1.84v-.41l4.08-2Zm-1.84,32.24-2-.82v.61l1.83.61Zm.82,2.85L458,98.74l-.41.4,1.22,1.64Zm-.61,46.51h-.82v-.61h.82Zm3.26-46.51c-1.22.68-1.77,1.23-1.63,1.63.54.55.95.82,1.22.82a5.39,5.39,0,0,1,.21-1.22A5.93,5.93,0,0,0,461.85,100.57Zm-.61-35.29h-1v-.61h1Zm1.43,72.22L461,139.13l-.21-.41,1.63-1.63Zm0-95.07-.21-.41-1.22.82.2.41Zm0,20.2-1,.81-.41-.61,1.22-.81Zm1.43-5.71h-1.43l-.61.81A2.8,2.8,0,0,0,464.1,56.92Zm.41,46.1a14.22,14.22,0,0,1-2.05-2,1.75,1.75,0,0,1,.21.82,1.42,1.42,0,0,1-.41,1c1.09,1.09,1.63,1.56,1.63,1.42A1.37,1.37,0,0,1,464.51,103Zm2-63.65a5.23,5.23,0,0,1-2.24-1.22c-.27-.27-.48-.41-.61-.41V39a6.22,6.22,0,0,0-.21,1,2,2,0,0,0,.41-.61,2.47,2.47,0,0,1,.41-.61,2.25,2.25,0,0,1-.41,2.24l-.81,1C465,41.75,466.14,40.87,466.54,39.37Zm-1.83,20h-1.23v-.61h1.23Zm1.63-.81-1,.61v-.61l.82-.41Zm.41,76.09h-.61l-.41-.82.61-.2Zm1-92.21-.41-.41-.82.82.41.41Zm.41,7.14V48.35h-.62v1.22Zm2-5.51V40a2,2,0,0,0-1.43-.4,2,2,0,0,1-.41,1,2.18,2.18,0,0,0-.41,1.22l.62.61v2.86C469,45,469.53,44.61,470.22,44.06Zm-.62,2-.2-.61-1.22.41v.61Zm.41,72.42h-.61v-1H470Zm2.25-96.28-.82.81H469.6V20.6L471,19.18Q471.44,19.38,472.26,22.24ZM471,119.54h-.61l-.41-.81.61-.21Zm16.73-86.08c0,.95-.68,2.17-2,3.67l-2.45,2a26.17,26.17,0,0,1-1.83-2.45c-.41.27-1.43.07-3.06-.61a3.07,3.07,0,0,0,1.42-1.63c-2.44-.68-4.15-2.79-5.1-6.33l-1.42,1.43-2.45-2.45c1.09-1.76,1.9-2.65,2.45-2.65l.61.82a16,16,0,0,1,1-3.27q2.44-3.68,6.12-3.67a8.64,8.64,0,0,1,2,.61,7.73,7.73,0,0,0,2.45.61,3,3,0,0,1-.21,1.84c1.63,1.63,2.45,2.93,2.45,3.88q0,.81-2.45,5.1C486.94,31.35,487.76,32.37,487.76,33.46Zm-14.28,91-.41,1.43-.4-.21.4-1.22Zm30.19-81.19q-2.85,2-8.77,5.71c-1.09.95-2.58,2.24-4.49,3.88a2.13,2.13,0,0,1-.81-.41Q492.66,47.74,503.67,43.25Zm1.43-5.31a3.43,3.43,0,0,1-.2,1,3.29,3.29,0,0,0-.21,1,2.82,2.82,0,0,0-2,.41,4.07,4.07,0,0,1-.81-1.22,5.38,5.38,0,0,1,.41-1.53,5.61,5.61,0,0,0,.4-1.53,7,7,0,0,1,2.45,0Z"/></g></g></svg>